<svg id="award" enable-background="new 0 0 300 300" height="512" viewBox="0 0 300 300" width="512" xmlns="http://www.w3.org/2000/svg"><g><circle cx="139.349" cy="131.676" fill="#eaeaea" r="90"/><g fill="#4c241d"><path d="m253.579 45.559c-1.023 0-2.047-.391-2.828-1.172-1.562-1.562-1.562-4.096 0-5.656l6.779-6.777c1.562-1.562 4.094-1.562 5.656 0s1.562 4.096 0 5.656l-6.779 6.777c-.781.781-1.804 1.172-2.828 1.172z"/><path d="m237.763 61.377c-1.023 0-2.047-.391-2.828-1.172-1.562-1.562-1.562-4.094 0-5.656l6.779-6.779c1.562-1.562 4.094-1.562 5.656 0s1.562 4.094 0 5.656l-6.779 6.779c-.781.781-1.805 1.172-2.828 1.172z"/><path d="m243.79 44.809c-1.023 0-2.047-.391-2.828-1.172l-6.832-6.834c-1.562-1.562-1.562-4.096 0-5.656 1.562-1.562 4.094-1.562 5.656 0l6.832 6.834c1.562 1.562 1.562 4.096 0 5.656-.781.781-1.805 1.172-2.828 1.172z"/><path d="m260.358 61.377c-1.023 0-2.047-.391-2.828-1.172l-6.779-6.779c-1.562-1.562-1.562-4.094 0-5.656s4.094-1.562 5.656 0l6.779 6.779c1.562 1.562 1.562 4.094 0 5.656-.781.781-1.804 1.172-2.828 1.172z"/></g><g><path d="m159.095 153.39 43.321 112.635 8.665-43.321 34.657 25.993-43.322-121.3z" fill="#bd53b5"/><path d="m202.415 270.025c-1.643 0-3.133-1.01-3.73-2.564l-43.322-112.635c-.699-1.812.008-3.865 1.674-4.865l43.322-25.994c1.029-.617 2.281-.738 3.406-.336 1.129.402 2.016 1.291 2.42 2.42l43.32 121.301c.594 1.662.027 3.518-1.395 4.566-1.418 1.047-3.359 1.037-4.773-.021l-29.578-22.186-7.42 37.1c-.348 1.744-1.809 3.049-3.582 3.201-.115.009-.229.013-.342.013zm-38.381-114.933 37.166 96.625 5.959-29.799c.27-1.346 1.211-2.461 2.494-2.951 1.281-.494 2.729-.287 3.828.537l24.016 18.012-37.205-104.18z" fill="#4c241d"/></g><g><path d="m155.602 153.39-43.321 112.635-8.664-43.321-34.658 25.993 43.322-121.3z" fill="#bd53b5"/><path d="m112.282 270.025c-.113 0-.227-.004-.342-.014-1.773-.152-3.234-1.457-3.582-3.201l-7.42-37.1-29.578 22.186c-1.414 1.059-3.355 1.068-4.773.021-1.422-1.049-1.988-2.904-1.395-4.566l43.32-121.301c.404-1.129 1.291-2.018 2.42-2.42 1.125-.402 2.377-.281 3.406.336l43.322 25.994c1.666 1 2.373 3.053 1.674 4.865l-43.322 112.635c-.597 1.556-2.087 2.565-3.73 2.565zm-8.666-51.322c.48 0 .965.086 1.428.264 1.283.49 2.225 1.605 2.494 2.951l5.959 29.799 37.166-96.625-36.258-21.756-37.205 104.18 24.016-18.012c.703-.527 1.547-.801 2.4-.801z" fill="#4c241d"/></g><g><path d="m157.663 49.97 2.098-1.321c9.373-5.905 21.881-2.713 27.143 6.926l.569 1.042 2.89-.402c11.704-1.627 22.087 7.473 21.768 19.078l-.003.114 2.539.556c12.211 2.675 18.549 15.968 12.823 26.893l-.124.237 1.516.915c10.929 6.601 12.255 21.697 2.638 30.039l-.968.84.422.521c7.91 9.779 4.063 24.277-7.7 29.021l-2.139.863c3.169 11.55-5.33 23.023-17.494 23.616l-2.899.141-.124.525c-2.582 10.901-14.245 17.17-24.985 13.43l-2.732-.951-1.355 1.408c-7.537 7.835-20.23 7.835-27.767 0l-1.355-1.408-2.732.951c-10.74 3.74-22.403-2.529-24.985-13.43l-.124-.525-2.899-.141c-12.164-.593-20.663-12.067-17.494-23.616l-2.139-.863c-11.763-4.744-15.61-19.242-7.7-29.021l.422-.521-.968-.84c-9.617-8.342-8.291-23.438 2.638-30.039l1.516-.915-.124-.237c-5.726-10.926.612-24.218 12.823-26.893l2.539-.556-.003-.114c-.318-11.605 10.065-20.705 21.768-19.078l2.89.402.569-1.042c5.262-9.639 17.77-12.831 27.143-6.926z" fill="#b5a19c"/><path d="m157.663 213.338c-6.199 0-11.977-2.363-16.334-6.668l-.318.111c-6.238 2.18-13.145 1.605-18.934-1.57-4.934-2.705-8.678-7.107-10.545-12.305l-.045-.002c-7.09-.346-13.525-3.811-17.654-9.506-3.324-4.588-4.775-10.135-4.172-15.641-6.373-2.875-10.988-8.311-12.734-15.051-1.547-5.963-.617-12.113 2.535-17.289-4.404-4.682-6.586-10.881-6.031-17.348.578-6.723 4.016-12.666 9.512-16.547-1.896-5.564-1.586-11.451.883-16.748 2.979-6.387 8.621-10.965 15.529-12.617.652-5.482 3.254-10.506 7.398-14.215 5.102-4.562 11.93-6.637 18.76-5.689l.215.029c3.102-4.83 7.99-8.383 13.629-9.85 6.219-1.617 12.889-.594 18.307 2.809 5.422-3.4 12.09-4.422 18.307-2.809 5.639 1.467 10.527 5.018 13.629 9.85l.211-.029c6.828-.963 13.664 1.125 18.764 5.689 4.166 3.729 6.773 8.785 7.412 14.219 6.902 1.656 12.539 6.23 15.516 12.613 2.492 5.348 2.787 11.297.904 16.764 5.482 3.881 8.914 9.816 9.49 16.531.555 6.467-1.627 12.668-6.033 17.348 3.154 5.178 4.084 11.326 2.537 17.289-1.746 6.738-6.363 12.176-12.734 15.051.604 5.506-.848 11.053-4.172 15.641-4.129 5.695-10.564 9.16-17.656 9.506l-.043.002c-1.869 5.199-5.613 9.602-10.545 12.305-5.791 3.172-12.691 3.746-18.934 1.57l-.318-.111c-4.359 4.305-10.137 6.668-16.336 6.668zm-15.238-15.285c1.068 0 2.115.43 2.883 1.227l1.355 1.408c2.883 3 6.789 4.65 11 4.65s8.117-1.65 11-4.65l1.355-1.408c1.086-1.123 2.725-1.514 4.199-1.004l2.73.951c4.109 1.438 8.648 1.055 12.455-1.029 3.752-2.057 6.352-5.447 7.322-9.545l.121-.518c.408-1.736 1.916-2.992 3.697-3.08l2.9-.143c4.658-.227 8.875-2.488 11.57-6.209 2.605-3.594 3.43-8.096 2.262-12.352-.537-1.957.477-4.008 2.359-4.768l2.139-.863c4.461-1.799 7.697-5.451 8.881-10.021 1.164-4.486.146-9.143-2.791-12.775l-.418-.514c-1.361-1.676-1.146-4.129.484-5.543l.969-.84c3.596-3.119 5.426-7.592 5.025-12.271-.404-4.711-2.996-8.838-7.111-11.322l-1.516-.916c-1.814-1.098-2.459-3.42-1.467-5.295 2.232-4.26 2.342-8.941.418-13.068-1.979-4.244-5.783-7.264-10.438-8.283l-2.537-.555c-1.887-.412-3.209-2.113-3.145-4.043.121-4.369-1.664-8.479-4.893-11.369-3.346-2.994-7.83-4.346-12.324-3.727l-2.887.4c-1.65.246-3.264-.582-4.062-2.041l-.57-1.043c-1.994-3.656-5.346-6.254-9.439-7.318-4.154-1.082-8.441-.42-12.061 1.857l-2.1 1.32c-1.301.82-2.961.82-4.262 0l-2.098-1.32c-3.617-2.277-7.9-2.939-12.062-1.857-4.094 1.064-7.445 3.662-9.438 7.314l-.572 1.047c-.799 1.459-2.43 2.287-4.061 2.041l-2.891-.402c-4.482-.619-8.977.734-12.322 3.729-3.229 2.891-5.014 7-4.896 11.279.053 1.92-1.264 3.723-3.141 4.133l-2.539.555c-4.652 1.02-8.457 4.039-10.436 8.283-1.924 4.127-1.814 8.809.301 12.848.982 1.871.461 4.422-1.35 5.516l-1.516.916c-4.115 2.484-6.707 6.611-7.111 11.322-.4 4.68 1.43 9.152 5.025 12.271l.969.84c1.631 1.414 1.846 3.867.484 5.543l-.422.52c-2.934 3.627-3.951 8.283-2.787 12.77 1.184 4.57 4.42 8.223 8.877 10.021l2.141.863c1.883.76 2.898 2.809 2.361 4.768-1.168 4.256-.344 8.758 2.262 12.352 2.695 3.721 6.912 5.982 11.568 6.209l2.9.143c1.775.088 3.281 1.338 3.693 3.066l.125.523c.973 4.105 3.572 7.496 7.324 9.553 3.809 2.084 8.35 2.465 12.455 1.029l2.73-.951c.439-.152.882-.224 1.324-.224z" fill="#4c241d"/></g><path d="m49.942 68.359c-5.295 0-10.201-3.438-11.814-8.76-.955-3.154-.627-6.492.928-9.398s4.148-5.033 7.303-5.988c6.504-1.977 13.41 1.719 15.385 8.229 1.973 6.51-1.719 13.412-8.229 15.387-1.188.359-2.391.53-3.573.53zm-.009-16.677c-.416 0-.838.061-1.256.188-1.109.336-2.02 1.084-2.566 2.105s-.662 2.195-.326 3.305c.693 2.289 3.127 3.592 5.41 2.893 2.289-.693 3.586-3.121 2.893-5.41-.569-1.872-2.294-3.081-4.155-3.081z" fill="#4c241d"/><path d="m39.642 228.6c-1.023 0-2.047-.391-2.828-1.172-1.562-1.561-1.562-4.094 0-5.656l11.791-11.793c1.562-1.562 4.094-1.562 5.656 0 1.562 1.561 1.562 4.094 0 5.656l-11.791 11.793c-.782.781-1.805 1.172-2.828 1.172z" fill="#4c241d"/><path d="m51.433 228.6c-1.023 0-2.047-.391-2.828-1.172l-11.791-11.793c-1.562-1.562-1.562-4.096 0-5.656 1.562-1.562 4.094-1.562 5.656 0l11.791 11.793c1.562 1.562 1.562 4.096 0 5.656-.782.781-1.805 1.172-2.828 1.172z" fill="#4c241d"/><path d="m157.349 93.676c-.844 0-1.689-.268-2.4-.801l-16-12c-1.768-1.324-2.125-3.832-.799-5.6 1.324-1.762 3.83-2.129 5.6-.799l13.6 10.199 13.6-10.199c1.773-1.33 4.277-.963 5.6.799 1.326 1.768.969 4.275-.799 5.6l-16 12c-.713.533-1.559.801-2.402.801z" fill="#4c241d"/><g><path d="m170.633 119.73c2.901-3.196 4.716-7.398 4.716-12.054 0-9.941-8.059-18-18-18s-18 8.059-18 18c0 4.656 1.815 8.859 4.716 12.054-3.093 5.731-5.002 13.441-5.002 21.946 0 17.673 18.286 32 18.286 32s18.286-14.327 18.286-32c-.001-8.505-1.909-16.215-5.002-21.946z" fill="#ffce56"/><path d="m157.349 177.676c-.871 0-1.742-.283-2.467-.852-.809-.633-19.818-15.75-19.818-35.148 0-7.781 1.514-15.285 4.293-21.438-2.6-3.693-4.008-8.064-4.008-12.562 0-12.131 9.869-22 22-22s22 9.869 22 22c0 4.498-1.408 8.869-4.008 12.562 2.779 6.152 4.293 13.656 4.293 21.438 0 19.398-19.01 34.516-19.818 35.148-.725.569-1.596.852-2.467.852zm0-84c-7.719 0-14 6.281-14 14 0 3.428 1.307 6.754 3.678 9.365 1.141 1.256 1.365 3.096.559 4.59-2.916 5.4-4.521 12.52-4.521 20.045 0 11.787 9.623 22.281 14.285 26.672 4.662-4.391 14.285-14.885 14.285-26.672 0-7.525-1.605-14.645-4.521-20.045-.807-1.494-.582-3.334.559-4.59 2.371-2.611 3.678-5.938 3.678-9.365-.002-7.719-6.284-14-14.002-14z" fill="#4c241d"/></g><g><ellipse cx="177.518" cy="133.917" fill="#fff" rx="11.322" ry="25.166" transform="matrix(.707 -.707 .707 .707 -42.7 164.747)"/><path d="m190.534 157.375c-6.799 0-15.744-4.52-23.85-12.625-11.758-11.758-15.967-25.281-9.789-31.457 6.176-6.178 19.699-1.969 31.457 9.789 11.756 11.758 15.965 25.281 9.789 31.457-1.917 1.918-4.544 2.836-7.607 2.836zm-26.006-39c-.922 0-1.602.199-1.977.574-1.824 1.826.506 10.859 9.789 20.145 9.279 9.279 18.316 11.617 20.145 9.789 1.824-1.824-.506-10.859-9.789-20.145-7.379-7.377-14.597-10.363-18.168-10.363z" fill="#4c241d"/></g><g><ellipse cx="137.518" cy="133.917" fill="#fff" rx="25.166" ry="11.322" transform="matrix(.707 -.707 .707 .707 -54.415 136.463)"/><path d="m124.544 157.434c-3.111 0-5.725-.971-7.648-2.895-3.318-3.316-3.801-8.686-1.361-15.119 2.045-5.391 6.006-11.193 11.15-16.338 11.756-11.756 25.283-15.963 31.457-9.789 6.174 6.176 1.967 19.699-9.789 31.457-5.145 5.145-10.947 9.105-16.338 11.15-2.702 1.026-5.217 1.534-7.471 1.534zm25.965-39.059c-3.568 0-10.789 2.986-18.168 10.363-4.299 4.299-7.697 9.227-9.326 13.52-1.348 3.549-1.203 5.885-.463 6.625.74.744 3.078.883 6.625-.463 4.293-1.629 9.221-5.027 13.52-9.326 9.283-9.285 11.613-18.32 9.789-20.145-.376-.375-1.055-.574-1.977-.574zm-4.985 23.547h.039z" fill="#4c241d"/></g></g></svg>