<svg id="barrel" enable-background="new 0 0 300 300" height="512" viewBox="0 0 300 300" width="512" xmlns="http://www.w3.org/2000/svg"><g><circle cx="180" cy="118" fill="#eaeaea" r="86"/><g><path d="m218 104c0-6.627-30.445-12-68-12s-68 5.373-68 12c-8.617 21.698-12 47.85-12 76s3.383 54.302 12 76c0 6.627 30.445 12 68 12s68-5.373 68-12c8.617-21.698 12-47.85 12-76s-3.383-54.302-12-76z" fill="#bf7e68"/><path d="m150 272c-11.762 0-69.41-.74-71.916-15.025-8.02-20.446-12.084-46.339-12.084-76.975s4.064-56.529 12.084-76.975c2.506-14.285 60.154-15.025 71.916-15.025s69.41.74 71.914 15.025c8.02 20.445 12.086 46.338 12.086 76.975s-4.066 56.529-12.086 76.975c-2.504 14.284-60.152 15.025-71.914 15.025zm-64.049-16.625c2.947 3.025 24.625 8.625 64.049 8.625 39.422 0 61.102-5.6 64.051-8.625.043-.291.121-.576.23-.852 7.778-19.578 11.719-44.652 11.719-74.523s-3.941-54.945-11.719-74.523c-.109-.275-.188-.561-.23-.852-2.949-3.026-24.629-8.625-64.051-8.625-39.424 0-61.102 5.6-64.049 8.625-.047.291-.125.576-.234.852-7.776 19.577-11.717 44.652-11.717 74.523s3.941 54.945 11.717 74.523c.109.276.187.561.234.852zm128.049.619v.006c0-.002 0-.004 0-.006zm-128 0v.006c0-.002 0-.004 0-.006zm128-151.994v.006c0-.002 0-.004 0-.006zm-128 0v.006c0-.002 0-.004 0-.006zm136 0h.039z" fill="#4c241d"/></g><g fill="#4c241d"><path d="m248 68c-7.719 0-14-6.281-14-14s6.281-14 14-14 14 6.281 14 14-6.281 14-14 14zm0-20c-3.309 0-6 2.691-6 6s2.691 6 6 6 6-2.691 6-6-2.691-6-6-6z"/><path d="m262 248h-40c-2.211 0-4-1.791-4-4s1.789-4 4-4h40c2.211 0 4 1.791 4 4s-1.789 4-4 4z"/><circle cx="258" cy="132" r="4"/><circle cx="242" cy="80" r="4"/><path d="m102.471 268.002c-1.758 0-3.367-1.166-3.855-2.943-5.718-20.817-8.616-46.104-8.616-75.161 0-28.961 2.879-54.18 8.557-74.953.582-2.131 2.779-3.383 4.914-2.805 2.131.584 3.387 2.783 2.805 4.914-5.493 20.086-8.276 44.596-8.276 72.844 0 28.342 2.803 52.916 8.33 73.043.584 2.129-.668 4.33-2.799 4.916-.353.098-.711.145-1.06.145z"/><path d="m134.074 270.48c-1.791 0-3.42-1.211-3.875-3.027-4.709-18.771-4.506-39.516-4.291-61.479.045-4.637.092-9.334.092-14.078 0-4.783-.047-9.516-.094-14.188-.227-22.441-.439-43.639 4.645-62.738.568-2.131 2.748-3.4 4.895-2.836 2.135.568 3.406 2.76 2.836 4.895-4.803 18.049-4.596 38.717-4.377 60.6.049 4.699.096 9.457.096 14.268 0 4.771-.047 9.494-.092 14.156-.211 21.434-.408 41.68 4.049 59.455.539 2.143-.764 4.314-2.906 4.852-.327.081-.656.12-.978.12z"/><path d="m198.004 268.002c-.352 0-.707-.047-1.062-.145-2.133-.586-3.383-2.787-2.797-4.916 5.527-20.127 8.328-44.701 8.328-73.043 0-28.25-2.785-52.76-8.277-72.844-.582-2.131.672-4.33 2.805-4.912 2.117-.588 4.328.67 4.914 2.803 5.68 20.771 8.559 45.99 8.559 74.953 0 29.057-2.898 54.344-8.617 75.16-.486 1.778-2.099 2.944-3.853 2.944z"/><path d="m166.398 270.48c-.324 0-.648-.039-.977-.119-2.145-.539-3.445-2.711-2.906-4.854 4.457-17.777 4.258-38.025 4.047-59.463-.043-4.66-.09-9.381-.09-14.148 0-4.809.047-9.566.094-14.266.223-21.883.43-42.553-4.379-60.602-.566-2.135.703-4.326 2.84-4.895 2.113-.566 4.328.699 4.895 2.836 5.082 19.1 4.871 40.299 4.645 62.74-.047 4.672-.094 9.404-.094 14.186 0 4.742.047 9.436.09 14.07.215 21.965.418 42.713-4.289 61.486-.454 1.818-2.086 3.029-3.876 3.029z"/><path d="m62 84c-1.023 0-2.047-.391-2.828-1.172l-12-12c-1.562-1.562-1.562-4.094 0-5.656s4.094-1.562 5.656 0l12 12c1.562 1.562 1.562 4.094 0 5.656-.781.781-1.805 1.172-2.828 1.172z"/><path d="m50 84c-1.023 0-2.047-.391-2.828-1.172-1.562-1.562-1.562-4.094 0-5.656l12-12c1.562-1.562 4.094-1.562 5.656 0s1.562 4.094 0 5.656l-12 12c-.781.781-1.805 1.172-2.828 1.172z"/><path d="m78 248h-40c-2.209 0-4-1.791-4-4s1.791-4 4-4h40c2.209 0 4 1.791 4 4s-1.791 4-4 4z"/><circle cx="82" cy="220" r="4"/><circle cx="110" cy="224" r="4"/><circle cx="150" cy="228" r="4"/><circle cx="190" cy="224" r="4"/></g><g><path d="m205.615 92c-1.522-6.861-7.622-12-14.941-12h-24.674c4.859 0 8.706-4.332 7.89-9.344-.64-3.933-4.334-6.656-8.319-6.656h-47.144c-3.985 0-7.679 2.723-8.319 6.656-.814 5.012 3.033 9.344 7.892 9.344h-8.674c-7.319 0-13.419 5.139-14.941 12h-16.385v10.848c0 5.054 4.097 9.152 9.152 9.152h38.848v23.572c0 3.985 2.723 7.679 6.656 8.319 5.012.815 9.344-3.032 9.344-7.89v-24h40v12c0 4.418 3.582 8 8 8h8v8c0 4.418 3.582 8 8 8h8c4.418 0 8-3.582 8-8v-28-8-2.529c0-5.231-4.24-9.471-9.471-9.471h-6.914z" fill="#ffce56"/><path d="m214 152h-8c-6.617 0-12-5.383-12-12v-4h-4c-6.617 0-12-5.383-12-12v-8h-32v20c0 3.525-1.539 6.857-4.227 9.143-2.688 2.283-6.242 3.27-9.76 2.695-5.709-.93-10.014-6.203-10.014-12.266v-19.572h-34.847c-7.252 0-13.152-5.901-13.152-13.153v-10.847c0-2.209 1.791-4 4-4h13.467c2.609-6.324 8.484-10.893 15.285-11.824-.719-1.938-.934-4.057-.59-6.162.93-5.71 6.203-10.014 12.266-10.014h47.143c6.062 0 11.34 4.305 12.27 10.014.332 2.041.141 4.096-.527 5.986h13.359c7.867 0 14.93 4.889 17.859 12h3.996c7.429 0 13.472 6.043 13.472 13.47v38.53c0 6.617-5.383 12-12 12zm-72-44h40c2.211 0 4 1.791 4 4v12c0 2.205 1.793 4 4 4h8c2.211 0 4 1.791 4 4v8c0 2.205 1.793 4 4 4h8c2.207 0 4-1.795 4-4v-38.53c0-3.016-2.453-5.471-5.473-5.471h-6.914c-1.875 0-3.5-1.303-3.906-3.135-1.137-5.136-5.777-8.864-11.035-8.864h-24.672c-2.211 0-4-1.791-4-4s1.789-4 4-4c1.176 0 2.289-.514 3.051-1.412.773-.908 1.09-2.076.891-3.289-.301-1.85-2.219-3.299-4.371-3.299h-47.143c-2.148 0-4.068 1.449-4.371 3.299-.195 1.213.121 2.381.895 3.291.761.896 1.872 1.41 3.048 1.41 2.209 0 4 1.791 4 4s-1.791 4-4 4h-8.674c-5.254 0-9.896 3.729-11.037 8.867-.406 1.83-2.029 3.133-3.904 3.133h-12.385v6.848c0 2.842 2.311 5.152 5.152 5.152h38.848c2.209 0 4 1.791 4 4v23.572c0 2.148 1.449 4.068 3.299 4.371 1.213.188 2.381-.123 3.291-.895.896-.762 1.41-1.873 1.41-3.049v-24c0-2.208 1.789-3.999 4-3.999z" fill="#4c241d"/></g><circle cx="218" cy="220" fill="#4c241d" r="4"/><g><path d="m134 180c-4.418 0-8-3.582-8-8v-4c0-4.418 3.582-8 8-8 4.418 0 8 3.582 8 8v4c0 4.418-3.582 8-8 8z" fill="#ffce56"/><path d="m134 184c-6.617 0-12-5.383-12-12v-4c0-6.617 5.383-12 12-12s12 5.383 12 12v4c0 6.617-5.383 12-12 12zm0-20c-2.205 0-4 1.795-4 4v4c0 2.205 1.795 4 4 4s4-1.795 4-4v-4c0-2.205-1.795-4-4-4z" fill="#4c241d"/></g><path d="m170 84h-28c-2.211 0-4-1.791-4-4s1.789-4 4-4h28c2.211 0 4 1.791 4 4s-1.789 4-4 4z" fill="#4c241d"/><g><path d="m150 48c0 4.418 8 3.582 8 8 0 4.418-3.582 8-8 8h-16c-4.418 0-8-3.582-8-8 0-4.418 3.582-8 8-8 0 0 4-12-4-16 0 0 20 4 20 16z" fill="#ffce56"/><path d="m150 68h-16c-6.617 0-12-5.383-12-12 0-5.482 3.695-10.117 8.725-11.545.471-2.775.672-7.285-2.514-8.877-1.793-.896-2.645-2.98-1.994-4.877.652-1.895 2.604-3.014 4.568-2.623.938.188 22.77 4.723 23.207 19.469.406.248 1.129.572 1.641.803 2.226.995 6.367 2.849 6.367 7.65 0 6.617-5.383 12-12 12zm-11.066-28.528c.367 3.598-.281 7.219-1.139 9.793-.545 1.633-2.072 2.735-3.795 2.735-2.205 0-4 1.795-4 4s1.795 4 4 4h16c2.059 0 3.758-1.562 3.977-3.564-.41-.248-1.109-.561-1.609-.785-2.227-.997-6.368-2.851-6.368-7.651 0-3.637-3.281-6.493-7.066-8.528zm15.316 17.16h.039zm-.25-8.632h.039z" fill="#4c241d"/></g><path d="m202 120c-2.211 0-4-1.791-4-4v-12c0-2.209 1.789-4 4-4s4 1.791 4 4v12c0 2.209-1.789 4-4 4z" fill="#4c241d"/><path d="m182 116c-2.211 0-4-1.791-4-4v-16c0-2.209 1.789-4 4-4s4 1.791 4 4v16c0 2.209-1.789 4-4 4z" fill="#4c241d"/></g></svg>