<svg id="bee-box" enable-background="new 0 0 300 300" height="512" viewBox="0 0 300 300" width="512" xmlns="http://www.w3.org/2000/svg"><g><circle cx="174" cy="126" fill="#eaeaea" r="92"/><g fill="#4c241d"><path d="m66 49.512c-2.211 0-4-1.791-4-4v-5.66c0-2.209 1.789-4 4-4s4 1.791 4 4v5.66c0 2.209-1.789 4-4 4z"/><path d="m66 72.148c-2.211 0-4-1.791-4-4v-5.66c0-2.209 1.789-4 4-4s4 1.791 4 4v5.66c0 2.209-1.789 4-4 4z"/><path d="m57.512 58h-5.66c-2.211 0-4-1.791-4-4s1.789-4 4-4h5.66c2.211 0 4 1.791 4 4s-1.789 4-4 4z"/><path d="m80.148 58h-5.66c-2.211 0-4-1.791-4-4s1.789-4 4-4h5.66c2.211 0 4 1.791 4 4s-1.789 4-4 4z"/><path d="m215.656 63.656c-1.023 0-2.047-.391-2.828-1.172l-11.312-11.312c-1.562-1.562-1.562-4.094 0-5.656s4.094-1.562 5.656 0l11.312 11.312c1.562 1.562 1.562 4.094 0 5.656-.781.782-1.804 1.172-2.828 1.172z"/><path d="m204.344 63.656c-1.023 0-2.047-.391-2.828-1.172-1.562-1.562-1.562-4.094 0-5.656l11.312-11.312c1.562-1.562 4.094-1.562 5.656 0s1.562 4.094 0 5.656l-11.312 11.312c-.781.782-1.805 1.172-2.828 1.172z"/><circle cx="118" cy="66" r="4"/><circle cx="158" cy="42" r="4"/><circle cx="178" cy="70" r="4"/></g><g><path d="m58 106h184v132h-184z" fill="#bf7e68"/><path d="m242 242h-184c-2.211 0-4-1.791-4-4v-132c0-2.209 1.789-4 4-4h184c2.211 0 4 1.791 4 4v132c0 2.209-1.789 4-4 4zm-180-8h176v-124h-176z" fill="#4c241d"/></g><g><path d="m54 90h192v16h-192z" fill="#816982"/><path d="m246 110h-192c-2.211 0-4-1.791-4-4v-16c0-2.209 1.789-4 4-4h192c2.211 0 4 1.791 4 4v16c0 2.209-1.789 4-4 4zm-188-8h184v-8h-184z" fill="#4c241d"/></g><g><path d="m186 150h-76c-6.627 0-12-5.373-12-12 0-6.627 5.373-12 12-12h76c6.627 0 12 5.373 12 12 0 6.627-5.373 12-12 12z" fill="#6b4f5b"/><path d="m186 154h-76c-8.824 0-16-7.178-16-16s7.176-16 16-16h76c8.824 0 16 7.178 16 16s-7.176 16-16 16zm-76-24c-4.41 0-8 3.588-8 8s3.59 8 8 8h76c4.41 0 8-3.588 8-8s-3.59-8-8-8z" fill="#4c241d"/></g><g><path d="m163.459 166h-29.083l-14.542 26 14.542 26h29.083l14.541-26z" fill="#ffce56"/><path d="m163.457 222h-29.082c-1.449 0-2.785-.783-3.492-2.047l-14.539-26c-.676-1.215-.676-2.691 0-3.906l14.539-26c.707-1.264 2.043-2.047 3.492-2.047h29.082c1.449 0 2.785.783 3.492 2.047l14.543 26c.676 1.213.676 2.693 0 3.906l-14.543 26c-.707 1.264-2.043 2.047-3.492 2.047zm-26.734-8h24.387l12.309-22-12.309-22h-24.387l-12.305 22z" fill="#4c241d"/></g><path d="m133.996 194c-.602 0-1.211-.135-1.785-.422-1.977-.988-2.777-3.391-1.789-5.367l5.293-10.588c.988-1.973 3.391-2.773 5.367-1.789 1.977.988 2.777 3.391 1.789 5.367l-5.293 10.588c-.699 1.4-2.113 2.211-3.582 2.211z" fill="#fff"/><g><path d="m74 238h16v24h-16z" fill="#bf7e68"/><path d="m90 266h-16c-2.211 0-4-1.791-4-4v-24c0-2.209 1.789-4 4-4h16c2.211 0 4 1.791 4 4v24c0 2.209-1.789 4-4 4zm-12-8h8v-16h-8z" fill="#4c241d"/></g><g><path d="m210 238h16v24h-16z" fill="#bf7e68"/><path d="m226 266h-16c-2.211 0-4-1.791-4-4v-24c0-2.209 1.789-4 4-4h16c2.211 0 4 1.791 4 4v24c0 2.209-1.789 4-4 4zm-12-8h8v-16h-8z" fill="#4c241d"/></g><path d="m262 266h-224c-2.211 0-4-1.791-4-4s1.789-4 4-4h224c2.211 0 4 1.791 4 4s-1.789 4-4 4z" fill="#4c241d"/></g></svg>