<svg id="bee-house" enable-background="new 0 0 300 300" height="512" viewBox="0 0 300 300" width="512" xmlns="http://www.w3.org/2000/svg"><g><circle cx="174" cy="122" fill="#eaeaea" r="92"/><g fill="#4c241d"><path d="m58.027 77.979c-2.207 0-3.996-1.787-4-3.992l-.014-8c-.004-2.211 1.783-4.004 3.994-4.008h.006c2.207 0 3.996 1.787 4 3.992l.014 8c.004 2.211-1.783 4.004-3.994 4.008-.002 0-.004 0-.006 0z"/><path d="m58.068 101.979c-2.207 0-3.996-1.787-4-3.992l-.014-8c-.004-2.211 1.783-4.004 3.994-4.008h.006c2.207 0 3.996 1.787 4 3.992l.014 8c.004 2.211-1.783 4.004-3.994 4.008-.002 0-.004 0-.006 0z"/><path d="m42.041 86.006c-2.207 0-3.996-1.787-4-3.994-.004-2.209 1.783-4.002 3.992-4.006l8-.014h.008c2.207 0 3.996 1.787 4 3.994.004 2.209-1.783 4.002-3.992 4.006l-8 .014c-.004 0-.006 0-.008 0z"/><path d="m66.041 85.965c-2.207 0-3.996-1.787-4-3.994-.004-2.209 1.783-4.002 3.992-4.006l8-.014h.008c2.207 0 3.996 1.787 4 3.994.004 2.209-1.783 4.002-3.992 4.006l-8 .014c-.004 0-.006 0-.008 0z"/><circle cx="78.299" cy="44.355" r="4.276"/><circle cx="186.299" cy="60.355" r="4.276"/><path d="m224.244 84.973c-1.021 0-2.043-.389-2.824-1.166-1.564-1.561-1.568-4.092-.01-5.658l11.771-11.812c1.559-1.566 4.09-1.568 5.658-.01 1.564 1.561 1.568 4.092.01 5.658l-11.771 11.812c-.781.783-1.808 1.176-2.834 1.176z"/><path d="m236.035 84.953c-1.021 0-2.043-.389-2.824-1.166l-11.812-11.773c-1.564-1.561-1.568-4.094-.01-5.658 1.561-1.566 4.09-1.568 5.658-.01l11.812 11.773c1.564 1.561 1.568 4.094.01 5.658-.783.784-1.808 1.176-2.834 1.176z"/></g><g><path d="m146 74-104 56h208z" fill="#fc8c29"/><path d="m250 134h-208c-1.832 0-3.43-1.246-3.879-3.021-.447-1.777.369-3.631 1.982-4.5l104-56c1.184-.637 2.609-.637 3.793 0l104 56c1.613.869 2.43 2.723 1.982 4.5-.448 1.775-2.046 3.021-3.878 3.021zm-192.135-8h176.27l-88.135-47.457z" fill="#4c241d"/></g><g><path d="m230 158h-168l13.263-28h141.474z" fill="#bf7e68"/><path d="m230 162h-168c-1.371 0-2.646-.703-3.381-1.861-.732-1.158-.82-2.611-.234-3.852l13.264-28c.662-1.396 2.07-2.287 3.615-2.287h141.473c1.545 0 2.953.891 3.615 2.287l13.264 28c.586 1.24.498 2.693-.234 3.852-.736 1.158-2.011 1.861-3.382 1.861zm-161.68-8h155.36l-9.475-20h-136.41z" fill="#4c241d"/></g><g><path d="m230 186h-168l13.263-28h141.474z" fill="#fc8c29"/><path d="m230 190h-168c-1.371 0-2.646-.703-3.381-1.861-.732-1.158-.82-2.611-.234-3.852l13.264-28c.662-1.396 2.07-2.287 3.615-2.287h141.473c1.545 0 2.953.891 3.615 2.287l13.264 28c.586 1.24.498 2.693-.234 3.852-.736 1.158-2.011 1.861-3.382 1.861zm-161.68-8h155.36l-9.475-20h-136.41z" fill="#4c241d"/></g><g><path d="m230 214h-168l13.263-28h141.474z" fill="#bf7e68"/><path d="m230 218h-168c-1.371 0-2.646-.703-3.381-1.861-.732-1.158-.82-2.611-.234-3.852l13.264-28c.662-1.396 2.07-2.287 3.615-2.287h141.473c1.545 0 2.953.891 3.615 2.287l13.264 28c.586 1.24.498 2.693-.234 3.852-.736 1.158-2.011 1.861-3.382 1.861zm-161.68-8h155.36l-9.475-20h-136.41z" fill="#4c241d"/></g><g><path d="m230 242h-168l13.263-28h141.474z" fill="#fc8c29"/><path d="m230 246h-168c-1.371 0-2.646-.703-3.381-1.861-.732-1.158-.82-2.611-.234-3.852l13.264-28c.662-1.396 2.07-2.287 3.615-2.287h141.473c1.545 0 2.953.891 3.615 2.287l13.264 28c.586 1.24.498 2.693-.234 3.852-.736 1.158-2.011 1.861-3.382 1.861zm-161.68-8h155.36l-9.475-20h-136.41z" fill="#4c241d"/></g><g><path d="m82 242h12v24h-12z" fill="#bf7e68"/><path d="m94 270h-12c-2.209 0-4-1.791-4-4v-24c0-2.209 1.791-4 4-4h12c2.209 0 4 1.791 4 4v24c0 2.209-1.791 4-4 4zm-8-8h4v-16h-4z" fill="#4c241d"/></g><g><path d="m198 242h12v24h-12z" fill="#bf7e68"/><path d="m210 270h-12c-2.209 0-4-1.791-4-4v-24c0-2.209 1.791-4 4-4h12c2.209 0 4 1.791 4 4v24c0 2.209-1.791 4-4 4zm-8-8h4v-16h-4z" fill="#4c241d"/></g><g><path d="m176 214c-5.523 0-10 4.477-10 10v18h20v-18c0-5.523-4.477-10-10-10z" fill="#6b4f5b"/><path d="m186 246h-20c-2.209 0-4-1.791-4-4v-18c0-7.719 6.281-14 14-14s14 6.281 14 14v18c0 2.209-1.791 4-4 4zm-16-8h12v-14c0-3.309-2.691-6-6-6s-6 2.691-6 6z" fill="#4c241d"/></g><g><path d="m120 186c-5.523 0-10 4.477-10 10v18h20v-18c0-5.523-4.477-10-10-10z" fill="#6b4f5b"/><path d="m130 218h-20c-2.209 0-4-1.791-4-4v-18c0-7.719 6.281-14 14-14s14 6.281 14 14v18c0 2.209-1.791 4-4 4zm-16-8h12v-14c0-3.309-2.691-6-6-6s-6 2.691-6 6z" fill="#4c241d"/></g><g><path d="m152 158c-5.523 0-10 4.477-10 10v18h20v-18c0-5.523-4.477-10-10-10z" fill="#6b4f5b"/><path d="m162 190h-20c-2.209 0-4-1.791-4-4v-18c0-7.719 6.281-14 14-14s14 6.281 14 14v18c0 2.209-1.791 4-4 4zm-16-8h12v-14c0-3.309-2.691-6-6-6s-6 2.691-6 6z" fill="#4c241d"/></g><g><path d="m188 130c-5.523 0-10 4.477-10 10v18h20v-18c0-5.523-4.477-10-10-10z" fill="#6b4f5b"/><path d="m198 162h-20c-2.209 0-4-1.791-4-4v-18c0-7.719 6.281-14 14-14s14 6.281 14 14v18c0 2.209-1.791 4-4 4zm-16-8h12v-14c0-3.309-2.691-6-6-6s-6 2.691-6 6z" fill="#4c241d"/></g><path d="m254 270h-216c-2.209 0-4-1.791-4-4s1.791-4 4-4h216c2.209 0 4 1.791 4 4s-1.791 4-4 4z" fill="#4c241d"/></g></svg>