<svg id="bee-wax" enable-background="new 0 0 300 300" height="512" viewBox="0 0 300 300" width="512" xmlns="http://www.w3.org/2000/svg"><g><circle cx="174" cy="134.938" fill="#eaeaea" r="92"/><g fill="#4c241d"><path d="m252 66.938c-7.719 0-14-6.281-14-14s6.281-14 14-14 14 6.281 14 14-6.281 14-14 14zm0-20c-3.309 0-6 2.691-6 6s2.691 6 6 6 6-2.691 6-6-2.691-6-6-6z"/><path d="m251.656 108.594c-1.023 0-2.047-.391-2.828-1.172l-11.312-11.312c-1.562-1.562-1.562-4.094 0-5.656s4.094-1.562 5.656 0l11.312 11.312c1.562 1.562 1.562 4.094 0 5.656-.781.781-1.804 1.172-2.828 1.172z"/><path d="m240.344 108.594c-1.023 0-2.047-.391-2.828-1.172-1.562-1.562-1.562-4.094 0-5.656l11.312-11.312c1.562-1.562 4.094-1.562 5.656 0s1.562 4.094 0 5.656l-11.312 11.312c-.781.781-1.805 1.172-2.828 1.172z"/><circle cx="222" cy="42.938" r="4"/><circle cx="190" cy="42.938" r="4"/></g><g><path d="m38 113.063v19.624l24 16.376 24-16.376v-19.624l-24-16z" fill="#ffce56"/><path d="m62 153.062c-.789 0-1.574-.232-2.254-.695l-24-16.375c-1.094-.746-1.746-1.982-1.746-3.304v-19.625c0-1.338.668-2.586 1.781-3.328l24-16c1.344-.895 3.094-.895 4.438 0l24 16c1.113.742 1.781 1.99 1.781 3.328v19.625c0 1.322-.652 2.559-1.746 3.305l-24 16.375c-.68.462-1.465.694-2.254.694zm-20-22.488 20 13.646 20-13.646v-15.371l-20-13.334-20 13.334z" fill="#4c241d"/></g><g><path d="m62 77.063v19.624l24 16.376 24-16.376v-19.624l-24-16z" fill="#fc8c29"/><path d="m86 117.062c-.789 0-1.574-.232-2.254-.695l-24-16.375c-1.094-.746-1.746-1.982-1.746-3.304v-19.626c0-1.338.668-2.586 1.781-3.328l24-16c1.344-.895 3.094-.895 4.438 0l24 16c1.113.742 1.781 1.99 1.781 3.328v19.625c0 1.322-.652 2.559-1.746 3.305l-24 16.375c-.68.463-1.465.695-2.254.695zm-20-22.488 20 13.646 20-13.646v-15.371l-20-13.334-20 13.334z" fill="#4c241d"/></g><g><path d="m86 113.063v19.624l24 16.376 24-16.376v-19.624l-24-16z" fill="#fc8c29"/><path d="m110 153.062c-.789 0-1.574-.232-2.254-.695l-24-16.375c-1.094-.746-1.746-1.982-1.746-3.304v-19.625c0-1.338.668-2.586 1.781-3.328l24-16c1.344-.895 3.094-.895 4.438 0l24 16c1.113.742 1.781 1.99 1.781 3.328v19.625c0 1.322-.652 2.559-1.746 3.305l-24 16.375c-.68.462-1.465.694-2.254.694zm-20-22.488 20 13.646 20-13.646v-15.371l-20-13.334-20 13.334z" fill="#4c241d"/></g><g><path d="m110 77.063v19.624l24 16.376 24-16.376v-19.624l-24-16z" fill="#ffce56"/><path d="m134 117.062c-.789 0-1.574-.232-2.254-.695l-24-16.375c-1.094-.746-1.746-1.982-1.746-3.304v-19.626c0-1.338.668-2.586 1.781-3.328l24-16c1.344-.895 3.094-.895 4.438 0l24 16c1.113.742 1.781 1.99 1.781 3.328v19.625c0 1.322-.652 2.559-1.746 3.305l-24 16.375c-.68.463-1.465.695-2.254.695zm-20-22.488 20 13.646 20-13.646v-15.371l-20-13.334-20 13.334z" fill="#4c241d"/></g><g><path d="m134 113.063v19.624l24 16.376 24-16.376v-19.624l-24-16z" fill="#fc8c29"/><path d="m158 153.062c-.789 0-1.574-.232-2.254-.695l-24-16.375c-1.094-.746-1.746-1.982-1.746-3.305v-19.625c0-1.338.668-2.586 1.781-3.328l24-16c1.344-.895 3.094-.895 4.438 0l24 16c1.113.742 1.781 1.99 1.781 3.328v19.625c0 1.322-.652 2.559-1.746 3.305l-24 16.375c-.68.463-1.465.695-2.254.695zm-20-22.488 20 13.646 20-13.646v-15.371l-20-13.334-20 13.334z" fill="#4c241d"/></g><g><path d="m158 77.063v19.624l24 16.376 24-16.376v-19.624l-24-16z" fill="#fc8c29"/><path d="m182 117.062c-.789 0-1.574-.232-2.254-.695l-24-16.375c-1.094-.746-1.746-1.982-1.746-3.304v-19.626c0-1.338.668-2.586 1.781-3.328l24-16c1.344-.895 3.094-.895 4.438 0l24 16c1.113.742 1.781 1.99 1.781 3.328v19.625c0 1.322-.652 2.559-1.746 3.305l-24 16.375c-.68.463-1.465.695-2.254.695zm-20-22.488 20 13.646 20-13.646v-15.371l-20-13.334-20 13.334z" fill="#4c241d"/></g><g><path d="m38 185.063v19.624l24 16.376 24-16.376v-19.624l-24-16z" fill="#ffce56"/><path d="m62 225.062c-.789 0-1.574-.232-2.254-.695l-24-16.375c-1.094-.746-1.746-1.982-1.746-3.304v-19.625c0-1.338.668-2.586 1.781-3.328l24-16c1.344-.895 3.094-.895 4.438 0l24 16c1.113.742 1.781 1.99 1.781 3.328v19.625c0 1.322-.652 2.559-1.746 3.305l-24 16.375c-.68.462-1.465.694-2.254.694zm-20-22.488 20 13.646 20-13.646v-15.371l-20-13.334-20 13.334z" fill="#4c241d"/></g><g><path d="m86 185.063v19.624l24 16.376 24-16.376v-19.624l-24-16z" fill="#fc8c29"/><path d="m110 225.062c-.789 0-1.574-.232-2.254-.695l-24-16.375c-1.094-.746-1.746-1.982-1.746-3.304v-19.625c0-1.338.668-2.586 1.781-3.328l24-16c1.344-.895 3.094-.895 4.438 0l24 16c1.113.742 1.781 1.99 1.781 3.328v19.625c0 1.322-.652 2.559-1.746 3.305l-24 16.375c-.68.462-1.465.694-2.254.694zm-20-22.488 20 13.646 20-13.646v-15.371l-20-13.334-20 13.334z" fill="#4c241d"/></g><g><path d="m110 149.063v19.624l24 16.376 24-16.376v-19.624l-24-16z" fill="#ffce56"/><path d="m134 189.062c-.789 0-1.574-.232-2.254-.695l-24-16.375c-1.094-.746-1.746-1.982-1.746-3.305v-19.625c0-1.338.668-2.586 1.781-3.328l24-16c1.344-.895 3.094-.895 4.438 0l24 16c1.113.742 1.781 1.99 1.781 3.328v19.625c0 1.322-.652 2.559-1.746 3.305l-24 16.375c-.68.463-1.465.695-2.254.695zm-20-22.488 20 13.646 20-13.646v-15.371l-20-13.334-20 13.334z" fill="#4c241d"/></g><g><path d="m134 185.063v19.624l24 16.376 24-16.376v-19.624l-24-16z" fill="#ffce56"/><path d="m158 225.062c-.789 0-1.574-.232-2.254-.695l-24-16.375c-1.094-.746-1.746-1.982-1.746-3.305v-19.625c0-1.338.668-2.586 1.781-3.328l24-16c1.344-.895 3.094-.895 4.438 0l24 16c1.113.742 1.781 1.99 1.781 3.328v19.625c0 1.322-.652 2.559-1.746 3.305l-24 16.375c-.68.463-1.465.695-2.254.695zm-20-22.488 20 13.646 20-13.646v-15.371l-20-13.334-20 13.334z" fill="#4c241d"/></g><g><path d="m110 221.063v19.624l24 16.376 24-16.376v-19.624l-24-16z" fill="#ffce56"/><path d="m134 261.062c-.789 0-1.574-.232-2.254-.695l-24-16.375c-1.094-.746-1.746-1.982-1.746-3.305v-19.625c0-1.338.668-2.586 1.781-3.328l24-16c1.344-.895 3.094-.895 4.438 0l24 16c1.113.742 1.781 1.99 1.781 3.328v19.625c0 1.322-.652 2.559-1.746 3.305l-24 16.375c-.68.463-1.465.695-2.254.695zm-20-22.488 20 13.646 20-13.646v-15.371l-20-13.334-20 13.334z" fill="#4c241d"/></g><g><path d="m158 221.063v19.624l24 16.376 24-16.376v-19.624l-24-16z" fill="#fc8c29"/><path d="m182 261.062c-.789 0-1.574-.232-2.254-.695l-24-16.375c-1.094-.746-1.746-1.982-1.746-3.305v-19.625c0-1.338.668-2.586 1.781-3.328l24-16c1.344-.895 3.094-.895 4.438 0l24 16c1.113.742 1.781 1.99 1.781 3.328v19.625c0 1.322-.652 2.559-1.746 3.305l-24 16.375c-.68.463-1.465.695-2.254.695zm-20-22.488 20 13.646 20-13.646v-15.371l-20-13.334-20 13.334z" fill="#4c241d"/></g><g><path d="m158 149.063v19.624l24 16.376 24-16.376v-19.624l-24-16z" fill="#ffce56"/><path d="m182 189.062c-.789 0-1.574-.232-2.254-.695l-24-16.375c-1.094-.746-1.746-1.982-1.746-3.305v-19.625c0-1.338.668-2.586 1.781-3.328l24-16c1.344-.895 3.094-.895 4.438 0l24 16c1.113.742 1.781 1.99 1.781 3.328v19.625c0 1.322-.652 2.559-1.746 3.305l-24 16.375c-.68.463-1.465.695-2.254.695zm-20-22.488 20 13.646 20-13.646v-15.371l-20-13.334-20 13.334z" fill="#4c241d"/></g><g><path d="m182 185.063v19.624l24 16.376 24-16.376v-19.624l-24-16z" fill="#fc8c29"/><path d="m206 225.062c-.789 0-1.574-.232-2.254-.695l-24-16.375c-1.094-.746-1.746-1.982-1.746-3.305v-19.625c0-1.338.668-2.586 1.781-3.328l24-16c1.344-.895 3.094-.895 4.438 0l24 16c1.113.742 1.781 1.99 1.781 3.328v19.625c0 1.322-.652 2.559-1.746 3.305l-24 16.375c-.68.463-1.465.695-2.254.695zm-20-22.488 20 13.646 20-13.646v-15.371l-20-13.334-20 13.334z" fill="#4c241d"/></g><g><path d="m206 149.063v19.624l24 16.376 24-16.376v-19.624l-24-16z" fill="#fc8c29"/><path d="m230 189.062c-.789 0-1.574-.232-2.254-.695l-24-16.375c-1.094-.746-1.746-1.982-1.746-3.305v-19.625c0-1.338.668-2.586 1.781-3.328l24-16c1.344-.895 3.094-.895 4.438 0l24 16c1.113.742 1.781 1.99 1.781 3.328v19.625c0 1.322-.652 2.559-1.746 3.305l-24 16.375c-.68.463-1.465.695-2.254.695zm-20-22.488 20 13.646 20-13.646v-15.371l-20-13.334-20 13.334z" fill="#4c241d"/></g><circle cx="78" cy="82.938" fill="#fff" r="4"/><circle cx="102" cy="190.938" fill="#fff" r="4"/><circle cx="174" cy="154.938" fill="#fff" r="4"/><circle cx="198" cy="190.938" fill="#fff" r="4"/><circle cx="182" cy="78.938" fill="#fff" r="4"/></g></svg>