<svg id="beee-farm" enable-background="new 0 0 300 300" height="512" viewBox="0 0 300 300" width="512" xmlns="http://www.w3.org/2000/svg"><g><g fill="#4c241d"><circle cx="214.299" cy="41.316" r="4.276"/><circle cx="254.299" cy="45.316" r="4.276"/><circle cx="226.299" cy="57.316" r="4.276"/></g><circle cx="140" cy="124.961" fill="#eaeaea" r="86"/><g><circle cx="157.268" cy="71.692" fill="#ffce56" r="24.732"/><path d="m157.268 100.423c-15.842 0-28.73-12.889-28.73-28.73 0-15.844 12.889-28.732 28.73-28.732 15.844 0 28.732 12.889 28.732 28.732 0 15.842-12.889 28.73-28.732 28.73zm0-49.462c-11.432 0-20.73 9.301-20.73 20.732s9.299 20.73 20.73 20.73 20.732-9.298 20.732-20.73-9.301-20.732-20.732-20.732z" fill="#4c241d"/></g><g><path d="m120.4 86.618 15.086 15.085 12.647-12.647-27.733-42.667-27.492 42.908 12.406 12.406z" fill="#fff"/><path d="m135.486 105.703c-1.023 0-2.047-.391-2.828-1.172l-12.258-12.258-12.258 12.258c-1.562 1.562-4.094 1.562-5.656 0l-12.406-12.406c-1.33-1.328-1.555-3.404-.539-4.986l27.492-42.908c.732-1.145 1.996-1.838 3.354-1.842h.014c1.354 0 2.615.686 3.354 1.82l27.732 42.668c1.029 1.584.811 3.672-.525 5.008l-12.646 12.646c-.783.781-1.806 1.172-2.83 1.172zm-37.472-16.959 7.301 7.303 12.258-12.258c1.562-1.562 4.094-1.562 5.656 0l12.258 12.258 7.527-7.527-22.59-34.754z" fill="#4c241d"/></g><g><path d="m185.771 146.961-37.638-57.905-12.647 12.647-15.086-15.085-15.086 15.085-12.406-12.406-36.946 57.664z" fill="#6b4f5b"/><path d="m185.771 150.961h-129.81c-1.463 0-2.809-.797-3.51-2.08s-.646-2.848.143-4.078l36.947-57.664c.652-1.02 1.732-1.688 2.938-1.818 1.195-.127 2.4.291 3.258 1.148l9.578 9.578 12.258-12.258c1.562-1.562 4.094-1.562 5.656 0l12.258 12.258 9.818-9.818c.854-.852 2.039-1.264 3.246-1.15 1.199.127 2.277.787 2.936 1.799l37.639 57.904c.799 1.23.861 2.799.162 4.088s-2.05 2.091-3.517 2.091zm-122.496-8h115.125l-30.93-47.584-9.156 9.154c-1.562 1.562-4.094 1.562-5.656 0l-12.258-12.258-12.258 12.258c-1.562 1.562-4.094 1.562-5.656 0l-8.893-8.891z" fill="#4c241d"/></g><g><path d="m38 258.961v-91.263c0-11.453 9.284-20.737 20.737-20.737h182.526c11.453 0 20.737 9.284 20.737 20.737v91.263" fill="#a9ba5a"/><path d="m262 262.961c-2.209 0-4-1.791-4-4v-91.264c0-9.229-7.508-16.736-16.736-16.736h-182.528c-9.229 0-16.736 7.508-16.736 16.736v91.264c0 2.209-1.791 4-4 4s-4-1.791-4-4v-91.264c0-13.639 11.098-24.736 24.736-24.736h182.527c13.639 0 24.736 11.098 24.736 24.736v91.264c.001 2.208-1.79 4-3.999 4z" fill="#4c241d"/></g><path d="m230 150.961c-2.209 0-4-1.791-4-4v-16c0-2.209 1.791-4 4-4s4 1.791 4 4v16c0 2.209-1.791 4-4 4z" fill="#4c241d"/><path d="m230 234.961h-128c-2.209 0-4-1.791-4-4s1.791-4 4-4h128c2.209 0 4 1.791 4 4s-1.791 4-4 4z" fill="#4c241d"/><g><path d="m230 86.961-20 48h40z" fill="#a9ba5a"/><path d="m250 138.961h-40c-1.338 0-2.586-.668-3.328-1.781s-.879-2.523-.363-3.758l20-48c.621-1.49 2.076-2.461 3.691-2.461s3.07.971 3.691 2.461l20 48c.516 1.234.379 2.645-.363 3.758s-1.99 1.781-3.328 1.781zm-34-8h28l-14-33.6z" fill="#4c241d"/></g><g><path d="m178 194.961h44v36h-44z" fill="#bf7e68"/><path d="m222 234.961h-44c-2.209 0-4-1.791-4-4v-36c0-2.209 1.791-4 4-4h44c2.209 0 4 1.791 4 4v36c0 2.209-1.791 4-4 4zm-40-8h36v-28h-36z" fill="#4c241d"/></g><g><path d="m146 110.961h44v36h-44z" fill="#00ccca"/><path d="m190 150.961h-44c-2.209 0-4-1.791-4-4v-36c0-2.209 1.791-4 4-4h44c2.209 0 4 1.791 4 4v36c0 2.209-1.791 4-4 4zm-40-8h36v-28h-36z" fill="#4c241d"/></g><path d="m206 210.961h-12c-2.209 0-4-1.791-4-4s1.791-4 4-4h12c2.209 0 4 1.791 4 4s-1.791 4-4 4z" fill="#4c241d"/><g><path d="m86 166.961h44v36h-44z" fill="#fc8c29"/><path d="m130 206.961h-44c-2.209 0-4-1.791-4-4v-36c0-2.209 1.791-4 4-4h44c2.209 0 4 1.791 4 4v36c0 2.209-1.791 4-4 4zm-40-8h36v-28h-36z" fill="#4c241d"/></g><g><path d="m102 178.961h12" fill="#fc8c29"/><path d="m114 182.961h-12c-2.209 0-4-1.791-4-4s1.791-4 4-4h12c2.209 0 4 1.791 4 4s-1.791 4-4 4z" fill="#4c241d"/></g><g><path d="m118 194.961h44v36h-44z" fill="#ffce56"/><path d="m162 234.961h-44c-2.209 0-4-1.791-4-4v-36c0-2.209 1.791-4 4-4h44c2.209 0 4 1.791 4 4v36c0 2.209-1.791 4-4 4zm-40-8h36v-28h-36z" fill="#4c241d"/></g><path d="m146 210.961h-12c-2.209 0-4-1.791-4-4s1.791-4 4-4h12c2.209 0 4 1.791 4 4s-1.791 4-4 4z" fill="#4c241d"/><path d="m174 126.961h-12c-2.209 0-4-1.791-4-4s1.791-4 4-4h12c2.209 0 4 1.791 4 4s-1.791 4-4 4z" fill="#4c241d"/><path d="m94 206.961h-32c-2.209 0-4-1.791-4-4s1.791-4 4-4h32c2.209 0 4 1.791 4 4s-1.791 4-4 4z" fill="#4c241d"/></g></svg>