<svg id="beehibe" enable-background="new 0 0 300 300" height="512" viewBox="0 0 300 300" width="512" xmlns="http://www.w3.org/2000/svg"><g><circle cx="169.331" cy="160.094" fill="#eaeaea" r="92"/><path d="m251.331 136.094c-7.719 0-14-6.281-14-14s6.281-14 14-14 14 6.281 14 14-6.281 14-14 14zm0-20c-3.309 0-6 2.691-6 6s2.691 6 6 6 6-2.691 6-6-2.691-6-6-6z" fill="#4c241d"/><circle cx="253.66" cy="226.485" fill="#4c241d" r="4.276"/><circle cx="241.66" cy="174.485" fill="#4c241d" r="4.276"/><g><path d="m73.58 103.951-20.785-12c-15.305-8.837-20.549-28.408-11.713-43.713l20.785 12c15.305 8.836 20.549 28.407 11.713 43.713z" fill="#a9ba5a"/><path d="m73.575 107.95c-.678 0-1.365-.172-1.996-.535l-20.783-12c-8.328-4.809-14.285-12.57-16.773-21.859-2.49-9.287-1.213-18.99 3.596-27.316 1.104-1.914 3.545-2.572 5.465-1.465l20.783 12c8.328 4.809 14.285 12.57 16.773 21.859 2.49 9.287 1.213 18.99-3.596 27.316-.742 1.283-2.086 2-3.469 2zm-30.785-54.106c-2.246 5.586-2.627 11.721-1.041 17.641 1.936 7.225 6.568 13.262 13.047 17l17.076 9.859c2.246-5.586 2.627-11.721 1.041-17.641-1.936-7.225-6.568-13.262-13.047-17z" fill="#4c241d"/></g><g><path d="m216.327 79.501-16.943-3.99c-12.476-2.938-20.209-15.434-17.27-27.911l16.943 3.99c12.476 2.939 20.208 15.435 17.27 27.911z" fill="#a9ba5a"/><path d="m216.327 83.502c-.307 0-.613-.035-.916-.107l-16.943-3.99c-14.605-3.439-23.688-18.119-20.246-32.723.506-2.15 2.668-3.496 4.809-2.975l16.943 3.99c14.604 3.439 23.686 18.119 20.246 32.721-.242 1.033-.885 1.928-1.787 2.486-.639.393-1.367.598-2.106.598zm-30.828-30.996c-.195 8.871 5.826 16.998 14.803 19.113l12.641 2.977c.193-8.871-5.828-16.998-14.803-19.113z" fill="#4c241d"/></g><g><path d="m122.643 84.05 4.62-16.782c3.402-12.358 16.178-19.618 28.536-16.217l-4.62 16.782c-3.402 12.359-16.178 19.619-28.536 16.217z" fill="#a9ba5a"/><path d="m128.792 88.885c-2.383 0-4.803-.314-7.209-.977-1.023-.281-1.893-.959-2.416-1.881-.525-.922-.662-2.016-.381-3.037l4.619-16.783c3.982-14.465 18.998-22.988 33.453-19.014 1.023.281 1.893.959 2.416 1.881.525.922.662 2.016.381 3.037l-4.619 16.783c-3.32 12.059-14.302 19.991-26.244 19.991zm-1.119-8.033c8.848.525 17.203-5.189 19.648-14.08l3.447-12.521c-8.811-.479-17.201 5.189-19.648 14.08z" fill="#4c241d"/></g><g><path d="m34.437 125.043 70.973-39.922c1.91-1.076 4.172-1.318 6.275-.674l49.299 15.17 84.805-33.922 5.941 14.855-87.428 34.971c-1.699.676-3.578.754-5.324.219l-48.717-14.99-67.98 38.238" fill="#bf7e68"/><path d="m42.284 142.989c-1.398 0-2.756-.734-3.49-2.039-1.084-1.926-.4-4.363 1.525-5.447l67.98-38.238c.953-.539 2.09-.662 3.137-.336l48.717 14.99c.871.262 1.818.225 2.67-.113l83.707-33.482-2.971-7.428-81.09 32.438c-.85.338-1.791.377-2.662.107l-49.299-15.17c-1.066-.324-2.174-.203-3.137.336l-70.973 39.923c-1.926 1.084-4.365.4-5.447-1.525-1.084-1.926-.4-4.363 1.525-5.447l70.973-39.922c2.846-1.604 6.277-1.971 9.408-1.012l47.953 14.756 83.492-33.398c.988-.391 2.086-.383 3.062.039.975.418 1.744 1.205 2.139 2.189l5.941 14.855c.82 2.053-.178 4.379-2.229 5.201l-87.428 34.971c-2.549 1.012-5.379 1.123-7.982.328l-47.08-14.486-66.484 37.396c-.619.35-1.293.514-1.957.514z" fill="#4c241d"/></g><g><path d="m261.623 100.499-14.457-9.695c-10.646-7.139-13.488-21.556-6.349-32.202l14.457 9.695c10.646 7.14 13.488 21.557 6.349 32.202z" fill="#a9ba5a"/><path d="m261.62 104.498c-.766 0-1.539-.219-2.225-.678l-14.457-9.693c-12.459-8.355-15.799-25.291-7.443-37.754.592-.881 1.508-1.49 2.549-1.695 1.035-.211 2.119.01 3.002.602l14.457 9.695c6.035 4.049 10.133 10.203 11.539 17.334s-.049 14.383-4.096 20.418c-.771 1.15-2.037 1.771-3.326 1.771zm-19.363-40.115c-1.377 3.418-1.738 7.162-1.01 10.861.992 5.035 3.887 9.381 8.148 12.238l10.789 7.234c1.377-3.416 1.738-7.16 1.01-10.859-.994-5.035-3.887-9.381-8.148-12.238z" fill="#4c241d"/></g><g><path d="m254.361 42.108-7.404 15.753c-5.452 11.6-19.276 16.584-30.876 11.132l7.404-15.753c5.452-11.6 19.275-16.584 30.876-11.132z" fill="#a9ba5a"/><path d="m225.911 75.198c-3.873 0-7.801-.83-11.531-2.582-2-.941-2.859-3.322-1.92-5.322l7.402-15.754c6.383-13.576 22.623-19.432 36.199-13.053.961.451 1.701 1.266 2.062 2.264.359.998.309 2.1-.145 3.059l-7.404 15.754c-4.626 9.847-14.44 15.634-24.663 15.634zm-4.33-8.502c8.623 2.029 17.834-2.188 21.754-10.535l5.525-11.754c-8.625-2.029-17.834 2.191-21.758 10.535z" fill="#4c241d"/></g><g><path d="m237.623 96.499-14.457-9.695c-10.646-7.139-13.488-21.556-6.349-32.202l14.457 9.695c10.646 7.14 13.488 21.557 6.349 32.202z" fill="#a9ba5a"/><path d="m237.62 100.498c-.766 0-1.539-.219-2.225-.678l-14.457-9.693c-12.459-8.355-15.799-25.291-7.443-37.754.592-.881 1.508-1.49 2.549-1.695 1.033-.209 2.119.008 3.002.602l14.457 9.695c6.035 4.049 10.133 10.203 11.539 17.334s-.049 14.383-4.096 20.418c-.771 1.15-2.037 1.771-3.326 1.771zm-19.363-40.115c-1.377 3.418-1.738 7.162-1.01 10.861.992 5.035 3.887 9.381 8.148 12.238l10.789 7.234c1.377-3.416 1.738-7.16 1.01-10.859-.994-5.035-3.887-9.381-8.148-12.238z" fill="#4c241d"/></g><g><path d="m209.331 140.094h-96c0-13.255 10.745-24 24-24h48c13.255 0 24 10.745 24 24z" fill="#ffce56"/><path d="m209.331 144.094h-96c-2.209 0-4-1.791-4-4 0-15.439 12.561-28 28-28h48c15.439 0 28 12.561 28 28 0 2.209-1.791 4-4 4zm-91.597-8h87.195c-1.857-9.117-9.939-16-19.598-16h-48c-9.658 0-17.74 6.883-19.597 16z" fill="#4c241d"/></g><g><path d="m209.331 236.094h-96c0 13.255 10.745 24 24 24h48c13.255 0 24-10.745 24-24z" fill="#ffce56"/><path d="m185.331 264.094h-48c-15.439 0-28-12.561-28-28 0-2.209 1.791-4 4-4h96c2.209 0 4 1.791 4 4 0 15.44-12.56 28-28 28zm-67.597-24c1.857 9.117 9.939 16 19.598 16h48c9.658 0 17.74-6.883 19.598-16z" fill="#4c241d"/></g><g><path d="m205.331 164.094h-88c-6.627 0-12-5.373-12-12 0-6.627 5.373-12 12-12h88c6.627 0 12 5.373 12 12 0 6.628-5.372 12-12 12z" fill="#fc8c29"/><path d="m205.331 168.094h-88c-8.822 0-16-7.178-16-16s7.178-16 16-16h88c8.822 0 16 7.178 16 16s-7.178 16-16 16zm-88-24c-4.412 0-8 3.588-8 8s3.588 8 8 8h88c4.412 0 8-3.588 8-8s-3.588-8-8-8z" fill="#4c241d"/></g><g><path d="m205.331 236.094h-88c-6.627 0-12-5.373-12-12 0-6.627 5.373-12 12-12h88c6.627 0 12 5.373 12 12 0 6.628-5.372 12-12 12z" fill="#fc8c29"/><path d="m205.331 240.094h-88c-8.822 0-16-7.178-16-16s7.178-16 16-16h88c8.822 0 16 7.178 16 16s-7.178 16-16 16zm-88-24c-4.412 0-8 3.588-8 8s3.588 8 8 8h88c4.412 0 8-3.588 8-8s-3.588-8-8-8z" fill="#4c241d"/></g><g><path d="m205.331 188.094c6.627 0 12-5.373 12-12s-5.373-12-12-12h-88c-6.627 0-12 5.373-12 12s5.373 12 12 12c-6.627 0-12 5.373-12 12s5.373 12 12 12h88c6.627 0 12-5.373 12-12s-5.372-12-12-12z" fill="#ffce56"/><path d="m205.331 216.094h-88c-8.822 0-16-7.178-16-16 0-4.773 2.102-9.066 5.428-12-3.326-2.934-5.428-7.227-5.428-12 0-8.822 7.178-16 16-16h88c8.822 0 16 7.178 16 16 0 4.773-2.102 9.066-5.428 12 3.326 2.934 5.428 7.227 5.428 12 0 8.822-7.178 16-16 16zm-88-24c-4.412 0-8 3.588-8 8s3.588 8 8 8h88c4.412 0 8-3.588 8-8s-3.588-8-8-8c-2.209 0-4-1.791-4-4s1.791-4 4-4c4.412 0 8-3.588 8-8s-3.588-8-8-8h-88c-4.412 0-8 3.588-8 8s3.588 8 8 8c2.209 0 4 1.791 4 4s-1.791 4-4 4z" fill="#4c241d"/></g><g><circle cx="161.331" cy="188.094" fill="#6b4f5b" r="24"/><path d="m161.331 216.094c-15.439 0-28-12.561-28-28s12.561-28 28-28 28 12.561 28 28-12.56 28-28 28zm0-48c-11.027 0-20 8.973-20 20s8.973 20 20 20 20-8.973 20-20-8.972-20-20-20z" fill="#4c241d"/></g><g fill="#4c241d"><path d="m77.331 159.606c-2.209 0-4-1.791-4-4v-5.66c0-2.209 1.791-4 4-4s4 1.791 4 4v5.66c0 2.209-1.791 4-4 4z"/><path d="m77.331 182.243c-2.209 0-4-1.791-4-4v-5.66c0-2.209 1.791-4 4-4s4 1.791 4 4v5.66c0 2.209-1.791 4-4 4z"/><path d="m68.843 168.094h-5.66c-2.209 0-4-1.791-4-4s1.791-4 4-4h5.66c2.209 0 4 1.791 4 4s-1.791 4-4 4z"/><path d="m91.48 168.094h-5.66c-2.209 0-4-1.791-4-4s1.791-4 4-4h5.66c2.209 0 4 1.791 4 4s-1.791 4-4 4z"/></g></g></svg>