<svg id="bees" enable-background="new 0 0 300 300" height="512" viewBox="0 0 300 300" width="512" xmlns="http://www.w3.org/2000/svg"><g><circle cx="151.83" cy="128.001" fill="#eaeaea" r="92"/><g><circle cx="171.83" cy="66.001" fill="#bf7e68" r="22"/><path d="m171.83 92.001c-14.336 0-26-11.664-26-26s11.664-26 26-26 26 11.664 26 26-11.664 26-26 26zm0-44c-9.926 0-18 8.074-18 18s8.074 18 18 18 18-8.074 18-18-8.074-18-18-18z" fill="#4c241d"/></g><g><ellipse cx="139.66" cy="107.903" fill="#fff" rx="36" ry="16.196" transform="matrix(.707 -.707 .707 .707 -35.393 130.359)"/><path d="m121.115 139.823c-3.996 0-7.32-1.219-9.738-3.637-8.141-8.141-2.121-26.439 14.004-42.564s34.426-22.141 42.562-14.004c8.141 8.143 2.121 26.441-14.004 42.564-7.191 7.191-15.273 12.717-22.762 15.559-3.663 1.391-7.054 2.082-10.062 2.082zm37.086-55.849c-1.992 0-4.465.525-7.219 1.57-6.453 2.449-13.535 7.326-19.945 13.734-6.406 6.408-11.285 13.492-13.734 19.945-1.992 5.256-2.094 9.482-.27 11.307 1.824 1.826 6.051 1.723 11.305-.27 6.453-2.447 13.535-7.326 19.945-13.734 14.02-14.02 17.605-27.65 14.004-31.252-.867-.867-2.281-1.3-4.086-1.3z" fill="#4c241d"/></g><g><ellipse cx="203.66" cy="107.903" fill="#fff" rx="16.196" ry="36" transform="matrix(.707 -.707 .707 .707 -16.648 175.614)"/><path d="m222.205 139.823c-3.008 0-6.398-.691-10.062-2.082-7.488-2.842-15.57-8.367-22.762-15.559-16.125-16.123-22.145-34.422-14.004-42.564 8.141-8.137 26.438-2.121 42.562 14.004s22.145 34.424 14.004 42.564c-2.418 2.419-5.742 3.637-9.738 3.637zm-37.086-55.849c-1.805 0-3.219.434-4.086 1.301-3.602 3.602-.016 17.232 14.004 31.252 6.41 6.408 13.492 11.287 19.945 13.734 5.258 1.996 9.484 2.092 11.305.27 1.824-1.824 1.723-6.051-.27-11.307-2.449-6.453-7.328-13.537-13.734-19.945-6.41-6.408-13.492-11.285-19.945-13.734-2.754-1.046-5.227-1.571-7.219-1.571z" fill="#4c241d"/></g><path d="m183.826 48.001c-.762 0-1.531-.217-2.215-.672-1.84-1.225-2.336-3.709-1.109-5.547l8-12c1.219-1.84 3.699-2.338 5.547-1.109 1.84 1.225 2.336 3.709 1.109 5.547l-8 12c-.769 1.156-2.039 1.781-3.332 1.781z" fill="#4c241d"/><g><ellipse cx="171.83" cy="110.001" fill="#bf7e68" rx="28" ry="38"/><path d="m171.83 152.001c-17.645 0-32-18.842-32-42s14.355-42 32-42 32 18.842 32 42-14.355 42-32 42zm0-76c-13.234 0-24 15.252-24 34s10.766 34 24 34 24-15.252 24-34-10.766-34-24-34z" fill="#4c241d"/></g><path d="m159.834 48.001c-1.293 0-2.562-.625-3.332-1.781l-8-12c-1.227-1.838-.73-4.322 1.109-5.547 1.84-1.229 4.324-.73 5.547 1.109l8 12c1.227 1.838.73 4.322-1.109 5.547-.684.455-1.453.672-2.215.672z" fill="#4c241d"/><g><path d="m143.905 112.025c.282 7.251 2.037 13.964 4.903 19.578 7.458-.596 15.14-.935 23.022-.935s15.564.338 23.022.935c2.865-5.614 4.62-12.327 4.903-19.578-8.964-.879-18.306-1.357-27.925-1.357s-18.961.478-27.925 1.357z" fill="#ffce56"/><path d="m194.854 135.603c-.105 0-.211-.004-.32-.014-15.289-1.223-30.117-1.223-45.406 0-1.664.145-3.148-.729-3.883-2.168-3.191-6.256-5.035-13.6-5.336-21.24-.086-2.115 1.496-3.93 3.605-4.137 18.633-1.828 38-1.828 56.633 0 2.109.207 3.691 2.021 3.605 4.137-.301 7.641-2.145 14.984-5.336 21.24-.687 1.346-2.066 2.182-3.562 2.182zm-23.024-8.936c6.734 0 13.641.248 20.57.738 1.527-3.607 2.566-7.59 3.059-11.754-15.609-1.309-31.648-1.309-47.258 0 .492 4.164 1.531 8.146 3.059 11.754 6.929-.49 13.836-.738 20.57-.738z" fill="#4c241d"/></g><g><path d="m147.271 91.751c7.94-.68 16.128-1.084 24.559-1.084 8.415 0 16.619.365 24.542 1.045-4.763-11.747-13.965-19.712-24.542-19.712-10.589.001-19.801 7.983-24.559 19.751z" fill="#ffce56"/><path d="m147.271 95.751c-1.262 0-2.461-.598-3.219-1.625-.824-1.117-1.012-2.586-.488-3.875 5.547-13.725 16.379-22.25 28.266-22.25 11.871 0 22.695 8.51 28.25 22.209.523 1.289.336 2.758-.488 3.877s-2.18 1.734-3.559 1.611c-15.754-1.354-31.402-1.42-48.422.039-.113.01-.226.014-.34.014zm24.559-19.75c-6.805 0-13.246 4.176-17.766 11.232 12.168-.762 23.793-.74 35.512-.029-4.515-7.037-10.953-11.203-17.746-11.203z" fill="#4c241d"/></g><path d="m79.83 140.001c-.844 0-1.688-.268-2.398-.801l-16-12c-1.77-1.324-2.129-3.832-.801-5.6 1.324-1.764 3.832-2.125 5.598-.799l13.602 10.199 13.602-10.199c1.766-1.332 4.27-.969 5.598.799s.969 4.275-.801 5.6l-16 12c-.712.534-1.556.801-2.4.801z" fill="#4c241d"/><g><path d="m93.114 166.055c2.901-3.196 4.716-7.398 4.716-12.054 0-9.941-8.059-18-18-18s-18 8.059-18 18c0 4.656 1.815 8.859 4.716 12.054-3.093 5.731-5.002 13.441-5.002 21.946 0 17.673 18.286 32 18.286 32s18.286-14.327 18.286-32c0-8.505-1.909-16.214-5.002-21.946z" fill="#ffce56"/><path d="m79.83 224.001c-.871 0-1.742-.283-2.469-.852-.809-.633-19.816-15.75-19.816-35.148 0-7.777 1.512-15.281 4.293-21.438-2.602-3.695-4.008-8.066-4.008-12.562 0-12.131 9.871-22 22-22s22 9.869 22 22c0 4.496-1.406 8.867-4.008 12.562 2.781 6.156 4.293 13.66 4.293 21.438 0 19.398-19.008 34.516-19.816 35.148-.727.569-1.598.852-2.469.852zm0-84c-7.719 0-14 6.281-14 14 0 3.426 1.305 6.752 3.676 9.367 1.141 1.256 1.363 3.094.559 4.586-2.914 5.406-4.52 12.525-4.52 20.047 0 11.787 9.625 22.281 14.285 26.672 4.66-4.391 14.285-14.885 14.285-26.672 0-7.521-1.605-14.641-4.52-20.047-.805-1.492-.582-3.33.559-4.586 2.371-2.615 3.676-5.941 3.676-9.367 0-7.719-6.281-14-14-14z" fill="#4c241d"/></g><g><ellipse cx="99.999" cy="180.242" fill="#fff" rx="11.322" ry="25.166" transform="matrix(.707 -.707 .707 .707 -98.161 123.502)"/><path d="m113.018 203.7c-6.801 0-15.746-4.518-23.852-12.625-11.758-11.758-15.965-25.281-9.789-31.457 6.172-6.182 19.703-1.969 31.457 9.789 5.145 5.145 9.105 10.947 11.148 16.338 2.441 6.434 1.957 11.803-1.359 15.119-1.918 1.918-4.547 2.836-7.605 2.836zm-26.008-39c-.922 0-1.602.201-1.977.574-1.824 1.826.504 10.859 9.789 20.145 9.285 9.281 18.32 11.609 20.145 9.789.742-.74.883-3.076-.461-6.625-1.629-4.293-5.031-9.221-9.328-13.52-7.379-7.374-14.598-10.363-18.168-10.363z" fill="#4c241d"/></g><g><ellipse cx="59.999" cy="180.242" fill="#fff" rx="25.166" ry="11.322" transform="matrix(.707 -.707 .707 .707 -109.877 95.218)"/><path d="m46.982 203.7c-3.062 0-5.688-.918-7.605-2.836-3.316-3.316-3.801-8.686-1.359-15.119 2.043-5.391 6.004-11.193 11.148-16.338 11.758-11.76 25.281-15.967 31.457-9.789 6.176 6.176 1.969 19.699-9.789 31.457-8.105 8.106-17.051 12.625-23.852 12.625zm26.008-39c-3.57 0-10.789 2.986-18.168 10.363-4.297 4.299-7.699 9.227-9.328 13.52-1.344 3.549-1.203 5.885-.461 6.625 1.828 1.818 10.859-.508 20.145-9.789 9.285-9.285 11.613-18.318 9.789-20.145-.375-.374-1.055-.574-1.977-.574z" fill="#4c241d"/></g><path d="m219.83 168.001c-.844 0-1.688-.268-2.398-.801l-16-12c-1.77-1.324-2.129-3.832-.801-5.6 1.324-1.764 3.832-2.127 5.598-.799l13.602 10.199 13.602-10.199c1.766-1.334 4.273-.967 5.598.799 1.328 1.768.969 4.275-.801 5.6l-16 12c-.712.534-1.556.801-2.4.801z" fill="#4c241d"/><g><path d="m233.114 194.055c2.901-3.196 4.716-7.398 4.716-12.054 0-9.941-8.059-18-18-18s-18 8.059-18 18c0 4.656 1.815 8.859 4.716 12.054-3.093 5.731-5.002 13.441-5.002 21.946 0 17.673 18.286 32 18.286 32s18.286-14.327 18.286-32c0-8.505-1.909-16.214-5.002-21.946z" fill="#ffce56"/><path d="m219.83 252.001c-.871 0-1.742-.283-2.469-.852-.809-.633-19.816-15.75-19.816-35.148 0-7.777 1.512-15.281 4.293-21.438-2.602-3.695-4.008-8.066-4.008-12.562 0-12.131 9.871-22 22-22s22 9.869 22 22c0 4.496-1.406 8.867-4.008 12.562 2.781 6.156 4.293 13.66 4.293 21.438 0 19.398-19.008 34.516-19.816 35.148-.727.569-1.598.852-2.469.852zm0-84c-7.719 0-14 6.281-14 14 0 3.426 1.305 6.752 3.676 9.367 1.141 1.256 1.363 3.094.559 4.586-2.914 5.406-4.52 12.525-4.52 20.047 0 11.787 9.625 22.281 14.285 26.672 4.66-4.391 14.285-14.885 14.285-26.672 0-7.521-1.605-14.641-4.52-20.047-.805-1.492-.582-3.33.559-4.586 2.371-2.615 3.676-5.941 3.676-9.367 0-7.719-6.281-14-14-14z" fill="#4c241d"/></g><g><ellipse cx="239.999" cy="208.242" fill="#fff" rx="11.322" ry="25.166" transform="matrix(.707 -.707 .707 .707 -76.955 230.698)"/><path d="m253.018 231.7c-6.801 0-15.746-4.518-23.852-12.625-11.758-11.758-15.965-25.281-9.789-31.457 6.172-6.178 19.699-1.967 31.457 9.789 5.145 5.145 9.105 10.947 11.148 16.338 2.441 6.434 1.957 11.803-1.359 15.119-1.918 1.918-4.547 2.836-7.605 2.836zm-26.008-39c-.922 0-1.602.201-1.977.574-1.824 1.826.504 10.859 9.789 20.145 9.285 9.281 18.32 11.609 20.145 9.789.742-.74.883-3.076-.461-6.625-1.629-4.293-5.031-9.221-9.328-13.52-7.379-7.374-14.598-10.363-18.168-10.363z" fill="#4c241d"/></g><g><ellipse cx="199.999" cy="208.242" fill="#fff" rx="25.166" ry="11.322" transform="matrix(.707 -.707 .707 .707 -88.671 202.414)"/><path d="m186.982 231.7c-3.062 0-5.688-.918-7.605-2.836-3.316-3.316-3.801-8.686-1.359-15.119 2.043-5.391 6.004-11.193 11.148-16.338 11.754-11.758 25.281-15.967 31.457-9.789 6.176 6.176 1.969 19.699-9.789 31.457-8.105 8.106-17.051 12.625-23.852 12.625zm26.008-39c-3.57 0-10.789 2.986-18.168 10.363-4.297 4.299-7.699 9.227-9.328 13.52-1.344 3.549-1.203 5.885-.461 6.625 1.828 1.818 10.859-.508 20.145-9.789 9.285-9.285 11.613-18.318 9.789-20.145-.375-.374-1.055-.574-1.977-.574z" fill="#4c241d"/></g><g fill="#4c241d"><path d="m47.83 244.001c-2.211 0-4-1.791-4-4v-28c0-2.209 1.789-4 4-4s4 1.791 4 4v28c0 2.209-1.789 4-4 4z"/><path d="m59.83 264.001c-2.211 0-4-1.791-4-4v-28c0-2.209 1.789-4 4-4s4 1.791 4 4v28c0 2.209-1.789 4-4 4z"/><path d="m99.83 228.001c-2.211 0-4-1.791-4-4v-4c0-2.209 1.789-4 4-4s4 1.791 4 4v4c0 2.209-1.789 4-4 4z"/><path d="m115.83 252.001c-2.211 0-4-1.791-4-4v-24c0-2.209 1.789-4 4-4s4 1.791 4 4v24c0 2.209-1.789 4-4 4z"/><path d="m139.83 184.001c-2.211 0-4-1.791-4-4v-32c0-2.209 1.789-4 4-4s4 1.791 4 4v32c0 2.209-1.789 4-4 4z"/><path d="m187.83 272.001c-2.211 0-4-1.791-4-4v-8c0-2.209 1.789-4 4-4s4 1.791 4 4v8c0 2.209-1.789 4-4 4z"/><path d="m251.83 272.001c-2.211 0-4-1.791-4-4v-28c0-2.209 1.789-4 4-4s4 1.791 4 4v28c0 2.209-1.789 4-4 4z"/><path d="m155.83 216.001c-2.211 0-4-1.791-4-4v-40c0-2.209 1.789-4 4-4s4 1.791 4 4v40c0 2.209-1.789 4-4 4z"/><path d="m179.83 176.001c-2.211 0-4-1.791-4-4v-8c0-2.209 1.789-4 4-4s4 1.791 4 4v8c0 2.209-1.789 4-4 4z"/><path d="m87.83 55.513c-2.211 0-4-1.791-4-4v-5.66c0-2.209 1.789-4 4-4s4 1.791 4 4v5.66c0 2.209-1.789 4-4 4z"/><path d="m87.83 78.15c-2.211 0-4-1.791-4-4v-5.66c0-2.209 1.789-4 4-4s4 1.791 4 4v5.66c0 2.209-1.789 4-4 4z"/><path d="m79.342 64.001h-5.66c-2.211 0-4-1.791-4-4s1.789-4 4-4h5.66c2.211 0 4 1.791 4 4s-1.789 4-4 4z"/><path d="m101.979 64.001h-5.66c-2.211 0-4-1.791-4-4s1.789-4 4-4h5.66c2.211 0 4 1.791 4 4s-1.79 4-4 4z"/></g></g></svg>