<svg id="biscuit" enable-background="new 0 0 300 300" height="512" viewBox="0 0 300 300" width="512" xmlns="http://www.w3.org/2000/svg"><g><circle cx="170" cy="118" fill="#eaeaea" r="92"/><path d="m222 46c-2.211 0-4-1.791-4-4v-8c0-2.209 1.789-4 4-4s4 1.791 4 4v8c0 2.209-1.789 4-4 4z" fill="#4c241d"/><path d="m222 70c-2.211 0-4-1.791-4-4v-8c0-2.209 1.789-4 4-4s4 1.791 4 4v8c0 2.209-1.789 4-4 4z" fill="#4c241d"/><path d="m214 54h-8c-2.211 0-4-1.791-4-4s1.789-4 4-4h8c2.211 0 4 1.791 4 4s-1.789 4-4 4z" fill="#4c241d"/><path d="m238 54h-8c-2.211 0-4-1.791-4-4s1.789-4 4-4h8c2.211 0 4 1.791 4 4s-1.789 4-4 4z" fill="#4c241d"/><path d="m76 274c-7.719 0-14-6.281-14-14s6.281-14 14-14 14 6.281 14 14-6.281 14-14 14zm0-20c-3.309 0-6 2.691-6 6s2.691 6 6 6 6-2.691 6-6-2.691-6-6-6z" fill="#4c241d"/><circle cx="147.005" cy="62.927" fill="#4c241d" r="4.276"/><circle cx="171.005" cy="42.927" fill="#4c241d" r="4.276"/><circle cx="143.005" cy="258.927" fill="#4c241d" r="4.276"/><g><path d="m258 122c0-6.627-5.373-12-12-12 6.627 0 12-5.373 12-12s-5.373-12-12-12-12 5.373-12 12c0-6.627-5.373-12-12-12s-12 5.373-12 12c0-6.627-5.373-12-12-12s-12 5.373-12 12c0-6.627-5.373-12-12-12s-12 5.373-12 12c0-6.627-5.373-12-12-12s-12 5.373-12 12c0-6.627-5.373-12-12-12s-12 5.373-12 12c0-6.627-5.373-12-12-12s-12 5.373-12 12c0-6.627-5.373-12-12-12s-12 5.373-12 12c0-6.627-5.373-12-12-12s-12 5.373-12 12 5.373 12 12 12c-6.627 0-12 5.373-12 12s5.373 12 12 12c-6.627 0-12 5.373-12 12s5.373 12 12 12c-6.627 0-12 5.373-12 12s5.373 12 12 12c-6.627 0-12 5.373-12 12s5.373 12 12 12c-6.627 0-12 5.373-12 12s5.373 12 12 12 12-5.373 12-12c0 6.627 5.373 12 12 12s12-5.373 12-12c0 6.627 5.373 12 12 12s12-5.373 12-12c0 6.627 5.373 12 12 12s12-5.373 12-12c0 6.627 5.373 12 12 12s12-5.373 12-12c0 6.627 5.373 12 12 12s12-5.373 12-12c0 6.627 5.373 12 12 12s12-5.373 12-12c0 6.627 5.373 12 12 12s12-5.373 12-12c0 6.627 5.373 12 12 12s12-5.373 12-12c0-5.217-3.35-9.612-8-11.265v-1.47c4.65-1.653 8-6.048 8-11.265 0-6.627-5.373-12-12-12 6.627 0 12-5.373 12-12s-5.373-12-12-12c6.627 0 12-5.373 12-12s-5.373-12-12-12c6.627 0 12-5.373 12-12z" fill="#ffded5"/><path d="m246 234c-4.773 0-9.066-2.102-12-5.428-2.934 3.326-7.227 5.428-12 5.428s-9.066-2.102-12-5.428c-2.934 3.326-7.227 5.428-12 5.428s-9.066-2.102-12-5.428c-2.934 3.326-7.227 5.428-12 5.428s-9.066-2.102-12-5.428c-2.934 3.326-7.227 5.428-12 5.428s-9.066-2.102-12-5.428c-2.934 3.326-7.227 5.428-12 5.428s-9.066-2.102-12-5.428c-2.934 3.326-7.227 5.428-12 5.428s-9.066-2.102-12-5.428c-2.934 3.326-7.227 5.428-12 5.428s-9.066-2.102-12-5.428c-2.934 3.326-7.227 5.428-12 5.428-8.824 0-16-7.178-16-16 0-4.773 2.102-9.066 5.43-12-3.328-2.934-5.43-7.227-5.43-12s2.102-9.066 5.43-12c-3.328-2.934-5.43-7.227-5.43-12s2.102-9.066 5.43-12c-3.328-2.934-5.43-7.227-5.43-12s2.102-9.066 5.43-12c-3.328-2.934-5.43-7.227-5.43-12s2.102-9.066 5.43-12c-3.328-2.934-5.43-7.227-5.43-12 0-8.822 7.176-16 16-16 4.773 0 9.066 2.102 12 5.428 2.934-3.326 7.227-5.428 12-5.428s9.066 2.102 12 5.428c2.934-3.326 7.227-5.428 12-5.428s9.066 2.102 12 5.428c2.934-3.326 7.227-5.428 12-5.428s9.066 2.102 12 5.428c2.934-3.326 7.227-5.428 12-5.428s9.066 2.102 12 5.428c2.934-3.326 7.227-5.428 12-5.428s9.066 2.102 12 5.428c2.934-3.326 7.227-5.428 12-5.428s9.066 2.102 12 5.428c2.934-3.326 7.227-5.428 12-5.428s9.066 2.102 12 5.428c2.934-3.326 7.227-5.428 12-5.428 8.824 0 16 7.178 16 16 0 4.773-2.102 9.066-5.43 12 3.328 2.934 5.43 7.227 5.43 12s-2.102 9.066-5.43 12c3.328 2.934 5.43 7.227 5.43 12s-2.102 9.066-5.43 12c3.328 2.934 5.43 7.227 5.43 12s-2.102 9.066-5.43 12c3.328 2.934 5.43 7.227 5.43 12 0 4.676-2.074 9.023-5.48 12 3.406 2.977 5.48 7.324 5.48 12 0 8.822-7.176 16-16 16zm-12-20c2.211 0 4 1.791 4 4 0 4.412 3.59 8 8 8s8-3.588 8-8c0-3.348-2.145-6.359-5.34-7.498-1.594-.566-2.66-2.076-2.66-3.768v-1.469c0-1.691 1.066-3.201 2.66-3.768 3.195-1.139 5.34-4.15 5.34-7.498 0-4.412-3.59-8-8-8-2.211 0-4-1.791-4-4s1.789-4 4-4c4.41 0 8-3.588 8-8s-3.59-8-8-8c-2.211 0-4-1.791-4-4s1.789-4 4-4c4.41 0 8-3.588 8-8s-3.59-8-8-8c-2.211 0-4-1.791-4-4s1.789-4 4-4c4.41 0 8-3.588 8-8s-3.59-8-8-8c-2.211 0-4-1.791-4-4s1.789-4 4-4c4.41 0 8-3.588 8-8s-3.59-8-8-8-8 3.588-8 8c0 2.209-1.789 4-4 4s-4-1.791-4-4c0-4.412-3.59-8-8-8s-8 3.588-8 8c0 2.209-1.789 4-4 4s-4-1.791-4-4c0-4.412-3.59-8-8-8s-8 3.588-8 8c0 2.209-1.789 4-4 4s-4-1.791-4-4c0-4.412-3.59-8-8-8s-8 3.588-8 8c0 2.209-1.789 4-4 4s-4-1.791-4-4c0-4.412-3.59-8-8-8s-8 3.588-8 8c0 2.209-1.789 4-4 4s-4-1.791-4-4c0-4.412-3.59-8-8-8s-8 3.588-8 8c0 2.209-1.789 4-4 4s-4-1.791-4-4c0-4.412-3.59-8-8-8s-8 3.588-8 8c0 2.209-1.789 4-4 4s-4-1.791-4-4c0-4.412-3.59-8-8-8s-8 3.588-8 8c0 2.209-1.789 4-4 4s-4-1.791-4-4c0-4.412-3.59-8-8-8s-8 3.588-8 8 3.59 8 8 8c2.211 0 4 1.791 4 4s-1.789 4-4 4c-4.41 0-8 3.588-8 8s3.59 8 8 8c2.211 0 4 1.791 4 4s-1.789 4-4 4c-4.41 0-8 3.588-8 8s3.59 8 8 8c2.211 0 4 1.791 4 4s-1.789 4-4 4c-4.41 0-8 3.588-8 8s3.59 8 8 8c2.211 0 4 1.791 4 4s-1.789 4-4 4c-4.41 0-8 3.588-8 8s3.59 8 8 8c2.211 0 4 1.791 4 4s-1.789 4-4 4c-4.41 0-8 3.588-8 8s3.59 8 8 8 8-3.588 8-8c0-2.209 1.789-4 4-4s4 1.791 4 4c0 4.412 3.59 8 8 8s8-3.588 8-8c0-2.209 1.789-4 4-4s4 1.791 4 4c0 4.412 3.59 8 8 8s8-3.588 8-8c0-2.209 1.789-4 4-4s4 1.791 4 4c0 4.412 3.59 8 8 8s8-3.588 8-8c0-2.209 1.789-4 4-4s4 1.791 4 4c0 4.412 3.59 8 8 8s8-3.588 8-8c0-2.209 1.789-4 4-4s4 1.791 4 4c0 4.412 3.59 8 8 8s8-3.588 8-8c0-2.209 1.789-4 4-4s4 1.791 4 4c0 4.412 3.59 8 8 8s8-3.588 8-8c0-2.209 1.789-4 4-4s4 1.791 4 4c0 4.412 3.59 8 8 8s8-3.588 8-8c0-2.208 1.789-3.999 4-3.999z" fill="#4c241d"/></g><g><path d="m130 148.125v19.625l20 16.375 20-16.375v-19.625l-20-16z" fill="#fc8c29"/><path d="m150 188.125c-.898 0-1.797-.301-2.535-.904l-20-16.375c-.926-.76-1.465-1.896-1.465-3.096v-19.625c0-1.215.551-2.365 1.5-3.123l20-16c1.461-1.168 3.539-1.168 5 0l20 16c.949.758 1.5 1.908 1.5 3.123v19.625c0 1.199-.539 2.336-1.465 3.096l-20 16.375c-.738.603-1.637.904-2.535.904zm-16-22.27 16 13.1 16-13.1v-15.809l-16-12.799-16 12.799z" fill="#4c241d"/></g><circle cx="146" cy="154" fill="#fff" r="4"/><g fill="#bf7e68"><circle cx="91.005" cy="122.927" r="4.276"/><circle cx="115.005" cy="122.927" r="4.276"/><circle cx="139.005" cy="122.927" r="4.276"/><circle cx="163.005" cy="122.927" r="4.276"/><circle cx="187.005" cy="122.927" r="4.276"/><circle cx="115.005" cy="194.927" r="4.276"/><circle cx="139.005" cy="194.927" r="4.276"/><circle cx="163.005" cy="194.927" r="4.276"/><circle cx="187.005" cy="194.927" r="4.276"/><circle cx="91.005" cy="146.927" r="4.276"/><circle cx="91.005" cy="170.927" r="4.276"/><circle cx="115.005" cy="146.927" r="4.276"/><circle cx="115.005" cy="170.927" r="4.276"/><circle cx="91.005" cy="194.927" r="4.276"/><circle cx="211.005" cy="122.927" r="4.276"/><circle cx="211.005" cy="146.927" r="4.276"/><circle cx="187.005" cy="146.927" r="4.276"/><circle cx="211.005" cy="170.927" r="4.276"/><circle cx="187.005" cy="170.927" r="4.276"/><circle cx="211.005" cy="194.927" r="4.276"/></g></g></svg>