<svg id="bread" enable-background="new 0 0 300 300" height="512" viewBox="0 0 300 300" width="512" xmlns="http://www.w3.org/2000/svg"><g><circle cx="168" cy="176" fill="#eaeaea" r="92"/><path d="m190 272c-7.719 0-14-6.281-14-14s6.281-14 14-14 14 6.281 14 14-6.281 14-14 14zm0-20c-3.309 0-6 2.691-6 6s2.691 6 6 6 6-2.691 6-6-2.691-6-6-6z" fill="#4c241d"/><g><path d="m135.743 64h-55.486c-20.024 0-36.257 16.175-36.257 36.128 0 10.645 4.648 20.185 12 26.797v74.267c0 3.76 3.048 6.808 6.808 6.808h90.385c3.76 0 6.808-3.048 6.808-6.808v-74.267c7.352-6.612 12-16.151 12-26.797-.001-19.953-16.234-36.128-36.258-36.128z" fill="#e7d1c4"/><path d="m153.191 212h-90.382c-5.961 0-10.809-4.85-10.809-10.809v-72.539c-7.648-7.529-12-17.824-12-28.523 0-22.127 18.059-40.129 40.258-40.129h55.484c22.199 0 40.258 18.002 40.258 40.129 0 10.699-4.352 20.994-12 28.523v72.539c0 5.959-4.848 10.809-10.809 10.809zm-72.933-144c-17.785 0-32.258 14.412-32.258 32.129 0 9.037 3.891 17.721 10.676 23.822.844.76 1.324 1.84 1.324 2.975v74.266c0 1.549 1.262 2.809 2.809 2.809h90.383c1.547 0 2.809-1.26 2.809-2.809v-74.266c0-1.135.48-2.215 1.324-2.975 6.784-6.101 10.675-14.785 10.675-23.822 0-17.717-14.473-32.129-32.258-32.129z" fill="#4c241d"/></g><g><path d="m159.743 84h-55.485c-20.025 0-36.258 16.175-36.258 36.128 0 10.645 4.648 20.185 12 26.797v74.267c0 3.76 3.048 6.808 6.808 6.808h90.385c3.76 0 6.808-3.048 6.808-6.808v-74.267c7.352-6.612 12-16.151 12-26.797-.001-19.953-16.234-36.128-36.258-36.128z" fill="#ffe8dc"/><path d="m177.191 232h-90.382c-5.961 0-10.809-4.85-10.809-10.809v-72.539c-7.648-7.529-12-17.824-12-28.523 0-22.127 18.059-40.129 40.258-40.129h55.484c22.199 0 40.258 18.002 40.258 40.129 0 10.699-4.352 20.994-12 28.523v72.539c0 5.959-4.848 10.809-10.809 10.809zm-72.933-144c-17.785 0-32.258 14.412-32.258 32.129 0 9.037 3.891 17.721 10.676 23.822.844.76 1.324 1.84 1.324 2.975v74.266c0 1.549 1.262 2.809 2.809 2.809h90.383c1.547 0 2.809-1.26 2.809-2.809v-74.266c0-1.135.48-2.215 1.324-2.975 6.784-6.101 10.675-14.785 10.675-23.822 0-17.717-14.473-32.129-32.258-32.129z" fill="#4c241d"/></g><g><path d="m244 40c-11.046 0-20 8.954-20 20v72h4v28h12v-28h4z" fill="#b5a19c"/><path d="m240 164h-12c-2.211 0-4-1.791-4-4v-24c-2.211 0-4-1.791-4-4v-72c0-13.234 10.766-24 24-24 2.211 0 4 1.791 4 4v92c0 2.209-1.789 4-4 4v24c0 2.209-1.789 4-4 4zm-8-8h4v-24c0-2.209 1.789-4 4-4v-83.494c-6.895 1.781-12 8.053-12 15.494v68c2.211 0 4 1.791 4 4z" fill="#4c241d"/></g><g><path d="m234 264c-7.732 0-14-6.268-14-14v-90h28v90c0 7.732-6.268 14-14 14z" fill="#bf7e68"/><path d="m234 268c-9.926 0-18-8.074-18-18v-90c0-2.209 1.789-4 4-4h28c2.211 0 4 1.791 4 4v90c0 9.926-8.074 18-18 18zm-10-104v86c0 5.514 4.484 10 10 10s10-4.486 10-10v-86z" fill="#4c241d"/></g><g fill="#4c241d"><circle cx="234" cy="250" r="6"/><circle cx="121.005" cy="124.927" r="4.276"/><circle cx="105.005" cy="100.927" r="4.276"/><circle cx="129.005" cy="104.927" r="4.276"/><circle cx="77.005" cy="76.927" r="4.276"/><circle cx="149.005" cy="116.927" r="4.276"/><circle cx="173.005" cy="128.927" r="4.276"/><circle cx="169.005" cy="100.927" r="4.276"/><circle cx="89.005" cy="116.927" r="4.276"/><circle cx="61.005" cy="92.927" r="4.276"/><path d="m108 48c-2.211 0-4-1.791-4-4v-12c0-2.209 1.789-4 4-4s4 1.791 4 4v12c0 2.209-1.789 4-4 4z"/><path d="m120 48c-1.023 0-2.047-.391-2.828-1.172-1.562-1.562-1.562-4.094 0-5.656l8-8c1.562-1.562 4.094-1.562 5.656 0s1.562 4.094 0 5.656l-8 8c-.781.781-1.805 1.172-2.828 1.172z"/><path d="m96 48c-1.023 0-2.047-.391-2.828-1.172l-8-8c-1.562-1.562-1.562-4.094 0-5.656s4.094-1.562 5.656 0l8 8c1.562 1.562 1.562 4.094 0 5.656-.781.781-1.805 1.172-2.828 1.172z"/></g></g></svg>