<svg id="cookie" enable-background="new 0 0 300 300" height="512" viewBox="0 0 300 300" width="512" xmlns="http://www.w3.org/2000/svg"><g><circle cx="170" cy="120" fill="#eaeaea" r="92"/><g fill="#4c241d"><path d="m222 52c-2.211 0-4-1.791-4-4v-8c0-2.209 1.789-4 4-4s4 1.791 4 4v8c0 2.209-1.789 4-4 4z"/><path d="m222 76c-2.211 0-4-1.791-4-4v-8c0-2.209 1.789-4 4-4s4 1.791 4 4v8c0 2.209-1.789 4-4 4z"/><path d="m214 60h-8c-2.211 0-4-1.791-4-4s1.789-4 4-4h8c2.211 0 4 1.791 4 4s-1.789 4-4 4z"/><path d="m238 60h-8c-2.211 0-4-1.791-4-4s1.789-4 4-4h8c2.211 0 4 1.791 4 4s-1.789 4-4 4z"/><circle cx="99.005" cy="248.927" r="4.276"/><circle cx="43.005" cy="260.927" r="4.276"/><circle cx="63.005" cy="224.927" r="4.276"/></g><g><path d="m232 164c-2.157 0-4.175.528-6 1.399v-4.353c0-9.414-7.632-17.046-17.046-17.046h-14.954v43.114c-2.126-1.916-4.913-3.114-8-3.114-6.627 0-12 5.373-12 12v28c0 6.627 5.373 12 12 12 3.087 0 5.874-1.199 8-3.114v7.114c0 8.836 7.163 16 16 16s16-7.164 16-16v-25.399c1.825.871 3.843 1.399 6 1.399 7.732 0 14-6.268 14-14v-24c0-7.732-6.268-14-14-14z" fill="#ffce56"/><path d="m210 260c-11.027 0-20-8.973-20-20v-.518c-1.297.342-2.641.518-4 .518-8.824 0-16-7.178-16-16v-28c0-8.822 7.176-16 16-16 1.359 0 2.703.176 4 .518v-36.518c0-2.209 1.789-4 4-4h14.953c11.293 0 20.539 8.941 21.027 20.119.668-.08 1.344-.119 2.02-.119 9.926 0 18 8.074 18 18v24c0 9.926-8.074 18-18 18-.668 0-1.336-.039-2-.115v20.115c0 11.027-8.973 20-20 20zm-16-31.113c.551 0 1.105.113 1.625.346 1.445.643 2.375 2.074 2.375 3.654v7.113c0 6.617 5.383 12 12 12s12-5.383 12-12v-25.398c0-1.373.703-2.65 1.867-3.383 1.16-.734 2.617-.82 3.855-.227 1.402.668 2.84 1.008 4.277 1.008 5.516 0 10-4.486 10-10v-24c0-5.514-4.484-10-10-10-1.438 0-2.875.34-4.277 1.008-1.238.592-2.695.508-3.855-.227-1.164-.732-1.867-2.01-1.867-3.383v-4.352c0-7.193-5.852-13.047-13.047-13.047h-10.953v39.113c0 1.58-.93 3.012-2.375 3.654-1.434.641-3.129.377-4.301-.682-1.496-1.344-3.383-2.084-5.324-2.084-4.41 0-8 3.588-8 8v28c0 4.412 3.59 8 8 8 1.941 0 3.828-.74 5.324-2.086.746-.674 1.707-1.027 2.676-1.027z" fill="#4c241d"/></g><g><path d="m160 268c-7.732 0-14-6.268-14-14v-46h28v46c0 7.732-6.268 14-14 14z" fill="#ffce56"/><path d="m160 272c-9.926 0-18-8.074-18-18v-46c0-2.209 1.789-4 4-4h28c2.211 0 4 1.791 4 4v46c0 9.926-8.074 18-18 18zm-10-60v42c0 5.514 4.484 10 10 10s10-4.486 10-10v-42z" fill="#4c241d"/></g><g><path d="m128 52c-11.269 0-22.001 2.228-31.862 6.168 1.156 2.377 1.862 5.011 1.862 7.832 0 9.941-8.059 18-18 18-1.474 0-2.885-.227-4.255-.561 1.439 3.23 2.255 6.797 2.255 10.561 0 14.359-11.641 26-26 26-2.709 0-5.32-.417-7.776-1.185-1.41 6.177-2.224 12.581-2.224 19.185 0 47.496 38.503 86 86 86s86-38.504 86-86c0-47.497-38.503-86-86-86z" fill="#bf7e68"/><path d="m128 228c-49.625 0-90-40.373-90-90 0-6.568.781-13.322 2.324-20.076.246-1.088.938-2.021 1.906-2.578.973-.559 2.125-.682 3.188-.348 2.125.664 4.34 1.002 6.582 1.002 12.129 0 22-9.869 22-22 0-3.084-.641-6.09-1.906-8.934-.621-1.393-.395-3.02.582-4.189.98-1.172 2.551-1.68 4.016-1.324 1.253.304 2.304.447 3.308.447 7.719 0 14-6.281 14-14 0-2.045-.492-4.09-1.461-6.082-.484-1-.535-2.156-.133-3.193.402-1.035 1.215-1.859 2.246-2.271 10.723-4.282 21.942-6.454 33.348-6.454 49.625 0 90 40.373 90 90s-40.375 90-90 90zm-80.68-104.365c-.879 4.847-1.32 9.664-1.32 14.365 0 45.215 36.785 82 82 82s82-36.785 82-82-36.785-82-82-82c-9.098 0-18.07 1.52-26.727 4.52.485 1.802.727 3.634.727 5.48 0 11.666-9.129 21.24-20.617 21.957.41 1.979.617 3.998.617 6.043 0 16.543-13.457 30-30 30-1.574 0-3.137-.123-4.68-.365z" fill="#4c241d"/></g><path d="m194 240c-2.211 0-4-1.791-4-4v-20c0-2.209 1.789-4 4-4s4 1.791 4 4v20c0 2.209-1.789 4-4 4z" fill="#4c241d"/><path d="m174 156c-1.023 0-2.047-.391-2.828-1.172l-60-60c-1.562-1.562-1.562-4.094 0-5.656s4.094-1.562 5.656 0l60 60c1.562 1.562 1.562 4.094 0 5.656-.781.781-1.805 1.172-2.828 1.172z" fill="#ffce56"/><path d="m158 172c-1.023 0-2.047-.391-2.828-1.172l-60-60c-1.562-1.562-1.562-4.094 0-5.656s4.094-1.562 5.656 0l60 60c1.562 1.562 1.562 4.094 0 5.656-.781.781-1.805 1.172-2.828 1.172z" fill="#ffce56"/><path d="m142 188c-1.023 0-2.047-.391-2.828-1.172l-60-60c-1.562-1.562-1.562-4.094 0-5.656s4.094-1.562 5.656 0l60 60c1.562 1.562 1.562 4.094 0 5.656-.781.781-1.805 1.172-2.828 1.172z" fill="#ffce56"/><path d="m82 156c-1.023 0-2.047-.391-2.828-1.172-1.562-1.562-1.562-4.094 0-5.656l60-60c1.562-1.562 4.094-1.562 5.656 0s1.562 4.094 0 5.656l-60 60c-.781.781-1.805 1.172-2.828 1.172z" fill="#ffce56"/><path d="m98 172c-1.023 0-2.047-.391-2.828-1.172-1.562-1.562-1.562-4.094 0-5.656l60-60c1.562-1.562 4.094-1.562 5.656 0s1.562 4.094 0 5.656l-60 60c-.781.781-1.805 1.172-2.828 1.172z" fill="#ffce56"/><path d="m114 188c-1.023 0-2.047-.391-2.828-1.172-1.562-1.562-1.562-4.094 0-5.656l60-60c1.562-1.562 4.094-1.562 5.656 0s1.562 4.094 0 5.656l-60 60c-.781.781-1.805 1.172-2.828 1.172z" fill="#ffce56"/></g></svg>