<svg id="costume" enable-background="new 0 0 300 300" height="512" viewBox="0 0 300 300" width="512" xmlns="http://www.w3.org/2000/svg"><g><circle cx="127.698" cy="120" fill="#eaeaea" r="92"/><g fill="#4c241d"><path d="m239.698 52c-2.209 0-4-1.791-4-4v-8c0-2.209 1.791-4 4-4s4 1.791 4 4v8c0 2.209-1.791 4-4 4z"/><path d="m239.698 76c-2.209 0-4-1.791-4-4v-8c0-2.209 1.791-4 4-4s4 1.791 4 4v8c0 2.209-1.791 4-4 4z"/><path d="m231.698 60h-8c-2.209 0-4-1.791-4-4s1.791-4 4-4h8c2.209 0 4 1.791 4 4s-1.791 4-4 4z"/><path d="m255.698 60h-8c-2.209 0-4-1.791-4-4s1.791-4 4-4h8c2.209 0 4 1.791 4 4s-1.791 4-4 4z"/><path d="m57.698 80c-7.719 0-14-6.281-14-14s6.281-14 14-14 14 6.281 14 14-6.282 14-14 14zm0-20c-3.309 0-6 2.691-6 6s2.691 6 6 6 6-2.691 6-6-2.692-6-6-6z"/></g><g><path d="m199.698 118c-.105 0-.172-4.393-.214-10h-99.555c-.032 5.607-.1 10-.232 10-5.644 0-10.196 4.676-9.993 10.365.114 3.199 2.081 6.09 4.734 7.88 3.217 2.171 5.98 2.017 8.431 1.192 1.984 9.68 22.463 50.613 44.828 50.562 22.364-.051 46.613-41.085 48.689-50.605 2.441.861 5.222 1.011 8.371-.95 2.549-1.588 4.495-4.194 4.862-7.175.75-6.089-3.981-11.269-9.921-11.269z" fill="#e7d1c4"/><path d="m147.657 192c-22.74.004-42.49-35.621-47.596-50.002-2.701.082-5.318-.721-7.859-2.436-3.914-2.643-6.342-6.773-6.496-11.053-.135-3.842 1.256-7.475 3.918-10.232 1.748-1.811 3.889-3.086 6.238-3.75.025-1.402.051-3.479.068-6.551.014-2.199 1.801-3.977 4-3.977h99.553c2.197 0 3.982 1.771 4 3.969.023 3.076.049 5.16.074 6.574 2.537.729 4.848 2.168 6.631 4.186 2.656 3.002 3.895 7.021 3.402 11.029-.494 4.002-3.006 7.771-6.721 10.084-2.5 1.557-5.1 2.285-7.787 2.141-5.775 14.562-28.635 49.967-51.375 50.018-.015 0-.035 0-.05 0zm-44.788-58.562c.693 0 1.381.18 1.994.533.994.57 1.693 1.541 1.924 2.664 1.945 9.486 21.777 47.365 40.869 47.365h.031c18.979-.043 42.766-38.172 44.791-47.457.244-1.121.959-2.084 1.961-2.643 1.004-.561 2.195-.658 3.277-.277 1.818.643 3.244.477 4.924-.572 1.684-1.049 2.809-2.645 3.008-4.27.217-1.76-.299-3.447-1.453-4.754-1.141-1.289-2.779-2.027-4.498-2.027-3.639 0-4.061-.828-4.178-10h-91.619c-.104 8.969-.537 10-4.203 10-1.643 0-3.176.65-4.318 1.834-1.141 1.182-1.736 2.74-1.678 4.391.061 1.703 1.201 3.508 2.975 4.707 1.947 1.314 3.375 1.236 4.918.715.416-.141.846-.209 1.275-.209z" fill="#4c241d"/></g><circle cx="40.026" cy="134.391" fill="#4c241d" r="4.276"/><g><path d="m197.922 200.829-15.752-7.16c4.216-6.277 7.087-13.791 8.064-22.003.501-4.217 2.185-8.192 5.11-11.196l4.354-4.47h-100l4.354 4.47c2.926 3.004 4.609 6.979 5.11 11.196.905 7.609 3.446 14.61 7.163 20.594l-18.852 8.569c-13.242 6.019-21.776 19.449-21.776 34.27v32.901h144v-32.901c.001-14.821-8.533-28.251-21.775-34.27z" fill="#fc8c29"/><path d="m219.698 272h-144c-2.209 0-4-1.791-4-4v-32.902c0-16.369 9.467-31.25 24.119-37.91l14.889-6.768c-2.867-5.658-4.756-11.898-5.516-18.281-.422-3.551-1.807-6.621-4.004-8.877l-4.354-4.471c-1.123-1.152-1.445-2.865-.82-4.346.625-1.482 2.078-2.445 3.686-2.445h100c1.607 0 3.061.963 3.686 2.445.625 1.48.303 3.193-.82 4.346l-4.354 4.471c-2.197 2.256-3.582 5.326-4.004 8.877-.83 6.98-2.982 13.725-6.279 19.752l11.65 5.297h.002c14.652 6.66 24.119 21.541 24.119 37.91v32.902c0 2.209-1.791 4-4 4zm-140-8h136v-28.902c0-13.24-7.627-25.262-19.432-30.629l-15.75-7.16c-1.07-.486-1.873-1.418-2.193-2.549-.322-1.131-.129-2.346.527-3.322 3.977-5.922 6.541-12.922 7.41-20.244.504-4.219 1.963-8.035 4.262-11.193h-81.648c2.299 3.158 3.758 6.975 4.262 11.193.803 6.754 3.08 13.309 6.588 18.955.607.979.764 2.17.43 3.271s-1.125 2.006-2.174 2.48l-18.852 8.568c-11.803 5.367-19.43 17.389-19.43 30.629z" fill="#4c241d"/></g><circle cx="260.026" cy="118.391" fill="#4c241d" r="4.276"/><circle cx="148.026" cy="254.391" fill="#4c241d" r="4.276"/><circle cx="148.026" cy="238.391" fill="#4c241d" r="4.276"/><path d="m107.698 272c-2.209 0-4-1.791-4-4v-24c0-2.209 1.791-4 4-4s4 1.791 4 4v24c0 2.209-1.791 4-4 4z" fill="#4c241d"/><path d="m187.698 272c-2.209 0-4-1.791-4-4v-24c0-2.209 1.791-4 4-4s4 1.791 4 4v24c0 2.209-1.791 4-4 4z" fill="#4c241d"/><g><path d="m89.445 102.253c3.862-3.862 6.084-8.973 6.746-14.394 3.575-29.287 26.168-51.859 53.507-51.859s49.931 22.572 53.507 51.858c.662 5.421 2.883 10.532 6.745 14.394l5.747 5.747h-132z" fill="#fc8c29"/><path d="m215.698 112h-132c-1.617 0-3.076-.975-3.695-2.469-.619-1.496-.277-3.215.867-4.359l5.748-5.748c3.078-3.078 5.016-7.246 5.602-12.051 3.855-31.568 28.564-55.373 57.478-55.373s53.623 23.805 57.479 55.373c.586 4.805 2.523 8.973 5.602 12.051l5.748 5.748c1.145 1.145 1.486 2.863.867 4.359-.62 1.494-2.079 2.469-3.696 2.469zm-122.403-8h112.805c-3.76-4.211-6.125-9.594-6.865-15.658-3.366-27.559-24.662-48.342-49.537-48.342s-46.172 20.783-49.537 48.342c-.741 6.064-3.106 11.447-6.866 15.658z" fill="#4c241d"/></g><circle cx="169.698" cy="134" fill="#4c241d" r="4"/><circle cx="129.698" cy="134" fill="#4c241d" r="4"/><path d="m213.229 160h-127.063c-10.184 0-18.469-8.285-18.469-18.469v-19.062c0-10.184 8.285-18.469 18.469-18.469h127.062c10.184 0 18.469 8.285 18.469 18.469v19.062c.001 10.184-8.285 18.469-18.468 18.469zm-127.063-48c-5.773 0-10.469 4.695-10.469 10.469v19.062c0 5.773 4.695 10.469 10.469 10.469h127.062c5.773 0 10.469-4.695 10.469-10.469v-19.062c0-5.773-4.695-10.469-10.469-10.469z" fill="#4c241d"/><path d="m139.698 196h-24c-2.209 0-4-1.791-4-4s1.791-4 4-4h24c2.209 0 4 1.791 4 4s-1.791 4-4 4z" fill="#4c241d"/></g></svg>