<svg id="cream" enable-background="new 0 0 300 300" height="512" viewBox="0 0 300 300" width="512" xmlns="http://www.w3.org/2000/svg"><g><circle cx="134" cy="114" fill="#eaeaea" r="86"/><g fill="#4c241d"><path d="m76 131.512c-2.209 0-4-1.791-4-4v-5.66c0-2.209 1.791-4 4-4s4 1.791 4 4v5.66c0 2.209-1.791 4-4 4z"/><path d="m76 154.148c-2.209 0-4-1.791-4-4v-5.66c0-2.209 1.791-4 4-4s4 1.791 4 4v5.66c0 2.209-1.791 4-4 4z"/><path d="m67.512 140h-5.66c-2.209 0-4-1.791-4-4s1.791-4 4-4h5.66c2.209 0 4 1.791 4 4s-1.791 4-4 4z"/><path d="m90.148 140h-5.66c-2.209 0-4-1.791-4-4s1.791-4 4-4h5.66c2.209 0 4 1.791 4 4s-1.791 4-4 4z"/><circle cx="96.299" cy="86.355" r="4.276"/><path d="m54.244 86.973c-1.021 0-2.043-.389-2.824-1.166-1.564-1.561-1.568-4.092-.01-5.658l11.771-11.812c1.559-1.566 4.092-1.568 5.658-.01 1.564 1.561 1.568 4.092.01 5.658l-11.771 11.812c-.781.783-1.808 1.176-2.834 1.176z"/><path d="m66.035 86.953c-1.021 0-2.043-.389-2.824-1.166l-11.813-11.773c-1.564-1.561-1.568-4.094-.01-5.658 1.561-1.566 4.09-1.568 5.658-.01l11.812 11.773c1.564 1.561 1.568 4.094.01 5.658-.782.784-1.807 1.176-2.833 1.176z"/></g><g><path d="m148 76h40v32h-40z" fill="#bf7e68"/><path d="m188 112h-40c-2.209 0-4-1.791-4-4v-32c0-2.209 1.791-4 4-4h40c2.209 0 4 1.791 4 4v32c0 2.209-1.791 4-4 4zm-36-8h32v-24h-32z" fill="#4c241d"/></g><g><path d="m160 60h16v16h-16z" fill="#6b4f5b"/><path d="m176 80h-16c-2.209 0-4-1.791-4-4v-16c0-2.209 1.791-4 4-4h16c2.209 0 4 1.791 4 4v16c0 2.209-1.791 4-4 4zm-12-8h8v-8h-8z" fill="#4c241d"/></g><path d="m223.998 64.002c-.494 0-.996-.094-1.484-.287l-10.986-4.395c-4.852-1.941-10.203-1.945-15.055 0l-10.986 4.395c-.473.187-.977.285-1.487.285h-30.271c-4.365 0-8.736-1.031-12.643-2.984l-10.875-5.438c-1.977-.988-2.777-3.391-1.789-5.367.988-1.975 3.387-2.781 5.367-1.789l10.875 5.438c2.801 1.4 5.936 2.141 9.064 2.141h29.502l10.27-4.109c6.773-2.707 14.229-2.707 20.998 0l10.988 4.395c2.051.822 3.049 3.148 2.229 5.201-.627 1.561-2.129 2.512-3.717 2.514z" fill="#4c241d"/><g><path d="m92 200c0 27.393 10.812 51.861 27.761 68h96.478c16.949-16.139 27.761-40.607 27.761-68s-10.812-51.861-27.761-68h-96.478c-16.949 16.139-27.761 40.607-27.761 68z" fill="#ffce56"/><path d="m216.238 272h-96.477c-1.027 0-2.014-.395-2.758-1.104-18.431-17.55-29.003-43.39-29.003-70.896s10.572-53.346 29.004-70.896c.744-.709 1.73-1.104 2.758-1.104h96.477c1.027 0 2.014.395 2.758 1.104 18.431 17.548 29.003 43.388 29.003 70.896s-10.572 53.348-29.004 70.896c-.744.709-1.73 1.104-2.758 1.104zm-94.853-8h93.23c16.153-16.02 25.385-39.246 25.385-64s-9.232-47.98-25.385-64h-93.23c-16.153 16.021-25.385 39.248-25.385 64s9.232 47.979 25.385 64z" fill="#4c241d"/></g><path d="m109.66 222.404c-1.895 0-3.576-1.35-3.93-3.277-1.148-6.252-1.73-12.688-1.73-19.127 0-3.109.137-6.236.404-9.295.191-2.201 2.133-3.848 4.334-3.635 2.201.193 3.828 2.133 3.635 4.334-.248 2.826-.373 5.719-.373 8.596 0 5.957.537 11.906 1.598 17.682.4 2.174-1.039 4.258-3.211 4.656-.244.045-.489.066-.727.066z" fill="#fff"/><path d="m110.164 183.08c-.273 0-.551-.027-.828-.086-2.162-.455-3.545-2.578-3.09-4.738 2.443-11.596 6.773-22.395 12.869-32.094 1.176-1.865 3.643-2.43 5.516-1.258 1.869 1.176 2.434 3.645 1.258 5.516-5.592 8.896-9.566 18.816-11.814 29.484-.397 1.885-2.059 3.176-3.911 3.176z" fill="#fff"/><g><path d="m200.722 108h-65.444c-8.438 0-15.278 6.84-15.278 15.278v8.722h96v-8.722c0-8.438-6.84-15.278-15.278-15.278z" fill="#bd53b5"/><path d="m216 136h-96c-2.209 0-4-1.791-4-4v-8.723c0-10.629 8.648-19.277 19.277-19.277h65.445c10.629 0 19.277 8.648 19.277 19.277v8.723c.001 2.209-1.79 4-3.999 4zm-92-8h88v-4.723c0-6.219-5.059-11.277-11.277-11.277h-65.445c-6.219 0-11.277 5.059-11.277 11.277v4.723z" fill="#4c241d"/></g><path d="m248 272h-32c-2.209 0-4-1.791-4-4s1.791-4 4-4h32c2.209 0 4 1.791 4 4s-1.791 4-4 4z" fill="#4c241d"/><path d="m120 272h-24c-2.209 0-4-1.791-4-4s1.791-4 4-4h24c2.209 0 4 1.791 4 4s-1.791 4-4 4z" fill="#4c241d"/><path d="m84 272h-20c-2.209 0-4-1.791-4-4s1.791-4 4-4h20c2.209 0 4 1.791 4 4s-1.791 4-4 4z" fill="#4c241d"/><g><path d="m181.459 172h-29.083l-14.542 26 14.542 26h29.083l14.541-26z" fill="#fc8c29"/><path d="m181.459 228h-29.084c-1.449 0-2.783-.783-3.49-2.047l-14.541-26c-.68-1.215-.68-2.691 0-3.906l14.541-26c.707-1.264 2.041-2.047 3.49-2.047h29.084c1.449 0 2.783.783 3.49 2.047l14.541 26c.68 1.215.68 2.691 0 3.906l-14.541 26c-.707 1.264-2.041 2.047-3.49 2.047zm-26.738-8h24.393l12.303-22-12.303-22h-24.393l-12.303 22z" fill="#4c241d"/></g><path d="m151.996 200c-.6 0-1.211-.135-1.785-.422-1.975-.988-2.777-3.391-1.789-5.367l5.293-10.588c.988-1.973 3.387-2.781 5.367-1.789 1.975.988 2.777 3.391 1.789 5.367l-5.293 10.588c-.701 1.4-2.113 2.211-3.582 2.211z" fill="#fff"/></g></svg>