<svg id="flower" enable-background="new 0 0 300 300" height="512" viewBox="0 0 300 300" width="512" xmlns="http://www.w3.org/2000/svg"><g><path d="m174.29 42c-2.209 0-4-1.791-4-4v-8c0-2.209 1.791-4 4-4s4 1.791 4 4v8c0 2.209-1.791 4-4 4z" fill="#4c241d"/><path d="m174.29 66c-2.209 0-4-1.791-4-4v-8c0-2.209 1.791-4 4-4s4 1.791 4 4v8c0 2.209-1.791 4-4 4z" fill="#4c241d"/><path d="m166.29 50h-8c-2.209 0-4-1.791-4-4s1.791-4 4-4h8c2.209 0 4 1.791 4 4s-1.791 4-4 4z" fill="#4c241d"/><circle cx="130.29" cy="162" fill="#eaeaea" r="92"/><g fill="#4c241d"><path d="m190.29 50h-8c-2.209 0-4-1.791-4-4s1.791-4 4-4h8c2.209 0 4 1.791 4 4s-1.791 4-4 4z"/><path d="m232.29 258c-7.719 0-14-6.281-14-14s6.281-14 14-14 14 6.281 14 14-6.281 14-14 14zm0-20c-3.309 0-6 2.691-6 6s2.691 6 6 6 6-2.691 6-6-2.692-6-6-6z"/><circle cx="143.295" cy="110.927" r="4.276"/><circle cx="159.295" cy="226.927" r="4.276"/><path d="m82.29 246c-2.209 0-4-1.791-4-4v-112c0-2.209 1.791-4 4-4s4 1.791 4 4v112c0 2.209-1.791 4-4 4z"/></g><g><circle cx="55.581" cy="74.922" fill="#bd53b5" r="19.078"/><path d="m55.581 98c-12.725 0-23.078-10.354-23.078-23.078s10.354-23.078 23.078-23.078 23.078 10.354 23.078 23.078-10.354 23.078-23.078 23.078zm0-38.156c-8.314 0-15.078 6.764-15.078 15.078s6.763 15.078 15.078 15.078 15.078-6.764 15.078-15.078-6.764-15.078-15.078-15.078z" fill="#4c241d"/></g><g><circle cx="82.105" cy="63.291" fill="#bd53b5" r="19.078"/><path d="m82.106 86.369c-12.725 0-23.078-10.354-23.078-23.078s10.354-23.078 23.078-23.078 23.078 10.354 23.078 23.078-10.353 23.078-23.078 23.078zm0-38.156c-8.314 0-15.078 6.764-15.078 15.078s6.764 15.078 15.078 15.078 15.078-6.764 15.078-15.078-6.763-15.078-15.078-15.078z" fill="#4c241d"/></g><g><circle cx="108.999" cy="74.922" fill="#bd53b5" r="19.078"/><path d="m108.999 98c-12.725 0-23.078-10.354-23.078-23.078s10.354-23.078 23.078-23.078 23.078 10.354 23.078 23.078-10.354 23.078-23.078 23.078zm0-38.156c-8.314 0-15.078 6.764-15.078 15.078s6.763 15.078 15.078 15.078 15.078-6.764 15.078-15.078-6.764-15.078-15.078-15.078z" fill="#4c241d"/></g><g><circle cx="105.368" cy="105.447" fill="#bd53b5" r="19.078"/><path d="m105.368 128.525c-12.725 0-23.078-10.354-23.078-23.078s10.354-23.078 23.078-23.078 23.078 10.354 23.078 23.078-10.353 23.078-23.078 23.078zm0-38.156c-8.314 0-15.078 6.764-15.078 15.078s6.764 15.078 15.078 15.078 15.078-6.764 15.078-15.078-6.764-15.078-15.078-15.078z" fill="#4c241d"/></g><g><circle cx="59.212" cy="105.447" fill="#bd53b5" r="19.078"/><path d="m59.212 128.525c-12.725 0-23.078-10.354-23.078-23.078s10.354-23.078 23.078-23.078 23.078 10.354 23.078 23.078-10.354 23.078-23.078 23.078zm0-38.156c-8.314 0-15.078 6.764-15.078 15.078s6.764 15.078 15.078 15.078 15.078-6.764 15.078-15.078-6.764-15.078-15.078-15.078z" fill="#4c241d"/></g><g><circle cx="82.105" cy="112.709" fill="#bd53b5" r="19.078"/><path d="m82.106 135.787c-12.725 0-23.078-10.354-23.078-23.078s10.354-23.078 23.078-23.078 23.078 10.354 23.078 23.078-10.353 23.078-23.078 23.078zm0-38.156c-8.314 0-15.078 6.764-15.078 15.078s6.764 15.078 15.078 15.078 15.078-6.764 15.078-15.078-6.763-15.078-15.078-15.078z" fill="#4c241d"/></g><g><circle cx="186.261" cy="113.322" fill="#9dc1e4" r="22"/><path d="m186.286 139.324c-10.707 0-20.756-6.664-24.529-17.314-4.791-13.512 2.305-28.402 15.818-33.193 6.545-2.326 13.604-1.951 19.871 1.035 6.271 2.988 11.002 8.238 13.32 14.785 4.791 13.51-2.305 28.4-15.818 33.191-2.861 1.014-5.785 1.496-8.662 1.496zm-.014-44.012c-2.025 0-4.059.346-6.025 1.043-9.354 3.318-14.268 13.627-10.951 22.982 3.316 9.352 13.625 14.262 22.98 10.951 4.531-1.607 8.166-4.883 10.234-9.223s2.322-9.227.717-13.758c-1.607-4.531-4.881-8.166-9.223-10.234-2.456-1.171-5.087-1.761-7.732-1.761z" fill="#4c241d"/></g><g><circle cx="82.29" cy="90" fill="#ffce56" r="16"/><path d="m82.29 110c-11.027 0-20-8.973-20-20s8.973-20 20-20 20 8.973 20 20-8.973 20-20 20zm0-32c-6.617 0-12 5.383-12 12s5.383 12 12 12 12-5.383 12-12-5.383-12-12-12z" fill="#4c241d"/></g><g><path d="m71.982 161.197c9.742 13.753 12.631 28.449 6.454 32.824-6.177 4.376-19.082-3.226-28.824-16.979s-6.454-32.824-6.454-32.824 19.082 3.226 28.824 16.979z" fill="#a9ba5a"/><path d="m74.303 199.227c-8.277 0-19.141-7.43-27.955-19.871-10.58-14.936-7.279-34.971-7.133-35.816.375-2.168 2.436-3.633 4.607-3.264.848.143 20.842 3.674 31.422 18.609 5.031 7.102 8.531 14.727 9.857 21.469 1.541 7.838-.004 13.852-4.354 16.932-1.854 1.314-4.039 1.941-6.444 1.941zm-27.605-50.01c-.287 5.992.17 17.033 6.178 25.514 9.354 13.207 20.014 18.309 23.248 16.027 1.555-1.102 1.988-4.496 1.129-8.861-1.096-5.574-4.207-12.277-8.535-18.387-6.008-8.481-16.274-12.576-22.02-14.293z" fill="#4c241d"/></g><g><ellipse cx="169.94" cy="163.565" fill="#fff" rx="36" ry="16.196" transform="matrix(.43 -.903 .903 .43 -50.825 246.605)"/><path d="m157.823 200.799c-1.787 0-3.496-.365-5.092-1.125-5.41-2.578-8.281-9.021-8.08-18.145.176-8.008 2.682-17.473 7.057-26.652 9.812-20.588 25.051-32.367 35.441-27.422 10.393 4.953 10.832 24.213 1.023 44.799-8.304 17.424-20.497 28.545-30.349 28.545zm24.156-66.477c-5.355 0-15.443 8.035-23.049 23.996-3.898 8.18-6.129 16.486-6.281 23.387-.123 5.619 1.193 9.637 3.523 10.746 4.607 2.201 16.25-5.74 24.777-23.639 8.529-17.898 7.354-31.945 2.758-34.135-.497-.238-1.077-.355-1.728-.355zm2.582 36.211h.039z" fill="#4c241d"/></g><g><ellipse cx="230.262" cy="142.182" fill="#fff" rx="16.196" ry="36" transform="matrix(.43 -.903 .903 .43 2.848 288.876)"/><path d="m248.958 167.488c-7.852 0-17.463-2.348-27.385-7.074-20.584-9.812-32.373-25.049-27.42-35.441 2.58-5.412 9.049-8.23 18.145-8.08 8.008.176 17.473 2.682 26.652 7.057 20.584 9.811 32.373 25.047 27.422 35.441-2.567 5.384-8.973 8.097-17.414 8.097zm-23.944-14.297c17.896 8.525 31.943 7.354 34.135 2.758 2.191-4.598-5.744-16.248-23.641-24.777-8.18-3.898-16.486-6.129-23.387-6.281-5.625-.121-9.637 1.193-10.746 3.523-2.191 4.598 5.743 16.248 23.639 24.777z" fill="#4c241d"/></g><g><path d="m117.398 205.04c-10.647 13.064-24.035 19.778-29.903 14.996s-1.994-19.25 8.653-32.314 29.903-14.996 29.903-14.996 1.995 19.249-8.653 32.314z" fill="#a9ba5a"/><path d="m92.243 225.539c-2.797 0-5.279-.775-7.275-2.402-4.131-3.367-5.27-9.471-3.203-17.188 1.777-6.637 5.783-14.008 11.281-20.756 11.566-14.188 31.752-16.363 32.607-16.449 2.189-.215 4.15 1.377 4.377 3.568.088.854 2.033 21.064-9.529 35.254 0 0 0 0-.002 0-9.258 11.36-20.096 17.973-28.256 17.973zm29.939-48.066c-5.85 1.324-16.367 4.719-22.936 12.775-4.729 5.805-8.285 12.281-9.754 17.771-1.15 4.295-.947 7.711.529 8.914 3.068 2.496 14.047-1.871 24.277-14.422h-.002c6.568-8.056 7.769-19.042 7.886-25.038zm-4.783 27.566h.039z" fill="#4c241d"/></g><path d="m190.225 92.578c-.326 0-.654-.039-.982-.121-2.143-.541-3.441-2.717-2.9-4.857l3.531-13.984c.543-2.145 2.736-3.422 4.857-2.9 2.143.541 3.441 2.717 2.9 4.857l-3.531 13.984c-.459 1.814-2.088 3.021-3.875 3.021z" fill="#4c241d"/><g><ellipse cx="200.962" cy="154.794" fill="#9dc1e4" rx="28" ry="38" transform="matrix(.943 -.334 .334 .943 -40.17 76.039)"/><path d="m206.514 195.834c-5.826 0-11.822-1.957-17.479-5.787-8.084-5.473-14.561-14.195-18.234-24.562-3.676-10.365-4.139-21.219-1.307-30.561 2.965-9.779 9.156-16.781 17.436-19.715 8.279-2.938 17.496-1.398 25.957 4.332 8.084 5.473 14.561 14.195 18.234 24.562 3.676 10.363 4.141 21.219 1.307 30.561-2.965 9.779-9.156 16.781-17.434 19.715-2.743.973-5.591 1.455-8.48 1.455zm-11.132-74.066c-1.986 0-3.926.324-5.779.98-5.82 2.064-10.242 7.211-12.451 14.496-2.34 7.721-1.918 16.801 1.189 25.568 3.109 8.768 8.5 16.088 15.18 20.609 6.309 4.271 12.984 5.484 18.803 3.418 5.82-2.064 10.242-7.211 12.449-14.496 2.342-7.721 1.918-16.801-1.189-25.568-3.109-8.768-8.5-16.088-15.18-20.609-4.298-2.91-8.768-4.398-13.022-4.398z" fill="#4c241d"/></g><path d="m167.596 100.596c-.832 0-1.674-.26-2.393-.797l-11.549-8.637c-1.768-1.322-2.129-3.83-.807-5.6 1.322-1.766 3.83-2.133 5.6-.807l11.549 8.637c1.768 1.322 2.131 3.83.807 5.6-.785 1.049-1.988 1.604-3.207 1.604z" fill="#4c241d"/><g><path d="m175.318 166.031c2.689 6.74 6.586 12.481 11.162 16.815 6.83-3.054 13.957-5.939 21.387-8.573s14.783-4.881 22.012-6.811c.825-6.248.236-13.162-1.92-20.091-8.743 2.167-17.708 4.837-26.774 8.051s-17.711 6.786-25.867 10.609z" fill="#bf7e68"/><path d="m186.481 186.846c-1.002 0-1.992-.377-2.75-1.096-5.104-4.834-9.297-11.141-12.127-18.236-.785-1.969.1-4.205 2.018-5.104 8.469-3.971 17.293-7.59 26.225-10.758 8.926-3.164 18.061-5.91 27.148-8.164 2.055-.51 4.152.672 4.781 2.693 2.273 7.297 2.988 14.836 2.068 21.803-.211 1.605-1.369 2.924-2.934 3.342-7.41 1.977-14.713 4.238-21.705 6.717-6.994 2.479-14.09 5.322-21.092 8.455-.522.234-1.079.348-1.632.348zm-5.904-18.83c1.857 3.758 4.164 7.164 6.814 10.055 6.367-2.777 12.795-5.318 19.141-7.566 6.346-2.252 12.938-4.324 19.633-6.178.236-3.916-.117-8.014-1.041-12.102-7.58 1.994-15.166 4.332-22.604 6.967-7.443 2.64-14.806 5.601-21.943 8.824z" fill="#4c241d"/></g><g><path d="m171.717 145.798c7.256-3.294 14.839-6.41 22.786-9.227 7.931-2.812 15.786-5.208 23.481-7.215-8.414-9.48-19.748-13.913-29.718-10.379-9.981 3.539-15.996 14.14-16.549 26.821z" fill="#bf7e68"/><path d="m171.718 149.799c-.785 0-1.566-.23-2.238-.686-1.152-.777-1.818-2.1-1.758-3.488.645-14.791 8.006-26.445 19.209-30.416 11.193-3.973 24.23.436 34.045 11.494.924 1.039 1.24 2.486.836 3.816-.406 1.332-1.473 2.357-2.818 2.709-7.746 2.02-15.535 4.412-23.154 7.113-7.451 2.641-14.801 5.617-22.467 9.1-.528.239-1.093.358-1.655.358zm23.625-28.022c-1.971 0-3.898.318-5.74.971-6.412 2.273-11.09 8.361-12.99 16.523 5.568-2.377 11.033-4.512 16.555-6.469 5.57-1.977 11.232-3.791 16.902-5.424-4.708-3.649-9.847-5.601-14.727-5.601z" fill="#4c241d"/></g><g><path d="m126.29 270c0-15.464-12.536-28-28-28h-32c-15.464 0-28 12.536-28 28" fill="#bf7e68"/><path d="m126.29 274c-2.209 0-4-1.791-4-4 0-13.234-10.766-24-24-24h-32c-13.234 0-24 10.766-24 24 0 2.209-1.791 4-4 4s-4-1.791-4-4c0-17.645 14.355-32 32-32h32c17.645 0 32 14.355 32 32 0 2.209-1.791 4-4 4z" fill="#4c241d"/></g></g></svg>