<svg id="flowers" enable-background="new 0 0 300 300" height="512" viewBox="0 0 300 300" width="512" xmlns="http://www.w3.org/2000/svg"><g><circle cx="125.105" cy="124" fill="#eaeaea" r="92"/><path d="m147.105 60c-7.719 0-14-6.281-14-14s6.281-14 14-14 14 6.281 14 14-6.281 14-14 14zm0-20c-3.309 0-6 2.691-6 6s2.691 6 6 6 6-2.691 6-6-2.691-6-6-6z" fill="#4c241d"/><circle cx="94.111" cy="40.927" fill="#4c241d" r="4.276"/><circle cx="166.111" cy="180.927" fill="#4c241d" r="4.276"/><path d="m217.105 240c-2.211 0-4-1.791-4-4v-112c0-2.209 1.789-4 4-4s4 1.791 4 4v112c0 2.209-1.789 4-4 4z" fill="#4c241d"/><g><circle cx="190.396" cy="68.922" fill="#bd53b5" r="19.078"/><path d="m190.395 92c-12.727 0-23.078-10.354-23.078-23.078s10.352-23.078 23.078-23.078 23.078 10.354 23.078 23.078-10.352 23.078-23.078 23.078zm0-38.156c-8.312 0-15.078 6.764-15.078 15.078s6.765 15.078 15.078 15.078 15.078-6.764 15.078-15.078-6.766-15.078-15.078-15.078z" fill="#4c241d"/></g><g><circle cx="216.921" cy="57.291" fill="#bd53b5" r="19.078"/><path d="m216.922 80.369c-12.727 0-23.078-10.354-23.078-23.078s10.352-23.078 23.078-23.078 23.078 10.353 23.078 23.078-10.352 23.078-23.078 23.078zm0-38.156c-8.312 0-15.078 6.764-15.078 15.078s6.766 15.078 15.078 15.078 15.078-6.764 15.078-15.078-6.766-15.078-15.078-15.078z" fill="#4c241d"/></g><g><circle cx="243.815" cy="68.922" fill="#bd53b5" r="19.078"/><path d="m243.816 92c-12.727 0-23.078-10.354-23.078-23.078s10.352-23.078 23.078-23.078 23.078 10.354 23.078 23.078-10.351 23.078-23.078 23.078zm0-38.156c-8.312 0-15.078 6.764-15.078 15.078s6.766 15.078 15.078 15.078 15.078-6.764 15.078-15.078-6.765-15.078-15.078-15.078z" fill="#4c241d"/></g><g><circle cx="240.183" cy="99.447" fill="#bd53b5" r="19.078"/><path d="m240.184 122.525c-12.727 0-23.078-10.354-23.078-23.078s10.352-23.078 23.078-23.078 23.078 10.354 23.078 23.078-10.352 23.078-23.078 23.078zm0-38.156c-8.312 0-15.078 6.764-15.078 15.078s6.766 15.078 15.078 15.078 15.078-6.764 15.078-15.078-6.766-15.078-15.078-15.078z" fill="#4c241d"/></g><g><circle cx="194.027" cy="99.447" fill="#bd53b5" r="19.078"/><path d="m194.027 122.525c-12.727 0-23.078-10.354-23.078-23.078s10.352-23.078 23.078-23.078 23.078 10.354 23.078 23.078-10.351 23.078-23.078 23.078zm0-38.156c-8.312 0-15.078 6.764-15.078 15.078s6.766 15.078 15.078 15.078 15.078-6.764 15.078-15.078-6.765-15.078-15.078-15.078z" fill="#4c241d"/></g><g><circle cx="216.921" cy="106.709" fill="#bd53b5" r="19.078"/><path d="m216.922 129.787c-12.727 0-23.078-10.354-23.078-23.078s10.352-23.078 23.078-23.078 23.078 10.353 23.078 23.078-10.352 23.078-23.078 23.078zm0-38.156c-8.312 0-15.078 6.764-15.078 15.078s6.766 15.078 15.078 15.078 15.078-6.764 15.078-15.078-6.766-15.078-15.078-15.078z" fill="#4c241d"/></g><g><circle cx="217.105" cy="84" fill="#ffce56" r="16"/><path d="m217.105 104c-11.027 0-20-8.973-20-20s8.973-20 20-20 20 8.973 20 20-8.972 20-20 20zm0-32c-6.617 0-12 5.383-12 12s5.383 12 12 12 12-5.383 12-12-5.382-12-12-12z" fill="#4c241d"/></g><g><path d="m206.797 155.197c9.742 13.753 12.631 28.449 6.454 32.824-6.177 4.376-19.082-3.226-28.824-16.979s-6.454-32.824-6.454-32.824 19.083 3.226 28.824 16.979z" fill="#a9ba5a"/><path d="m209.117 193.227c-8.277 0-19.141-7.43-27.957-19.871-10.574-14.936-7.273-34.971-7.129-35.816.375-2.172 2.434-3.633 4.609-3.264.844.143 20.84 3.674 31.422 18.609 5.031 7.104 8.531 14.727 9.855 21.469 1.543 7.838-.004 13.852-4.355 16.934-1.855 1.312-4.042 1.939-6.445 1.939zm-27.605-50.01c-.285 5.992.172 17.033 6.18 25.514 9.348 13.201 20 18.322 23.246 16.027 1.555-1.102 1.988-4.496 1.133-8.861-1.098-5.574-4.207-12.277-8.539-18.387-6.009-8.481-16.27-12.576-22.02-14.293z" fill="#4c241d"/></g><g><path d="m86.227 188.132c11.928 4.854 19.831 13.133 17.65 18.491-2.18 5.358-13.618 5.766-25.546.912s-17.65-18.491-17.65-18.491 13.618-5.767 25.546-.912z" fill="#a9ba5a"/><path d="m93.973 214.947c-5.324 0-11.445-1.387-17.148-3.707-13.316-5.42-19.574-20.029-19.832-20.65-.855-2.031.098-4.371 2.129-5.23.621-.262 15.293-6.348 28.613-.934 12.574 5.117 23.43 14.904 19.848 23.705-1.958 4.807-7.204 6.816-13.61 6.816zm-27.516-23.552c2.41 3.934 6.887 9.791 13.383 12.436 11.629 4.734 19.629 3.027 20.336 1.283.707-1.738-3.832-8.547-15.457-13.277-6.496-2.646-13.793-1.579-18.262-.442z" fill="#4c241d"/></g><g><path d="m126.693 200.132c-11.928 4.854-19.831 13.133-17.65 18.491 2.18 5.358 13.618 5.766 25.546.912s17.65-18.491 17.65-18.491-13.618-5.767-25.546-.912z" fill="#a9ba5a"/><path d="m118.945 226.947c-6.406 0-11.652-2.01-13.605-6.816-3.582-8.801 7.27-18.586 19.844-23.705 13.316-5.42 27.992.67 28.613.934 2.031.859 2.984 3.199 2.129 5.23-.258.621-6.516 15.23-19.828 20.65-5.703 2.321-11.828 3.707-17.153 3.707zm9.254-23.111c-11.621 4.73-16.16 11.539-15.449 13.279.703 1.738 8.703 3.441 20.332-1.285 6.539-2.662 11-8.506 13.391-12.432-4.465-1.138-11.77-2.209-18.274.438z" fill="#4c241d"/></g><g><path d="m252.214 199.04c-10.647 13.064-24.035 19.778-29.903 14.996s-1.994-19.25 8.653-32.314 29.903-14.996 29.903-14.996 1.994 19.249-8.653 32.314z" fill="#a9ba5a"/><path d="m227.113 219.578c-2.844 0-5.328-.812-7.328-2.443-4.133-3.365-5.273-9.469-3.207-17.186 1.777-6.637 5.785-14.008 11.285-20.756 11.562-14.188 31.75-16.363 32.605-16.449 2.242-.221 4.152 1.379 4.379 3.568.086.854 2.027 21.064-9.531 35.254-5.5 6.746-11.91 12.158-18.051 15.238-3.687 1.85-7.124 2.774-10.152 2.774zm29.895-48.107c-5.848 1.322-16.375 4.715-22.941 12.777-4.73 5.805-8.289 12.281-9.758 17.771-1.152 4.295-.949 7.711.531 8.914 1.48 1.211 4.871.713 8.836-1.279 5.082-2.547 10.707-7.338 15.438-13.143 6.601-8.099 7.788-19.06 7.894-25.04zm-4.793 27.568h.039z" fill="#4c241d"/></g><g><path d="m261.105 264c0-15.464-12.536-28-28-28h-144c-15.464 0-28 12.536-28 28" fill="#bf7e68"/><path d="m261.105 268c-2.211 0-4-1.791-4-4 0-13.234-10.766-24-24-24h-144c-13.234 0-24 10.766-24 24 0 2.209-1.789 4-4 4s-4-1.791-4-4c0-17.645 14.355-32 32-32h144c17.645 0 32 14.355 32 32 0 2.209-1.789 4-4 4z" fill="#4c241d"/></g><path d="m105.105 240c-2.211 0-4-1.791-4-4v-76c0-2.209 1.789-4 4-4s4 1.791 4 4v76c0 2.209-1.789 4-4 4z" fill="#4c241d"/><g><path d="m116.882 87.404c.605 11.911-5.116 26.687-11.733 27.023s-11.626-13.896-12.23-25.807 4.27-21.839 10.887-22.175 12.471 9.048 13.076 20.959z" fill="#fff"/><path d="m104.879 118.436c-10.516 0-15.367-18.047-15.957-29.611-.324-6.43.789-12.605 3.141-17.395 2.727-5.551 6.824-8.74 11.539-8.979 8.934-.506 16.547 10.416 17.277 24.75.32 6.311-.977 13.637-3.465 19.596-3.027 7.256-7.312 11.385-12.062 11.625-.161.008-.317.014-.473.014zm-.734-47.998c-.047 0-.09 0-.137.002-1.637.084-3.418 1.771-4.766 4.516-1.734 3.537-2.586 8.443-2.328 13.463.641 12.617 5.668 22.016 7.988 22.016h.043c.762-.039 3.004-1.732 5.086-6.719 2.051-4.91 3.121-10.932 2.855-16.107-.495-9.777-5.07-17.171-8.741-17.171z" fill="#4c241d"/></g><g><path d="m116.882 160.596c.605-11.911-5.116-26.687-11.733-27.023s-11.626 13.896-12.23 25.807 4.27 21.839 10.887 22.175 12.471-9.048 13.076-20.959z" fill="#fff"/><path d="m104.145 185.562c-.18 0-.359-.004-.543-.014-4.715-.238-8.812-3.428-11.539-8.979-2.352-4.789-3.465-10.965-3.141-17.395.59-11.562 5.441-29.611 15.957-29.611.156 0 .312.004.473.014 4.75.24 9.035 4.369 12.062 11.625 2.488 5.959 3.785 13.285 3.465 19.596-.715 14.044-8.016 24.764-16.734 24.764zm.757-47.996c-2.32 0-7.348 9.396-7.988 22.016-.258 5.02.594 9.926 2.328 13.463 1.348 2.744 3.129 4.432 4.766 4.516 3.656.102 8.375-7.27 8.879-17.168.266-5.176-.805-11.197-2.855-16.107-2.082-4.986-4.324-6.68-5.086-6.719-.016-.001-.028-.001-.044-.001z" fill="#4c241d"/></g><g><path d="m68.301 135.985c11.911.605 26.687-5.116 27.023-11.733s-13.896-11.626-25.807-12.23c-11.911-.605-21.839 4.27-22.175 10.887s9.048 12.471 20.959 13.076z" fill="#fff"/><path d="m70.031 140.027c-.652 0-1.297-.016-1.934-.049-6.426-.324-12.461-2.059-16.984-4.883-5.246-3.273-8.004-7.674-7.766-12.391.457-8.957 12.02-15.445 26.371-14.678 11.738.596 30.152 5.584 29.602 16.428-.242 4.75-4.371 9.033-11.625 12.062-5.359 2.24-11.824 3.511-17.664 3.511zm-2.441-24.054c-9.07 0-16.074 3.662-16.25 7.139-.086 1.635 1.414 3.578 4.008 5.197 3.344 2.084 8.137 3.426 13.156 3.682 5.215.254 11.199-.805 16.109-2.855 4.984-2.082 6.676-4.324 6.715-5.086.117-2.299-9.32-7.387-22.016-8.033-.582-.031-1.156-.044-1.722-.044z" fill="#4c241d"/></g><g><path d="m141.493 135.985c-11.911.605-26.687-5.116-27.023-11.733s13.896-11.626 25.807-12.23c11.911-.605 21.839 4.27 22.175 10.887s-9.048 12.471-20.959 13.076z" fill="#fff"/><path d="m139.762 140.027c-5.84 0-12.305-1.271-17.664-3.51-7.254-3.029-11.383-7.312-11.625-12.062-.551-10.844 17.863-15.832 29.602-16.428 14.344-.762 25.918 5.721 26.375 14.678.238 4.717-2.52 9.117-7.766 12.391-4.527 2.824-10.562 4.559-16.988 4.883-.637.033-1.282.048-1.934.048zm2.441-24.054c-.566 0-1.141.014-1.723.043-12.695.646-22.133 5.734-22.016 8.033.039.762 1.73 3.004 6.715 5.086 4.906 2.051 10.906 3.111 16.109 2.855 5.02-.256 9.816-1.598 13.16-3.682 2.594-1.619 4.094-3.562 4.008-5.197-.175-3.476-7.179-7.138-16.253-7.138z" fill="#4c241d"/></g><g><path d="m86.959 89.925c8.974 7.855 15.603 22.246 11.239 27.232s-18.069-1.322-27.043-9.178-12.711-18.265-8.347-23.25 15.177-2.66 24.151 5.196z" fill="#fff"/><path d="m93.484 122.938c-2.273 0-5.07-.512-8.5-1.814-5.406-2.057-11.562-5.846-16.465-10.135-4.84-4.238-8.504-9.338-10.305-14.359-2.09-5.82-1.527-10.982 1.586-14.535 3.105-3.551 8.148-4.791 14.195-3.494 5.215 1.123 10.754 4.074 15.598 8.314 4.754 4.162 9.113 10.189 11.664 16.125 3.102 7.225 3.082 13.174-.051 16.752-1.417 1.622-3.796 3.146-7.722 3.146zm-23.914-36.833c-1.699 0-3.027.43-3.75 1.258-1.082 1.232-1.109 3.686-.074 6.562 1.328 3.707 4.262 7.732 8.043 11.043 4.223 3.697 9.473 6.939 14.039 8.676 4.609 1.752 6.957 1.35 7.359.877.504-.572.848-3.361-1.281-8.326-2.102-4.891-5.684-9.848-9.582-13.262 0 0 0 0-.004 0-3.777-3.311-8.156-5.684-12.008-6.512-.984-.212-1.906-.316-2.742-.316z" fill="#4c241d"/></g><g><path d="m139.517 140.863c-8.132-8.724-22.724-14.9-27.57-10.382s1.887 18.019 10.02 26.743 18.654 12.133 23.5 7.615 2.183-15.252-5.95-23.976z" fill="#fff"/><path d="m139.852 170.791c-6.457 0-14.301-3.855-20.812-10.838-8.008-8.598-17.758-24.994-9.824-32.396 3.484-3.25 9.438-3.445 16.746-.574 6.012 2.361 12.172 6.531 16.48 11.154 9.785 10.494 12.312 23.51 5.758 29.627-2.2 2.048-5.098 3.027-8.348 3.027zm-23.172-37.822c-1.094 0-1.762.211-2.008.438-1.68 1.57 1.555 11.791 10.219 21.092 6.758 7.248 15.152 9.939 17.852 7.416 2.703-2.521.605-11.076-6.152-18.322 0-.002 0-.002 0-.002-3.531-3.791-8.598-7.215-13.551-9.16-2.833-1.113-4.95-1.462-6.36-1.462z" fill="#4c241d"/></g><g><path d="m86.959 159.014c8.974-7.855 15.603-22.246 11.239-27.232s-18.069 1.322-27.043 9.178c-8.974 7.855-12.711 18.265-8.347 23.25 4.364 4.986 15.177 2.66 24.151-5.196z" fill="#fff"/><path d="m69.516 170.842c-4.047 0-7.41-1.363-9.715-3.996-3.113-3.555-3.676-8.717-1.586-14.535 1.805-5.021 5.465-10.121 10.309-14.359 4.898-4.289 11.055-8.078 16.461-10.135 9.352-3.553 13.98-1.23 16.227 1.332 3.129 3.578 3.148 9.527.047 16.752-2.551 5.934-6.91 11.961-11.664 16.123-4.844 4.238-10.383 7.191-15.598 8.314-1.567.336-3.063.504-4.481.504zm23.957-36.828c-1.219 0-3.082.307-5.645 1.281-4.566 1.736-9.816 4.979-14.035 8.676-3.785 3.309-6.719 7.334-8.047 11.041-1.035 2.879-1.008 5.332.074 6.564 1.078 1.232 3.496 1.582 6.492.941 3.852-.83 8.23-3.203 12.008-6.514h.004c3.898-3.414 7.48-8.371 9.582-13.26 2.129-4.965 1.785-7.754 1.285-8.326-.183-.208-.746-.403-1.718-.403z" fill="#4c241d"/></g><g><path d="m139.517 108.076c-8.132 8.724-22.724 14.9-27.57 10.382s1.887-18.019 10.02-26.743 18.654-12.133 23.5-7.615 2.183 15.252-5.95 23.976z" fill="#fff"/><path d="m116.727 124.008c-2.93 0-5.535-.787-7.508-2.625-7.938-7.402 1.809-23.799 9.82-32.395 9.785-10.494 22.586-13.932 29.156-7.814 6.559 6.117 4.031 19.133-5.754 29.629-6.265 6.722-17.312 13.205-25.714 13.205zm23.097-37.908c-3.812 0-9.836 2.875-14.934 8.342-8.664 9.301-11.898 19.521-10.219 21.09 2.094 1.939 14.031-1.723 21.918-10.182 6.758-7.25 8.855-15.803 6.152-18.324-.667-.62-1.675-.926-2.917-.926z" fill="#4c241d"/></g><g><circle cx="105.022" cy="124" fill="#ffce56" r="11.997"/><path d="m105.023 139.996c-8.824 0-16-7.176-16-15.996s7.176-15.996 16-15.996c8.82 0 15.996 7.176 15.996 15.996s-7.175 15.996-15.996 15.996zm0-23.992c-4.41 0-8 3.588-8 7.996s3.59 7.996 8 7.996 7.996-3.588 7.996-7.996-3.585-7.996-7.996-7.996z" fill="#4c241d"/></g><g fill="#4c241d"><circle cx="114.111" cy="252.927" r="4.276"/><circle cx="82.111" cy="256.927" r="4.276"/><circle cx="154.111" cy="256.927" r="4.276"/><circle cx="182.111" cy="248.927" r="4.276"/><circle cx="206.111" cy="256.927" r="4.276"/><circle cx="238.111" cy="248.927" r="4.276"/></g></g></svg>