<svg id="gloves" enable-background="new 0 0 300 300" height="512" viewBox="0 0 300 300" width="512" xmlns="http://www.w3.org/2000/svg"><g><circle cx="161.551" cy="155.469" fill="#eaeaea" r="86"/><g fill="#4c241d"><path d="m249.208 139.125c-1.023 0-2.047-.391-2.828-1.172l-11.312-11.312c-1.562-1.562-1.562-4.094 0-5.656s4.094-1.562 5.656 0l11.312 11.312c1.562 1.562 1.562 4.094 0 5.656-.781.781-1.805 1.172-2.828 1.172z"/><path d="m237.895 139.125c-1.023 0-2.047-.391-2.828-1.172-1.562-1.562-1.562-4.094 0-5.656l11.312-11.312c1.562-1.562 4.094-1.562 5.656 0s1.562 4.094 0 5.656l-11.312 11.312c-.781.781-1.804 1.172-2.828 1.172z"/><circle cx="215.551" cy="173.469" r="4"/><path d="m228.122 88.158c-2.004 0-3.988-.494-5.805-1.465-2.906-1.555-5.031-4.146-5.988-7.301s-.625-6.492.93-9.398 4.148-5.033 7.301-5.988c3.152-.963 6.488-.627 9.398.928 2.906 1.555 5.031 4.146 5.988 7.301.957 3.154.625 6.492-.926 9.398-1.555 2.906-4.148 5.033-7.305 5.988-1.183.359-2.39.537-3.593.537zm.023-16.685c-.426 0-.848.062-1.266.189-1.109.336-2.02 1.084-2.566 2.105s-.664 2.195-.328 3.305c.691 2.291 3.133 3.586 5.41 2.893 1.109-.336 2.023-1.084 2.57-2.105s.66-2.195.324-3.305-1.086-2.02-2.105-2.566c-.64-.343-1.336-.516-2.039-.516z"/></g><g><path d="m188.824 112.167-.25-.15c-5.878-3.527-13.45-1.497-16.74 4.457-5.725 10.361-13.501 24.359-13.501 24.359l10.773-86.085c.578-4.614-2.031-9.036-6.348-10.763l-.248-.1c-6.244-2.498-13.178 1.291-14.426 7.857-4.381 23.057-13.232 66.064-13.232 66.064l-3.513-78.006c-.224-5.183-4.491-9.27-9.679-9.27h-.246c-5.566 0-10.042 4.455-10.042 9.975v72.935l-16.768-63.716c-1.444-5.485-7.566-8.256-12.639-5.719-3.466 1.733-5.42 5.502-4.838 9.334l10.31 67.928-19.122-35.054c-2.424-4.445-7.953-6.144-12.455-3.825-4.088 2.105-6.031 6.876-4.577 11.238l14.35 43.051c1.792 5.374 3.21 10.864 4.245 16.433l5.338 28.706c1.853 9.964 8.395 18.049 17.087 22.155v24.436h58.792v-22.112c5.925-1.453 10.96-5.568 13.421-11.346l29.042-68.191c2.286-5.363.265-11.591-4.734-14.591z" fill="#fc8c29"/><path d="m151.098 232.408h-58.793c-2.211 0-4-1.791-4-4v-22.01c-8.863-5.025-15.148-13.771-17.023-23.852l-5.336-28.705c-.996-5.373-2.379-10.723-4.105-15.898l-14.352-43.05c-2.094-6.279.66-13.033 6.539-16.061 6.492-3.334 14.309-.938 17.801 5.465l8.242 15.115-6.898-45.473c-.848-5.566 1.969-10.996 7.004-13.512 3.504-1.752 7.547-1.83 11.117-.217 3.566 1.613 6.184 4.709 7.18 8.494l8.898 33.814v-42.012c0-7.705 6.301-13.975 14.043-13.975 7.594 0 13.602 5.752 13.922 13.096l2.055 45.639c2.398-11.898 4.965-24.814 6.762-34.268.82-4.303 3.492-7.977 7.332-10.08 3.852-2.113 8.414-2.381 12.512-.746 6.25 2.502 9.883 8.66 9.078 15.076l-8.203 65.549c1.184-2.137 2.359-4.264 3.461-6.256 2.117-3.832 5.609-6.568 9.836-7.707 4.258-1.139 8.676-.518 12.465 1.754l.25.15c6.676 4.004 9.406 12.426 6.355 19.588l-29.043 68.189c-2.473 5.805-7.246 10.383-13.098 12.693v19.199c-.001 2.21-1.79 4.001-4.001 4.001zm-54.793-8h50.793v-18.113c0-1.842 1.258-3.445 3.047-3.885 4.785-1.174 8.785-4.549 10.691-9.029l29.043-68.189c1.492-3.508.156-7.633-3.113-9.594l-.004-.002-.25-.15c-1.914-1.148-4.148-1.463-6.266-.885-2.109.568-3.855 1.934-4.914 3.848-5.723 10.365-13.504 24.369-13.504 24.369-.93 1.676-2.914 2.453-4.738 1.859-1.82-.596-2.965-2.398-2.727-4.299l10.773-86.084c.352-2.809-1.238-5.502-3.863-6.553-2.133-.852-4.203-.725-5.945.234-1.738.951-2.945 2.611-3.316 4.557-4.336 22.82-13.152 65.691-13.242 66.123-.41 1.977-2.191 3.33-4.234 3.182-2.012-.16-3.59-1.793-3.68-3.809l-3.512-78.008c-.133-3.059-2.629-5.449-5.684-5.449-3.578 0-6.289 2.68-6.289 5.975v72.934c0 2.01-1.492 3.709-3.488 3.967-1.98.246-3.871-1.006-4.379-2.949l-16.765-63.716c-.383-1.443-1.383-2.625-2.742-3.242-1.367-.615-2.906-.584-4.242.084-1.922.959-2.996 3.031-2.676 5.154l10.309 67.93c.293 1.918-.836 3.77-2.676 4.391-1.836.621-3.859-.172-4.789-1.875l-19.118-35.055c-1.398-2.562-4.535-3.52-7.113-2.184-2.352 1.209-3.449 3.908-2.613 6.418l14.348 43.049c1.844 5.523 3.32 11.232 4.387 16.969l5.336 28.705c1.562 8.408 7.117 15.611 14.863 19.268 1.398.66 2.293 2.07 2.293 3.617v20.437z" fill="#4c241d"/></g><g><path d="m137.263 158.49.709-.945c4.99-6.653 13.4-11.341 20.041-16.346 3.074-2.317 6.201-10.822 6.201-10.822" fill="#edebdc"/><path d="m137.258 162.49c-.836 0-1.68-.262-2.398-.803-1.766-1.328-2.121-3.836-.793-5.602l.711-.945c4.062-5.422 9.855-9.434 15.453-13.312 1.848-1.281 3.672-2.541 5.375-3.824 1.258-.949 3.566-5.508 4.855-9.008.762-2.072 3.066-3.127 5.137-2.373 2.07.764 3.133 3.062 2.371 5.135-.828 2.254-3.824 9.828-7.551 12.635-1.785 1.344-3.691 2.668-5.633 4.012-5.074 3.516-10.324 7.152-13.613 11.539l-.715.951c-.784 1.044-1.984 1.595-3.199 1.595z" fill="#4c241d"/></g><path d="m126.887 179.783c-1.633 0-3.168-1.01-3.758-2.635l-4.379-12.041c-5.082-13.977-18.492-23.367-33.363-23.367-2.211 0-4-1.791-4-4s1.789-4 4-4c18.223 0 34.652 11.506 40.879 28.633l4.379 12.041c.758 2.076-.316 4.371-2.391 5.127-.453.164-.913.242-1.367.242z" fill="#4c241d"/><g><path d="m118.885 221.469h34.196c3.574 0 6.471 2.897 6.471 6.471v41.529h-76v-41.529c0-3.574 2.897-6.471 6.471-6.471h9.529" fill="#fc8c29"/><path d="m159.551 273.469h-76c-2.211 0-4-1.791-4-4v-41.529c0-5.773 4.699-10.471 10.473-10.471h9.527c2.211 0 4 1.791 4 4s-1.789 4-4 4h-9.527c-1.363 0-2.473 1.107-2.473 2.471v37.529h68v-37.529c0-1.363-1.109-2.471-2.473-2.471h-34.195c-2.211 0-4-1.791-4-4s1.789-4 4-4h34.195c5.773 0 10.473 4.697 10.473 10.471v41.529c0 2.209-1.789 4-4 4z" fill="#4c241d"/></g><g><circle cx="121.551" cy="245.469" fill="#ffec95" r="10"/><path d="m121.551 259.469c-7.719 0-14-6.281-14-14s6.281-14 14-14 14 6.281 14 14-6.281 14-14 14zm0-20c-3.309 0-6 2.691-6 6s2.691 6 6 6 6-2.691 6-6-2.691-6-6-6z" fill="#4c241d"/></g></g></svg>