<svg id="honey" enable-background="new 0 0 300 300" height="512" viewBox="0 0 300 300" width="512" xmlns="http://www.w3.org/2000/svg"><g><circle cx="177.558" cy="168" fill="#eaeaea" r="92"/><g fill="#4c241d"><path d="m249.558 208c-2.209 0-4-1.791-4-4v-8c0-2.209 1.791-4 4-4s4 1.791 4 4v8c0 2.209-1.791 4-4 4z"/><path d="m249.558 232c-2.209 0-4-1.791-4-4v-8c0-2.209 1.791-4 4-4s4 1.791 4 4v8c0 2.209-1.791 4-4 4z"/><path d="m241.558 216h-8c-2.209 0-4-1.791-4-4s1.791-4 4-4h8c2.209 0 4 1.791 4 4s-1.791 4-4 4z"/><path d="m265.558 216h-8c-2.209 0-4-1.791-4-4s1.791-4 4-4h8c2.209 0 4 1.791 4 4s-1.791 4-4 4z"/><path d="m67.558 92c-7.719 0-14-6.281-14-14s6.281-14 14-14 14 6.281 14 14-6.281 14-14 14zm0-20c-3.309 0-6 2.691-6 6s2.691 6 6 6 6-2.691 6-6-2.691-6-6-6z"/><circle cx="257.887" cy="170.391" r="4.276"/><circle cx="225.887" cy="154.391" r="4.276"/></g><g><path d="m234.116 40h-53.116l-26.558 46 26.558 46h53.116l26.559-46z" fill="#fc8c29"/><path d="m234.117 136h-53.117c-1.43 0-2.75-.762-3.465-2l-26.559-46c-.713-1.238-.713-2.762 0-4l26.559-46c.715-1.238 2.035-2 3.465-2h53.117c1.43 0 2.75.762 3.465 2l26.559 46c.713 1.238.713 2.762 0 4l-26.559 46c-.715 1.238-2.035 2-3.465 2zm-50.809-8h48.5l24.248-42-24.248-42h-48.5l-24.248 42z" fill="#4c241d"/></g><g><path d="m224.879 56h-34.641l-17.321 30 17.321 30h34.641l17.32-30z" fill="#ffec95"/><path d="m224.879 120h-34.641c-1.43 0-2.75-.762-3.465-2l-17.32-30c-.713-1.238-.713-2.762 0-4l17.32-30c.715-1.238 2.035-2 3.465-2h34.641c1.43 0 2.75.762 3.465 2l17.32 30c.713 1.238.713 2.762 0 4l-17.32 30c-.715 1.238-2.036 2-3.465 2zm-32.332-8h30.023l15.01-26-15.01-26h-30.023l-15.01 26z" fill="#4c241d"/></g><g><path d="m114.116 120h-53.116l-26.558 46 26.558 46h53.116l26.559-46z" fill="#fc8c29"/><path d="m114.117 216h-53.117c-1.43 0-2.75-.762-3.465-2l-26.559-46c-.713-1.238-.713-2.762 0-4l26.559-46c.715-1.238 2.035-2 3.465-2h53.117c1.43 0 2.75.762 3.465 2l26.559 46c.713 1.238.713 2.762 0 4l-26.559 46c-.715 1.238-2.035 2-3.465 2zm-50.809-8h48.5l24.248-42-24.248-42h-48.5l-24.248 42z" fill="#4c241d"/></g><g><path d="m104.879 136h-34.641l-17.321 30 17.321 30h34.641l17.32-30z" fill="#ffec95"/><path d="m104.879 200h-34.641c-1.43 0-2.75-.762-3.465-2l-17.32-30c-.713-1.238-.713-2.762 0-4l17.32-30c.715-1.238 2.035-2 3.465-2h34.641c1.43 0 2.75.762 3.465 2l17.32 30c.713 1.238.713 2.762 0 4l-17.32 30c-.715 1.238-2.036 2-3.465 2zm-32.332-8h30.023l15.01-26-15.01-26h-30.023l-15.01 26z" fill="#4c241d"/></g><g><path d="m174.116 76h-53.116l-26.558 46 26.558 46h53.116l26.559-46z" fill="#fc8c29"/><path d="m174.117 172h-53.117c-1.43 0-2.75-.762-3.465-2l-26.559-46c-.713-1.238-.713-2.762 0-4l26.559-46c.715-1.238 2.035-2 3.465-2h53.117c1.43 0 2.75.762 3.465 2l26.559 46c.713 1.238.713 2.762 0 4l-26.559 46c-.715 1.238-2.035 2-3.465 2zm-50.809-8h48.5l24.248-42-24.248-42h-48.5l-24.248 42z" fill="#4c241d"/></g><g><path d="m164.879 92h-34.641l-17.321 30 17.321 30h34.641l17.32-30z" fill="#ffec95"/><path d="m164.879 156h-34.641c-1.43 0-2.75-.762-3.465-2l-17.32-30c-.713-1.238-.713-2.762 0-4l17.32-30c.715-1.238 2.035-2 3.465-2h34.641c1.43 0 2.75.762 3.465 2l17.32 30c.713 1.238.713 2.762 0 4l-17.32 30c-.715 1.238-2.036 2-3.465 2zm-32.332-8h30.023l15.01-26-15.01-26h-30.023l-15.01 26z" fill="#4c241d"/></g><g><path d="m194.116 168h-53.116l-26.558 46 26.558 46h53.116l26.559-46z" fill="#fc8c29"/><path d="m194.117 264h-53.117c-1.43 0-2.75-.762-3.465-2l-26.559-46c-.713-1.238-.713-2.762 0-4l26.559-46c.715-1.238 2.035-2 3.465-2h53.117c1.43 0 2.75.762 3.465 2l26.559 46c.713 1.238.713 2.762 0 4l-26.559 46c-.715 1.238-2.035 2-3.465 2zm-50.809-8h48.5l24.248-42-24.248-42h-48.5l-24.248 42z" fill="#4c241d"/></g><g><path d="m184.879 184h-34.641l-17.321 30 17.321 30h34.641l17.32-30z" fill="#ffec95"/><path d="m184.879 248h-34.641c-1.43 0-2.75-.762-3.465-2l-17.32-30c-.713-1.238-.713-2.762 0-4l17.32-30c.715-1.238 2.035-2 3.465-2h34.641c1.43 0 2.75.762 3.465 2l17.32 30c.713 1.238.713 2.762 0 4l-17.32 30c-.715 1.238-2.036 2-3.465 2zm-32.332-8h30.023l15.01-26-15.01-26h-30.023l-15.01 26z" fill="#4c241d"/></g></g></svg>