<svg id="honey-candle" enable-background="new 0 0 300 300" height="512" viewBox="0 0 300 300" width="512" xmlns="http://www.w3.org/2000/svg"><g><circle cx="170" cy="126" fill="#eaeaea" r="92"/><g fill="#4c241d"><path d="m52 186c-7.719 0-14-6.281-14-14s6.281-14 14-14 14 6.281 14 14-6.281 14-14 14zm0-20c-3.309 0-6 2.691-6 6s2.691 6 6 6 6-2.691 6-6-2.691-6-6-6z"/><path d="m202 53.512c-2.211 0-4-1.791-4-4v-5.66c0-2.209 1.789-4 4-4s4 1.791 4 4v5.66c0 2.209-1.789 4-4 4z"/><path d="m202 76.148c-2.211 0-4-1.791-4-4v-5.66c0-2.209 1.789-4 4-4s4 1.791 4 4v5.66c0 2.209-1.789 4-4 4z"/><path d="m193.512 62h-5.66c-2.211 0-4-1.791-4-4s1.789-4 4-4h5.66c2.211 0 4 1.791 4 4s-1.789 4-4 4z"/><path d="m216.148 62h-5.66c-2.211 0-4-1.791-4-4s1.789-4 4-4h5.66c2.211 0 4 1.791 4 4s-1.789 4-4 4z"/><path d="m243.656 119.656c-1.023 0-2.047-.391-2.828-1.172l-11.312-11.312c-1.562-1.562-1.562-4.094 0-5.656s4.094-1.562 5.656 0l11.312 11.312c1.562 1.562 1.562 4.094 0 5.656-.781.782-1.804 1.172-2.828 1.172z"/><path d="m232.344 119.656c-1.023 0-2.047-.391-2.828-1.172-1.562-1.562-1.562-4.094 0-5.656l11.312-11.312c1.562-1.562 4.094-1.562 5.656 0s1.562 4.094 0 5.656l-11.312 11.312c-.781.782-1.805 1.172-2.828 1.172z"/><circle cx="214" cy="150" r="4"/><circle cx="78" cy="106" r="4"/><circle cx="94" cy="54" r="4"/><circle cx="42" cy="74" r="4"/></g><g><path d="m182 258h-84v-126.363c0-5.322 4.315-9.637 9.637-9.637h64.726c5.322 0 9.637 4.315 9.637 9.637z" fill="#ffce56"/><path d="m182 262h-84c-2.211 0-4-1.791-4-4v-126.363c0-7.52 6.117-13.637 13.637-13.637h64.727c7.52 0 13.637 6.117 13.637 13.637v126.363c-.001 2.209-1.79 4-4.001 4zm-80-8h76v-122.363c0-3.107-2.527-5.637-5.637-5.637h-64.727c-3.109 0-5.637 2.529-5.637 5.637v122.363z" fill="#4c241d"/></g><path d="m169.996 166c-.566 0-1.141-.119-1.688-.375l-60-28c-2.004-.934-2.867-3.314-1.934-5.316s3.316-2.865 5.316-1.934l60 28c2.004.934 2.867 3.314 1.934 5.316-.679 1.455-2.12 2.309-3.628 2.309z" fill="#fc8c29"/><path d="m110.004 166c-1.508 0-2.949-.854-3.629-2.309-.934-2.002-.07-4.383 1.934-5.316l60-28c2.004-.936 4.383-.068 5.316 1.934s.07 4.383-1.934 5.316l-60 28c-.546.256-1.121.375-1.687.375z" fill="#fc8c29"/><path d="m169.996 194c-.566 0-1.141-.119-1.688-.375l-60-28c-2.004-.934-2.867-3.314-1.934-5.316.934-2 3.316-2.869 5.316-1.934l60 28c2.004.934 2.867 3.314 1.934 5.316-.679 1.455-2.12 2.309-3.628 2.309z" fill="#fc8c29"/><path d="m110.004 194c-1.508 0-2.949-.854-3.629-2.309-.934-2.002-.07-4.383 1.934-5.316l60-28c2.004-.939 4.383-.068 5.316 1.934s.07 4.383-1.934 5.316l-60 28c-.546.256-1.121.375-1.687.375z" fill="#fc8c29"/><path d="m169.996 222c-.566 0-1.141-.119-1.688-.375l-60-28c-2.004-.934-2.867-3.314-1.934-5.316.934-2 3.316-2.867 5.316-1.934l60 28c2.004.934 2.867 3.314 1.934 5.316-.679 1.455-2.12 2.309-3.628 2.309z" fill="#fc8c29"/><path d="m110.004 222c-1.508 0-2.949-.854-3.629-2.309-.934-2.002-.07-4.383 1.934-5.316l60-28c2.004-.938 4.383-.07 5.316 1.934.934 2.002.07 4.383-1.934 5.316l-60 28c-.546.256-1.121.375-1.687.375z" fill="#fc8c29"/><path d="m169.996 250c-.566 0-1.141-.119-1.688-.375l-60-28c-2.004-.934-2.867-3.314-1.934-5.316s3.316-2.865 5.316-1.934l60 28c2.004.934 2.867 3.314 1.934 5.316-.679 1.455-2.12 2.309-3.628 2.309z" fill="#fc8c29"/><path d="m110.004 250c-1.508 0-2.949-.854-3.629-2.309-.934-2.002-.07-4.383 1.934-5.316l60-28c2.004-.936 4.383-.068 5.316 1.934s.07 4.383-1.934 5.316l-60 28c-.546.256-1.121.375-1.687.375z" fill="#fc8c29"/><g><path d="m194 274h-108l-8-16h124z" fill="#b5a19c"/><path d="m194 278h-108c-1.516 0-2.898-.855-3.578-2.211l-8-16c-.621-1.24-.555-2.713.176-3.893.73-1.177 2.015-1.896 3.402-1.896h124c1.387 0 2.672.719 3.402 1.896.73 1.18.797 2.652.176 3.893l-8 16c-.68 1.356-2.062 2.211-3.578 2.211zm-105.527-8h103.055l4-8h-111.055z" fill="#4c241d"/></g><g><path d="m169.694 83.709c0 12.832-12.751 23.234-28.48 23.234s-28.48-10.402-28.48-23.234c0-5.49 2.334-10.535 6.236-14.511 1.97-2.007 3.383-4.558 3.542-7.367.171-3.019-.783-6.602-5.281-8.851 0 0 2.998-10.493 14.989-2.998 0 0-.239-.43-.555-1.197-4.479-10.87 3.738-22.785 15.497-22.785h6.044s-13.534 9.046-4.497 16.488c25.482 20.986 20.985 41.221 20.985 41.221z" fill="#ffce56"/><path d="m141.215 110.943c-17.91 0-32.48-12.217-32.48-27.234 0-6.316 2.621-12.465 7.379-17.312 1.461-1.486 2.316-3.188 2.406-4.787.137-2.396-.785-3.904-3.078-5.051-1.723-.861-2.586-2.826-2.059-4.678.172-.592 1.809-5.842 7.066-7.861 1.859-.717 3.859-.914 6.008-.596-.176-4.26 1-8.535 3.457-12.203 3.863-5.774 10.313-9.221 17.246-9.221h6.047c1.762 0 3.316 1.152 3.828 2.838.512 1.688-.141 3.508-1.605 4.488-1.844 1.244-5.703 4.682-5.828 7.324-.02.367-.062 1.34 1.648 2.75 25.203 20.752 23.027 41.225 22.441 44.691-.246 14.843-14.718 26.852-32.476 26.852zm-18.594-59.066c2.758 2.594 4.117 6.096 3.883 10.182-.199 3.588-1.816 7.029-4.684 9.943-3.328 3.391-5.086 7.439-5.086 11.707 0 10.605 10.98 19.234 24.48 19.234s24.48-8.629 24.48-19.234c0-.283.031-.564.09-.84.164-.822 3.371-18.361-19.621-37.293-3.984-3.281-4.676-6.885-4.551-9.33.102-2.053.805-3.969 1.789-5.68-2.762.852-5.188 2.633-6.844 5.105-2.348 3.508-2.785 7.734-1.195 11.592.184.449.328.732.367.803.855 1.598.539 3.584-.785 4.824-1.32 1.238-3.305 1.449-4.848.484-2.84-1.781-5.234-2.451-6.742-1.902-.268.1-.514.241-.733.405z" fill="#4c241d"/></g><g><path d="m124.882 91.357c-.13 1.063-.208 2.137-.102 3.202.688 6.933 7.783 12.384 16.434 12.384 9.106 0 14.989-5.996 16.488-13.49 1.499-7.495-1.499-22.484-16.488-32.977 0 0 5.624 13.168-5.996 16.488-7.909 2.26-9.856 10.481-10.336 14.393z" fill="#fc8c29"/><path d="m141.215 110.943c-10.734 0-19.512-6.875-20.414-15.99-.152-1.543-.02-2.988.109-4.078.004-.002.004-.004.004-.006 1.129-9.205 5.941-15.676 13.207-17.75 1.957-.561 3.223-1.48 3.863-2.812 1.316-2.732.117-6.898-.453-8.275-.688-1.643-.207-3.547 1.18-4.662 1.391-1.121 3.34-1.189 4.797-.17 17.711 12.398 19.598 29.65 18.117 37.039-2.031 10.148-10.043 16.704-20.41 16.704zm-12.36-19.103c-.086.68-.168 1.561-.094 2.324.488 4.924 5.957 8.779 12.453 8.779 7.75 0 11.57-5.309 12.566-10.275 1.016-5.078-.5-14.129-7.484-22.275-.211 1.117-.559 2.242-1.078 3.336-1.141 2.396-3.613 5.572-8.902 7.082-5.504 1.574-7.039 7.582-7.461 11.029z" fill="#4c241d"/></g><path d="m142 126c-2.211 0-4-1.791-4-4v-12c0-2.209 1.789-4 4-4s4 1.791 4 4v12c0 2.209-1.789 4-4 4z" fill="#4c241d"/></g></svg>