<svg id="honey-deposit" enable-background="new 0 0 300 300" height="512" viewBox="0 0 300 300" width="512" xmlns="http://www.w3.org/2000/svg"><g><circle cx="116" cy="123.001" fill="#eaeaea" r="86"/><g fill="#4c241d"><path d="m255.656 62.657c-1.023 0-2.047-.391-2.828-1.172l-11.312-11.312c-1.562-1.562-1.562-4.094 0-5.656s4.094-1.562 5.656 0l11.312 11.312c1.562 1.562 1.562 4.094 0 5.656-.781.781-1.804 1.172-2.828 1.172z"/><path d="m244.344 62.657c-1.023 0-2.047-.391-2.828-1.172-1.562-1.562-1.562-4.094 0-5.656l11.312-11.312c1.562-1.562 4.094-1.562 5.656 0s1.562 4.094 0 5.656l-11.312 11.312c-.781.781-1.805 1.172-2.828 1.172z"/><circle cx="42" cy="61.001" r="4"/><circle cx="62" cy="161.001" r="4"/><path d="m86.57 59.69c-2.004 0-3.988-.494-5.805-1.465-2.906-1.555-5.031-4.146-5.988-7.301s-.625-6.492.93-9.398 4.148-5.033 7.301-5.988c3.152-.959 6.492-.629 9.398.928 2.906 1.555 5.031 4.146 5.988 7.301.957 3.154.625 6.492-.926 9.398-1.555 2.906-4.148 5.033-7.305 5.988-1.183.359-2.39.537-3.593.537zm.024-16.685c-.426 0-.848.062-1.266.189-1.109.336-2.02 1.084-2.566 2.105s-.664 2.195-.328 3.305c.691 2.291 3.129 3.586 5.41 2.893 1.109-.336 2.023-1.084 2.57-2.105s.66-2.195.324-3.305-1.086-2.02-2.105-2.566c-.641-.343-1.336-.516-2.039-.516z"/></g><g><path d="m82 101.001h148v160h-148z" fill="#6b4f5b"/><path d="m230 265.001h-148c-2.211 0-4-1.791-4-4v-160c0-2.209 1.789-4 4-4h148c2.211 0 4 1.791 4 4v160c0 2.209-1.789 4-4 4zm-144-8h140v-152h-140z" fill="#4c241d"/></g><g><path d="m182.429 245.001h-52.859c-17.435 0-31.57-14.135-31.57-31.571v-112.429h116v112.429c0 17.436-14.135 31.571-31.571 31.571z" fill="#bf7e68"/><path d="m182.43 249.001h-52.86c-19.613 0-35.57-15.957-35.57-35.57v-112.43c0-2.209 1.789-4 4-4h116c2.211 0 4 1.791 4 4v112.43c0 19.613-15.957 35.57-35.57 35.57zm-80.43-144v108.43c0 15.203 12.367 27.57 27.57 27.57h52.859c15.203 0 27.57-12.367 27.57-27.57v-108.43z" fill="#4c241d"/></g><g><path d="m230 101.001h-152c-6.627 0-12-5.373-12-12 0-6.627 5.373-12 12-12h152c6.627 0 12 5.373 12 12 0 6.627-5.373 12-12 12z" fill="#fc8c29"/><path d="m230 105.001h-152c-8.824 0-16-7.178-16-16s7.176-16 16-16h152c8.824 0 16 7.178 16 16s-7.176 16-16 16zm-152-24c-4.41 0-8 3.588-8 8s3.59 8 8 8h152c4.41 0 8-3.588 8-8s-3.59-8-8-8z" fill="#4c241d"/></g><path d="m194 81.001h-80c-2.211 0-4-1.791-4-4v-24c0-2.209 1.789-4 4-4h80c2.211 0 4 1.791 4 4v24c0 2.209-1.789 4-4 4zm-76-8h72v-16h-72z" fill="#4c241d"/><path d="m266 265.001h-36c-2.211 0-4-1.791-4-4s1.789-4 4-4h36c2.211 0 4 1.791 4 4s-1.789 4-4 4z" fill="#4c241d"/><path d="m70 265.001h-28c-2.211 0-4-1.791-4-4s1.789-4 4-4h28c2.211 0 4 1.791 4 4s-1.789 4-4 4z" fill="#4c241d"/><g><path d="m214 101.001h-116v32 4 45.43c0 5.231 3.764 9.998 8.969 10.519 5.986.599 11.031-4.086 11.031-9.948v-20.045c1.631 1.233 3.629 2.003 5.82 2.044 5.603.102 10.18-5.098 10.18-10.702v-17.297h24v25.43c0 5.231 3.764 9.998 8.969 10.519 5.986.599 11.031-4.086 11.031-9.948v-26h23.005c7.177 0 12.995-5.818 12.995-12.995z" fill="#ffce56"/><path d="m107.969 197.001c-.465 0-.93-.023-1.398-.07-7.051-.708-12.571-7.077-12.571-14.501v-81.43c0-2.209 1.789-4 4-4h116c2.211 0 4 1.791 4 4v23.004c0 9.371-7.625 16.996-16.996 16.996h-19.004v22c0 3.947-1.68 7.73-4.609 10.381-2.926 2.648-6.852 3.932-10.82 3.549-7.051-.707-12.57-7.076-12.57-14.5v-21.43h-16v13.297c0 3.973-1.656 7.877-4.543 10.711-2.688 2.637-5.98 3.934-9.711 3.99-.586-.012-1.172-.059-1.746-.143v14.145c0 3.947-1.68 7.73-4.609 10.381-2.58 2.336-5.951 3.62-9.423 3.62zm-5.969-92v77.43c0 3.365 2.359 6.238 5.367 6.539 1.707.176 3.379-.365 4.656-1.518 1.273-1.154 1.977-2.734 1.977-4.451v-20.045c0-1.518.859-2.906 2.219-3.582 1.355-.676 2.988-.527 4.195.393.723.547 1.914 1.205 3.477 1.232 1.367.064 2.82-.574 3.961-1.699 1.344-1.32 2.148-3.189 2.148-5.002v-17.297c0-2.209 1.789-4 4-4h24c2.211 0 4 1.791 4 4v25.43c0 3.365 2.359 6.238 5.367 6.539 1.703.166 3.379-.365 4.656-1.518 1.273-1.154 1.977-2.734 1.977-4.451v-26c0-2.209 1.789-4 4-4h23.004c4.961 0 8.996-4.035 8.996-8.996v-19.004z" fill="#4c241d"/></g><path d="m134 141.001c-2.211 0-4-1.791-4-4v-16c0-2.209 1.789-4 4-4s4 1.791 4 4v16c0 2.209-1.789 4-4 4z" fill="#4c241d"/><circle cx="198" cy="221.001" fill="#4c241d" r="4"/><circle cx="186" cy="213.001" fill="#4c241d" r="4"/><circle cx="182" cy="229.001" fill="#4c241d" r="4"/></g></svg>