<svg id="honey-dipper" enable-background="new 0 0 300 300" height="512" viewBox="0 0 300 300" width="512" xmlns="http://www.w3.org/2000/svg"><g><circle cx="41.005" cy="152.927" fill="#4c241d" r="4.276"/><circle cx="144" cy="140" fill="#eaeaea" r="92"/><g fill="#4c241d"><path d="m164 144c-2.209 0-4-1.791-4-4v-8c0-2.209 1.791-4 4-4s4 1.791 4 4v8c0 2.209-1.791 4-4 4z"/><path d="m164 168c-2.209 0-4-1.791-4-4v-8c0-2.209 1.791-4 4-4s4 1.791 4 4v8c0 2.209-1.791 4-4 4z"/><path d="m156 152h-8c-2.209 0-4-1.791-4-4s1.791-4 4-4h8c2.209 0 4 1.791 4 4s-1.791 4-4 4z"/><path d="m180 152h-8c-2.209 0-4-1.791-4-4s1.791-4 4-4h8c2.209 0 4 1.791 4 4s-1.791 4-4 4z"/><path d="m226 172c-7.719 0-14-6.281-14-14s6.281-14 14-14 14 6.281 14 14-6.281 14-14 14zm0-20c-3.309 0-6 2.691-6 6s2.691 6 6 6 6-2.691 6-6-2.691-6-6-6z"/><circle cx="245.005" cy="208.927" r="4.276"/><circle cx="201.005" cy="68.927" r="4.276"/></g><g><path d="m140 264h-56c-4.418 0-8-3.582-8-8 0-4.418 3.582-8 8-8h56c4.418 0 8 3.582 8 8 0 4.418-3.582 8-8 8z" fill="#ffce56"/><path d="m140 268h-56c-6.617 0-12-5.383-12-12s5.383-12 12-12h56c6.617 0 12 5.383 12 12s-5.383 12-12 12zm-56-16c-2.205 0-4 1.795-4 4s1.795 4 4 4h56c2.205 0 4-1.795 4-4s-1.795-4-4-4z" fill="#4c241d"/></g><g><path d="m132 248h-40c-4.418 0-8-3.582-8-8 0-4.418 3.582-8 8-8h40c4.418 0 8 3.582 8 8 0 4.418-3.582 8-8 8z" fill="#ffce56"/><path d="m132 252h-40c-6.617 0-12-5.383-12-12s5.383-12 12-12h40c6.617 0 12 5.383 12 12s-5.383 12-12 12zm-40-16c-2.205 0-4 1.795-4 4s1.795 4 4 4h40c2.205 0 4-1.795 4-4s-1.795-4-4-4z" fill="#4c241d"/></g><g><path d="m120 216c0 4.418 8 3.582 8 8 0 4.418-3.582 8-8 8h-16c-4.418 0-8-3.582-8-8 0-4.418 3.582-8 8-8 0 0 4-12-4-16 0 0 20 4 20 16z" fill="#ffce56"/><path d="m120 236h-16c-6.617 0-12-5.383-12-12 0-5.482 3.695-10.117 8.725-11.545.471-2.775.672-7.285-2.514-8.877-1.793-.896-2.645-2.98-1.994-4.877.65-1.893 2.607-3.004 4.568-2.623.938.188 22.768 4.723 23.209 19.469.404.248 1.127.572 1.641.803 2.225.996 6.365 2.85 6.365 7.65 0 6.617-5.383 12-12 12zm-11.064-28.527c.363 3.598-.283 7.219-1.141 9.793-.545 1.632-2.072 2.734-3.795 2.734-2.205 0-4 1.795-4 4s1.795 4 4 4h16c2.059 0 3.758-1.562 3.977-3.564-.41-.248-1.109-.561-1.611-.785-2.225-.996-6.365-2.85-6.365-7.65-.001-3.638-3.284-6.493-7.065-8.528zm15.314 17.16h.041zm-.25-8.633h.039z" fill="#4c241d"/></g><g><path d="m260 102c0 3.314-2.686 6-6 6h-122v-12h122c3.314 0 6 2.686 6 6z" fill="#bf7e68"/><path d="m254 112h-122c-2.209 0-4-1.791-4-4v-12c0-2.209 1.791-4 4-4h122c5.514 0 10 4.486 10 10s-4.486 10-10 10zm-118-8h118c1.104 0 2-.896 2-2s-.896-2-2-2h-118z" fill="#4c241d"/></g><g><path d="m108 112v16h-12v46c0 3.314 2.686 6 6 6h4c3.314 0 6-2.686 6-6v-10.367c.628.223 1.295.367 2 .367h4c3.314 0 6-2.686 6-6v-46z" fill="#ffce56"/><path d="m106 184h-4c-5.514 0-10-4.486-10-10v-46c0-2.209 1.791-4 4-4h8v-12c0-2.209 1.791-4 4-4h16c2.209 0 4 1.791 4 4v46c0 5.514-4.486 10-10 10h-2v6c0 5.514-4.486 10-10 10zm-6-52v42c0 1.104.896 2 2 2h4c1.104 0 2-.896 2-2v-10.367c0-1.299.631-2.518 1.691-3.266 1.061-.75 2.42-.936 3.643-.506.264.094.48.139.666.139h4c1.104 0 2-.896 2-2v-42h-8v12c0 2.209-1.791 4-4 4z" fill="#4c241d"/></g><g><path d="m132 90.176v23.648c0 3.411-2.765 6.176-6.176 6.176h-9.824v-36h9.824c3.411 0 6.176 2.765 6.176 6.176z" fill="#6b4f5b"/><path d="m125.824 124h-9.824c-2.209 0-4-1.791-4-4v-36c0-2.209 1.791-4 4-4h9.824c5.612 0 10.176 4.564 10.176 10.176v23.648c0 5.612-4.564 10.176-10.176 10.176zm-5.824-8h5.824c1.199 0 2.176-.977 2.176-2.176v-23.648c0-1.199-.977-2.176-2.176-2.176h-5.824z" fill="#4c241d"/></g><g><path d="m68 90.176v23.648c0 3.411 2.765 6.176 6.176 6.176h9.824v-36h-9.824c-3.411 0-6.176 2.765-6.176 6.176z" fill="#bf7e68"/><path d="m84 124h-9.824c-5.612 0-10.176-4.564-10.176-10.176v-23.648c0-5.612 4.564-10.176 10.176-10.176h9.824c2.209 0 4 1.791 4 4v36c0 2.209-1.791 4-4 4zm-9.824-36c-1.199 0-2.176.977-2.176 2.176v23.648c0 1.199.977 2.176 2.176 2.176h5.824v-28z" fill="#4c241d"/></g><g><path d="m116 84v36c0 4.418-3.582 8-8 8-4.418 0-8-3.582-8-8v-36c0-4.418 3.582-8 8-8 4.418 0 8 3.582 8 8z" fill="#bf7e68"/><path d="m108 132c-6.617 0-12-5.383-12-12v-36c0-6.617 5.383-12 12-12s12 5.383 12 12v36c0 6.617-5.383 12-12 12zm0-52c-2.205 0-4 1.795-4 4v36c0 2.205 1.795 4 4 4s4-1.795 4-4v-36c0-2.205-1.795-4-4-4z" fill="#4c241d"/></g><g><path d="m100 84v36c0 4.418-3.582 8-8 8-4.418 0-8-3.582-8-8v-36c0-4.418 3.582-8 8-8 4.418 0 8 3.582 8 8z" fill="#6b4f5b"/><path d="m92 132c-6.617 0-12-5.383-12-12v-36c0-6.617 5.383-12 12-12s12 5.383 12 12v36c0 6.617-5.383 12-12 12zm0-52c-2.205 0-4 1.795-4 4v36c0 2.205 1.795 4 4 4s4-1.795 4-4v-36c0-2.205-1.795-4-4-4z" fill="#4c241d"/></g><path d="m200 268h-68c-2.209 0-4-1.791-4-4s1.791-4 4-4h68c2.209 0 4 1.791 4 4s-1.791 4-4 4z" fill="#4c241d"/><path d="m64 268h-24c-2.209 0-4-1.791-4-4s1.791-4 4-4h24c2.209 0 4 1.791 4 4s-1.791 4-4 4z" fill="#4c241d"/><path d="m104 60c-2.209 0-4-1.791-4-4v-20c0-2.209 1.791-4 4-4s4 1.791 4 4v20c0 2.209-1.791 4-4 4z" fill="#4c241d"/><path d="m120 64c-1.023 0-2.047-.391-2.828-1.172-1.562-1.562-1.562-4.094 0-5.656l14-14c1.562-1.562 4.094-1.562 5.656 0s1.562 4.094 0 5.656l-14 14c-.781.781-1.805 1.172-2.828 1.172z" fill="#4c241d"/><path d="m90 64c-1.023 0-2.047-.391-2.828-1.172l-14-14c-1.562-1.562-1.562-4.094 0-5.656s4.094-1.562 5.656 0l14 14c1.562 1.562 1.562 4.094 0 5.656-.781.781-1.805 1.172-2.828 1.172z" fill="#4c241d"/></g></svg>