<svg id="honey-drop" enable-background="new 0 0 300 300" height="512" viewBox="0 0 300 300" width="512" xmlns="http://www.w3.org/2000/svg"><g><circle cx="174" cy="132.435" fill="#eaeaea" r="92"/><g fill="#4c241d"><path d="m48 148.435c-7.719 0-14-6.281-14-14s6.281-14 14-14 14 6.281 14 14-6.281 14-14 14zm0-20c-3.309 0-6 2.691-6 6s2.691 6 6 6 6-2.691 6-6-2.691-6-6-6z"/><path d="m234 100.435c-2.209 0-4-1.791-4-4v-8c0-2.209 1.791-4 4-4s4 1.791 4 4v8c0 2.209-1.791 4-4 4z"/><path d="m234 124.435c-2.209 0-4-1.791-4-4v-8c0-2.209 1.791-4 4-4s4 1.791 4 4v8c0 2.209-1.791 4-4 4z"/><path d="m226 108.435h-8c-2.209 0-4-1.791-4-4s1.791-4 4-4h8c2.209 0 4 1.791 4 4s-1.791 4-4 4z"/><path d="m250 108.435h-8c-2.209 0-4-1.791-4-4s1.791-4 4-4h8c2.209 0 4 1.791 4 4s-1.791 4-4 4z"/><circle cx="242.328" cy="62.826" r="4.276"/></g><g><path d="m226 182.915c0-42.813-52-126.48-78-126.48s-78 83.667-78 126.48 34.922 77.52 78 77.52 78-34.707 78-77.52z" fill="#ffce56"/><path d="m148 264.435c-45.215 0-82-36.57-82-81.52 0-45.119 53.645-130.48 82-130.48s82 85.361 82 130.48c0 44.949-36.785 81.52-82 81.52zm0-204c-22.113 0-74 79.094-74 122.48 0 40.539 33.195 73.52 74 73.52s74-32.98 74-73.52c0-43.387-51.887-122.48-74-122.48z" fill="#4c241d"/></g><path d="m206 180.595c0-35.258-48-104.16-58.88-104.16-13.12 0-58.88 68.902-58.88 104.16s26.361 63.84 58.88 63.84 58.88-28.583 58.88-63.84z" fill="#ffec95"/><g><path d="m165.321 136.435h-34.642l-17.32 30 17.32 30h34.642l17.32-30z" fill="#fc8c29"/><path d="m165.32 200.435h-34.64c-1.43 0-2.75-.762-3.465-2l-17.32-30c-.713-1.238-.713-2.762 0-4l17.32-30c.715-1.238 2.035-2 3.465-2h34.641c1.43 0 2.75.762 3.465 2l17.32 30c.713 1.238.713 2.762 0 4l-17.32 30c-.716 1.238-2.036 2-3.466 2zm-32.332-8h30.023l15.01-26-15.01-26h-30.023l-15.01 26z" fill="#4c241d"/></g><circle cx="106" cy="220.435" fill="#ffce56" r="12"/><circle cx="166" cy="88.435" fill="#fff" r="8"/><path d="m129.996 168.435c-.6 0-1.211-.135-1.785-.422-1.977-.988-2.777-3.391-1.789-5.367l8-16c.986-1.975 3.385-2.777 5.367-1.789 1.977.988 2.777 3.391 1.789 5.367l-8 16c-.701 1.402-2.113 2.211-3.582 2.211z" fill="#fff"/><path d="m192.293 55.358c-1.023 0-2.047-.391-2.828-1.172-1.562-1.561-1.562-4.094 0-5.656l11.791-11.793c1.562-1.562 4.094-1.562 5.656 0 1.562 1.561 1.562 4.094 0 5.656l-11.791 11.793c-.781.782-1.805 1.172-2.828 1.172z" fill="#4c241d"/><path d="m204.084 55.358c-1.023 0-2.047-.391-2.828-1.172l-11.791-11.793c-1.562-1.562-1.562-4.096 0-5.656 1.562-1.562 4.094-1.562 5.656 0l11.791 11.793c1.562 1.562 1.562 4.096 0 5.656-.781.782-1.805 1.172-2.828 1.172z" fill="#4c241d"/></g></svg>