<svg id="honey-jar" enable-background="new 0 0 300 300" height="512" viewBox="0 0 300 300" width="512" xmlns="http://www.w3.org/2000/svg"><g><circle cx="152.408" cy="140" fill="#eaeaea" r="92"/><path d="m208.408 72c-2.211 0-4-1.791-4-4v-8c0-2.209 1.789-4 4-4s4 1.791 4 4v8c0 2.209-1.789 4-4 4z" fill="#4c241d"/><path d="m208.408 96c-2.211 0-4-1.791-4-4v-8c0-2.209 1.789-4 4-4s4 1.791 4 4v8c0 2.209-1.789 4-4 4z" fill="#4c241d"/><path d="m200.408 80h-8c-2.211 0-4-1.791-4-4s1.789-4 4-4h8c2.211 0 4 1.791 4 4s-1.789 4-4 4z" fill="#4c241d"/><path d="m224.408 80h-8c-2.211 0-4-1.791-4-4s1.789-4 4-4h8c2.211 0 4 1.791 4 4s-1.789 4-4 4z" fill="#4c241d"/><path d="m146.408 60c-7.719 0-14-6.281-14-14s6.281-14 14-14 14 6.281 14 14-6.281 14-14 14zm0-20c-3.309 0-6 2.691-6 6s2.691 6 6 6 6-2.691 6-6-2.691-6-6-6z" fill="#4c241d"/><circle cx="229.414" cy="128.927" fill="#4c241d" r="4.276"/><g><path d="m208.408 184c0 4.418 8 3.582 8 8 0 4.418-3.582 8-8 8h-16c-4.418 0-8-3.582-8-8 0-4.418 3.582-8 8-8 0 0 4-12-4-16 0 0 20 4 20 16z" fill="#ffce56"/><path d="m208.408 204h-16c-6.617 0-12-5.383-12-12 0-5.482 3.695-10.117 8.727-11.545.469-2.775.668-7.285-2.516-8.877-1.793-.896-2.645-2.98-1.996-4.877.652-1.898 2.609-3.018 4.57-2.623.938.188 22.77 4.723 23.207 19.469.406.248 1.129.572 1.641.803 2.227.996 6.367 2.85 6.367 7.65 0 6.617-5.383 12-12 12zm-11.066-28.527c.367 3.598-.281 7.219-1.141 9.793-.543 1.633-2.07 2.734-3.793 2.734-2.207 0-4 1.795-4 4s1.793 4 4 4h16c2.059 0 3.758-1.562 3.977-3.564-.41-.248-1.109-.561-1.609-.785-2.227-.996-6.367-2.85-6.367-7.65-.001-3.638-3.282-6.493-7.067-8.528zm15.316 17.16h.039zm-.25-8.633h.039z" fill="#4c241d"/></g><g><path d="m148.408 124h-104c-6.627 0-12-5.373-12-12 0-6.627 5.373-12 12-12h104c6.627 0 12 5.373 12 12 0 6.627-5.372 12-12 12z" fill="#fc8c29"/><path d="m148.408 128h-104c-8.822 0-16-7.178-16-16s7.178-16 16-16h104c8.824 0 16 7.178 16 16s-7.176 16-16 16zm-104-24c-4.412 0-8 3.588-8 8s3.588 8 8 8h104c4.41 0 8-3.588 8-8s-3.59-8-8-8z" fill="#4c241d"/></g><g fill="#4c241d"><path d="m48.408 124c-2.209 0-4-1.791-4-4v-16c0-2.209 1.791-4 4-4s4 1.791 4 4v16c0 2.209-1.791 4-4 4z"/><path d="m64.408 124c-2.209 0-4-1.791-4-4v-16c0-2.209 1.791-4 4-4s4 1.791 4 4v16c0 2.209-1.791 4-4 4z"/><path d="m80.408 124c-2.209 0-4-1.791-4-4v-16c0-2.209 1.791-4 4-4s4 1.791 4 4v16c0 2.209-1.791 4-4 4z"/><path d="m96.408 124c-2.209 0-4-1.791-4-4v-16c0-2.209 1.791-4 4-4s4 1.791 4 4v16c0 2.209-1.791 4-4 4z"/><path d="m112.408 124c-2.209 0-4-1.791-4-4v-16c0-2.209 1.791-4 4-4s4 1.791 4 4v16c0 2.209-1.791 4-4 4z"/><path d="m128.408 124c-2.209 0-4-1.791-4-4v-16c0-2.209 1.791-4 4-4s4 1.791 4 4v16c0 2.209-1.791 4-4 4z"/><path d="m144.408 124c-2.211 0-4-1.791-4-4v-16c0-2.209 1.789-4 4-4s4 1.791 4 4v16c0 2.209-1.789 4-4 4z"/></g><g><path d="m128.408 84h-64c-8.837 0-16 7.163-16 16h96c0-8.837-7.163-16-16-16z" fill="#bf7e68"/><path d="m144.408 104h-96c-2.209 0-4-1.791-4-4 0-11.027 8.973-20 20-20h64c11.027 0 20 8.973 20 20 0 2.209-1.789 4-4 4zm-91.314-8h86.631c-1.652-4.656-6.102-8-11.316-8h-64c-5.216 0-9.665 3.344-11.315 8z" fill="#4c241d"/></g><g><path d="m144.408 137.18v-13.18h-96v13.18c-11.564 3.452-20 14.156-20 26.842v71.956c0 15.476 12.546 28.022 28.022 28.022h79.956c15.476 0 28.022-12.546 28.022-28.022v-71.956c0-12.686-8.435-23.39-20-26.842z" fill="#ffce56"/><path d="m136.387 268h-79.957c-17.656 0-32.021-14.365-32.021-32.021v-71.957c0-13.027 8.088-24.826 20-29.67v-10.352c0-2.209 1.791-4 4-4h96c2.211 0 4 1.791 4 4v10.352c11.91 4.846 20 16.643 20 29.67v71.957c-.001 17.656-14.364 32.021-32.022 32.021zm-83.979-140v9.18c0 1.768-1.162 3.328-2.855 3.832-10.096 3.014-17.145 12.475-17.145 23.01v71.957c0 13.246 10.776 24.021 24.022 24.021h79.957c13.244 0 24.021-10.775 24.021-24.021v-71.957c0-10.535-7.051-19.996-17.145-23.01-1.695-.506-2.855-2.064-2.855-3.832v-9.18z" fill="#4c241d"/></g><g><path d="m89.867 188h-21.083l-10.542 18 10.542 18h21.083l10.541-18z" fill="#e66353"/><path d="m89.867 228h-21.084c-1.42 0-2.734-.754-3.451-1.979l-10.541-18c-.732-1.248-.732-2.795 0-4.043l10.541-18c.717-1.225 2.031-1.979 3.451-1.979h21.084c1.42 0 2.734.754 3.451 1.979l10.541 18c.732 1.248.732 2.795 0 4.043l-10.541 18c-.716 1.225-2.031 1.979-3.451 1.979zm-18.791-8h16.498l8.199-14-8.199-14h-16.498l-8.199 14z" fill="#4c241d"/></g><g><path d="m121.867 168h-21.083l-10.542 18 10.542 18h21.083l10.541-18z" fill="#e66353"/><path d="m121.867 208h-21.084c-1.42 0-2.734-.754-3.451-1.979l-10.541-18c-.732-1.248-.732-2.795 0-4.043l10.541-18c.717-1.225 2.031-1.979 3.451-1.979h21.084c1.42 0 2.734.754 3.451 1.979l10.541 18c.732 1.248.732 2.795 0 4.043l-10.541 18c-.716 1.225-2.031 1.979-3.451 1.979zm-18.791-8h16.498l8.199-14-8.199-14h-16.498l-8.199 14z" fill="#4c241d"/></g><g><path d="m129.226 216c5.003 27.128 34.919 48 71.182 48s66.179-20.872 71.182-48z" fill="#efefd2"/><path d="m200.408 268c-37.434 0-69.727-22.043-75.115-51.275-.215-1.168.1-2.371.859-3.283.76-.914 1.887-1.441 3.074-1.441h142.365c1.188 0 2.312.527 3.074 1.441.762.912 1.074 2.115.859 3.283-5.389 29.232-37.682 51.275-75.116 51.275zm-66.08-48c7.182 23.109 34.557 40 66.08 40s58.898-16.889 66.082-40z" fill="#4c241d"/></g><g><path d="m220.408 200h-40c-4.418 0-8 3.582-8 8s3.582 8 8 8h20v10c0 3.314 2.686 6 6 6s6-2.686 6-6v-10h8c4.418 0 8-3.582 8-8s-3.582-8-8-8z" fill="#ffce56"/><path d="m206.408 236c-5.516 0-10-4.486-10-10v-6h-16c-6.617 0-12-5.383-12-12s5.383-12 12-12h40c6.617 0 12 5.383 12 12s-5.383 12-12 12h-4v6c0 5.514-4.484 10-10 10zm-26-32c-2.207 0-4 1.795-4 4s1.793 4 4 4h20c2.211 0 4 1.791 4 4v10c0 1.104.898 2 2 2s2-.896 2-2v-10c0-2.209 1.789-4 4-4h8c2.207 0 4-1.795 4-4s-1.793-4-4-4z" fill="#4c241d"/></g><path d="m44.408 172c-2.209 0-4-1.791-4-4v-6.098c0-7.666 6.236-13.902 13.902-13.902h6.098c2.209 0 4 1.791 4 4s-1.791 4-4 4h-6.098c-3.254 0-5.902 2.648-5.902 5.902v6.098c0 2.209-1.791 4-4 4z" fill="#fff"/></g></svg>