<svg id="honeycomb" enable-background="new 0 0 300 300" height="512" viewBox="0 0 300 300" width="512" xmlns="http://www.w3.org/2000/svg"><g><circle cx="174" cy="124" fill="#eaeaea" r="92"/><g fill="#4c241d"><path d="m238 160c-2.211 0-4-1.791-4-4v-8c0-2.209 1.789-4 4-4s4 1.791 4 4v8c0 2.209-1.789 4-4 4z"/><path d="m238 184c-2.211 0-4-1.791-4-4v-8c0-2.209 1.789-4 4-4s4 1.791 4 4v8c0 2.209-1.789 4-4 4z"/><path d="m230 168h-8c-2.211 0-4-1.791-4-4s1.789-4 4-4h8c2.211 0 4 1.791 4 4s-1.789 4-4 4z"/><path d="m254 168h-8c-2.211 0-4-1.791-4-4s1.789-4 4-4h8c2.211 0 4 1.791 4 4s-1.789 4-4 4z"/><path d="m48 72c-7.719 0-14-6.281-14-14s6.281-14 14-14 14 6.281 14 14-6.281 14-14 14zm0-20c-3.309 0-6 2.691-6 6s2.691 6 6 6 6-2.691 6-6-2.691-6-6-6z"/><circle cx="259.005" cy="120.927" r="4.276"/><circle cx="115.005" cy="176.927" r="4.276"/></g><g><path d="m86 60h132v44h-132z" fill="#fff"/><path d="m218 108h-132c-2.211 0-4-1.791-4-4v-44c0-2.209 1.789-4 4-4h132c2.211 0 4 1.791 4 4v44c0 2.209-1.789 4-4 4zm-128-8h124v-36h-124z" fill="#4c241d"/></g><path d="m150 188c-2.211 0-4-1.791-4-4v-18.75c0-3.631-2.453-6.811-5.965-7.734l-58.109-15.293c-7.02-1.85-11.926-8.211-11.926-15.473v-32.75c0-8.822 7.176-16 16-16 2.211 0 4 1.791 4 4s-1.789 4-4 4c-4.41 0-8 3.588-8 8v32.75c0 3.631 2.453 6.811 5.965 7.734l58.109 15.293c7.02 1.85 11.926 8.211 11.926 15.473v18.75c0 2.209-1.789 4-4 4z" fill="#4c241d"/><g><path d="m150 264c-6.627 0-12-5.373-12-12v-68h24v68c0 6.627-5.373 12-12 12z" fill="#bf7e68"/><path d="m150 268c-8.824 0-16-7.178-16-16v-68c0-2.209 1.789-4 4-4h24c2.211 0 4 1.791 4 4v68c0 8.822-7.176 16-16 16zm-8-80v64c0 4.412 3.59 8 8 8s8-3.588 8-8v-64z" fill="#4c241d"/></g><g><path d="m114 60h-20l8-20h4z" fill="#ffce56"/><path d="m114 64h-20c-1.328 0-2.566-.658-3.312-1.758-.742-1.1-.895-2.496-.402-3.729l8-20c.609-1.517 2.077-2.513 3.714-2.513h4c1.637 0 3.105.996 3.715 2.514l8 20c.492 1.232.34 2.629-.402 3.729-.747 1.099-1.985 1.757-3.313 1.757zm-14.094-8h8.188l-4.094-10.23z" fill="#4c241d"/></g><g><path d="m138 60h-20l8-20h4z" fill="#ffce56"/><path d="m138 64h-20c-1.328 0-2.566-.658-3.312-1.758-.742-1.1-.895-2.496-.402-3.729l8-20c.609-1.517 2.077-2.513 3.714-2.513h4c1.637 0 3.105.996 3.715 2.514l8 20c.492 1.232.34 2.629-.402 3.729-.747 1.099-1.985 1.757-3.313 1.757zm-14.094-8h8.188l-4.094-10.23z" fill="#4c241d"/></g><g><path d="m162 60h-20l8-20h4z" fill="#ffce56"/><path d="m162 64h-20c-1.328 0-2.566-.658-3.312-1.758-.742-1.1-.895-2.496-.402-3.729l8-20c.609-1.517 2.077-2.513 3.714-2.513h4c1.637 0 3.105.996 3.715 2.514l8 20c.492 1.232.34 2.629-.402 3.729-.747 1.099-1.985 1.757-3.313 1.757zm-14.094-8h8.188l-4.094-10.23z" fill="#4c241d"/></g><g><path d="m186 60h-20l8-20h4z" fill="#ffce56"/><path d="m186 64h-20c-1.328 0-2.566-.658-3.312-1.758-.742-1.1-.895-2.496-.402-3.729l8-20c.609-1.517 2.077-2.513 3.714-2.513h4c1.637 0 3.105.996 3.715 2.514l8 20c.492 1.232.34 2.629-.402 3.729-.747 1.099-1.985 1.757-3.313 1.757zm-14.094-8h8.188l-4.094-10.23z" fill="#4c241d"/></g><g><path d="m210 60h-20l8-20h4z" fill="#ffce56"/><path d="m210 64h-20c-1.328 0-2.566-.658-3.312-1.758-.742-1.1-.895-2.496-.402-3.729l8-20c.609-1.517 2.077-2.513 3.714-2.513h4c1.637 0 3.105.996 3.715 2.514l8 20c.492 1.232.34 2.629-.402 3.729-.747 1.099-1.985 1.757-3.313 1.757zm-14.094-8h8.188l-4.094-10.23z" fill="#4c241d"/></g><g><path d="m114 104h-20l8 20h4z" fill="#ffce56"/><path d="m106 128h-4c-1.637 0-3.105-.996-3.715-2.514l-8-20c-.492-1.232-.34-2.629.402-3.729.747-1.099 1.985-1.757 3.313-1.757h20c1.328 0 2.566.658 3.312 1.758.742 1.1.895 2.496.402 3.729l-8 20c-.609 1.517-2.077 2.513-3.714 2.513zm-6.094-20 4.094 10.23 4.094-10.23z" fill="#4c241d"/></g><g><path d="m138 104h-20l8 20h4z" fill="#ffce56"/><path d="m130 128h-4c-1.637 0-3.105-.996-3.715-2.514l-8-20c-.492-1.232-.34-2.629.402-3.729.746-1.1 1.984-1.758 3.312-1.758h20c1.328 0 2.566.658 3.312 1.758.742 1.1.895 2.496.402 3.729l-8 20c-.608 1.518-2.076 2.514-3.713 2.514zm-6.094-20 4.094 10.23 4.094-10.23z" fill="#4c241d"/></g><g><path d="m162 104h-20l8 20h4z" fill="#ffce56"/><path d="m154 128h-4c-1.637 0-3.105-.996-3.715-2.514l-8-20c-.492-1.232-.34-2.629.402-3.729.746-1.1 1.984-1.758 3.312-1.758h20c1.328 0 2.566.658 3.312 1.758.742 1.1.895 2.496.402 3.729l-8 20c-.608 1.518-2.076 2.514-3.713 2.514zm-6.094-20 4.094 10.23 4.094-10.23z" fill="#4c241d"/></g><g><path d="m186 104h-20l8 20h4z" fill="#ffce56"/><path d="m178 128h-4c-1.637 0-3.105-.996-3.715-2.514l-8-20c-.492-1.232-.34-2.629.402-3.729.746-1.1 1.984-1.758 3.312-1.758h20c1.328 0 2.566.658 3.312 1.758.742 1.1.895 2.496.402 3.729l-8 20c-.608 1.518-2.076 2.514-3.713 2.514zm-6.094-20 4.094 10.23 4.094-10.23z" fill="#4c241d"/></g><g><path d="m210 104h-20l8 20h4z" fill="#ffce56"/><path d="m202 128h-4c-1.637 0-3.105-.996-3.715-2.514l-8-20c-.492-1.232-.34-2.629.402-3.729.746-1.1 1.984-1.758 3.312-1.758h20c1.328 0 2.566.658 3.312 1.758.742 1.1.895 2.496.402 3.729l-8 20c-.608 1.518-2.076 2.514-3.713 2.514zm-6.094-20 4.094 10.23 4.094-10.23z" fill="#4c241d"/></g><g><path d="m220 92h-2v-20h2c5.523 0 10 4.477 10 10 0 5.523-4.477 10-10 10z" fill="#bf7e68"/><path d="m220 96h-2c-2.211 0-4-1.791-4-4v-20c0-2.209 1.789-4 4-4h2c7.719 0 14 6.281 14 14s-6.281 14-14 14zm2-19.658v11.316c2.328-.826 4-3.051 4-5.658s-1.672-4.832-4-5.658z" fill="#4c241d"/></g></g></svg>