<svg id="lemonade" enable-background="new 0 0 300 300" height="512" viewBox="0 0 300 300" width="512" xmlns="http://www.w3.org/2000/svg"><g><circle cx="160" cy="142" fill="#eaeaea" r="92"/><g fill="#4c241d"><path d="m240 122c-2.209 0-4-1.791-4-4v-8c0-2.209 1.791-4 4-4s4 1.791 4 4v8c0 2.209-1.791 4-4 4z"/><path d="m240 146c-2.209 0-4-1.791-4-4v-8c0-2.209 1.791-4 4-4s4 1.791 4 4v8c0 2.209-1.791 4-4 4z"/><path d="m232 130h-8c-2.209 0-4-1.791-4-4s1.791-4 4-4h8c2.209 0 4 1.791 4 4s-1.791 4-4 4z"/><path d="m256 130h-8c-2.209 0-4-1.791-4-4s1.791-4 4-4h8c2.209 0 4 1.791 4 4s-1.791 4-4 4z"/><path d="m206 182c-7.719 0-14-6.281-14-14s6.281-14 14-14 14 6.281 14 14-6.281 14-14 14zm0-20c-3.309 0-6 2.691-6 6s2.691 6 6 6 6-2.691 6-6-2.691-6-6-6z"/><circle cx="172.328" cy="140.391" r="4.276"/><circle cx="196.328" cy="100.391" r="4.276"/></g><g><path d="m244 56c0 3.314-2.686 6-6 6h-122v-12h122c3.314 0 6 2.686 6 6z" fill="#bf7e68"/><path d="m238 66h-122c-2.209 0-4-1.791-4-4v-12c0-2.209 1.791-4 4-4h122c5.514 0 10 4.486 10 10s-4.486 10-10 10zm-118-8h118c1.104 0 2-.896 2-2s-.896-2-2-2h-118z" fill="#4c241d"/></g><g><path d="m45.934 150 6.447 120h71.238l6.447-120z" fill="#ffec95"/><path d="m123.619 274h-71.238c-2.125 0-3.881-1.662-3.994-3.785l-6.447-120c-.059-1.098.336-2.17 1.092-2.967.754-.797 1.805-1.248 2.902-1.248h84.133c1.098 0 2.148.451 2.902 1.248.756.797 1.15 1.869 1.092 2.967l-6.447 120c-.114 2.123-1.87 3.785-3.995 3.785zm-67.447-8h63.656l6.018-112h-75.692z" fill="#4c241d"/></g><g><path d="m130.066 150 1.934-36h-88l1.934 36z" fill="#fff"/><path d="m130.066 154h-84.132c-2.125 0-3.881-1.662-3.994-3.785l-1.934-36c-.059-1.098.336-2.17 1.092-2.967.753-.797 1.804-1.248 2.902-1.248h88c1.098 0 2.148.451 2.902 1.248.756.797 1.15 1.869 1.092 2.967l-1.934 36c-.113 2.123-1.869 3.785-3.994 3.785zm-80.341-8h76.551l1.504-28h-79.559z" fill="#4c241d"/></g><g><path d="m92 66v16h-12v46c0 3.314 2.686 6 6 6h4c3.314 0 6-2.686 6-6v-10.367c.628.223 1.295.367 2 .367h4c3.314 0 6-2.686 6-6v-46z" fill="#ffce56"/><path d="m90 138h-4c-5.514 0-10-4.486-10-10v-46c0-2.209 1.791-4 4-4h8v-12c0-2.209 1.791-4 4-4h16c2.209 0 4 1.791 4 4v46c0 5.514-4.486 10-10 10h-2v6c0 5.514-4.486 10-10 10zm-6-52v42c0 1.104.896 2 2 2h4c1.104 0 2-.896 2-2v-10.367c0-1.299.631-2.518 1.691-3.266 1.059-.75 2.418-.936 3.643-.506.264.094.48.139.666.139h4c1.104 0 2-.896 2-2v-42h-8v12c0 2.209-1.791 4-4 4z" fill="#4c241d"/></g><g><path d="m116 44.176v23.648c0 3.411-2.765 6.176-6.176 6.176h-9.824v-36h9.824c3.411 0 6.176 2.765 6.176 6.176z" fill="#6b4f5b"/><path d="m109.824 78h-9.824c-2.209 0-4-1.791-4-4v-36c0-2.209 1.791-4 4-4h9.824c5.611 0 10.176 4.564 10.176 10.176v23.648c0 5.612-4.565 10.176-10.176 10.176zm-5.824-8h5.824c1.199 0 2.176-.977 2.176-2.176v-23.648c0-1.199-.977-2.176-2.176-2.176h-5.824z" fill="#4c241d"/></g><g><path d="m52 44.176v23.648c0 3.411 2.765 6.176 6.176 6.176h9.824v-36h-9.824c-3.411 0-6.176 2.765-6.176 6.176z" fill="#bf7e68"/><path d="m68 78h-9.824c-5.612 0-10.176-4.564-10.176-10.176v-23.648c0-5.612 4.564-10.176 10.176-10.176h9.824c2.209 0 4 1.791 4 4v36c0 2.209-1.791 4-4 4zm-9.824-36c-1.2 0-2.176.977-2.176 2.176v23.648c0 1.199.976 2.176 2.176 2.176h5.824v-28z" fill="#4c241d"/></g><g><path d="m100 38v36c0 4.418-3.582 8-8 8-4.418 0-8-3.582-8-8v-36c0-4.418 3.582-8 8-8 4.418 0 8 3.582 8 8z" fill="#bf7e68"/><path d="m92 86c-6.617 0-12-5.383-12-12v-36c0-6.617 5.383-12 12-12s12 5.383 12 12v36c0 6.617-5.383 12-12 12zm0-52c-2.205 0-4 1.795-4 4v36c0 2.205 1.795 4 4 4s4-1.795 4-4v-36c0-2.205-1.795-4-4-4z" fill="#4c241d"/></g><g><path d="m84 38v36c0 4.418-3.582 8-8 8-4.418 0-8-3.582-8-8v-36c0-4.418 3.582-8 8-8 4.418 0 8 3.582 8 8z" fill="#6b4f5b"/><path d="m76 86c-6.617 0-12-5.383-12-12v-36c0-6.617 5.383-12 12-12s12 5.383 12 12v36c0 6.617-5.383 12-12 12zm0-52c-2.205 0-4 1.795-4 4v36c0 2.205 1.795 4 4 4s4-1.795 4-4v-36c0-2.205-1.795-4-4-4z" fill="#4c241d"/></g><path d="m104 190c-6.617 0-12-5.383-12-12s5.383-12 12-12 12 5.383 12 12-5.383 12-12 12zm0-16c-2.205 0-4 1.795-4 4s1.795 4 4 4 4-1.795 4-4-1.795-4-4-4z" fill="#4c241d"/><circle cx="88" cy="218" fill="#4c241d" r="4"/><circle cx="100" cy="238" fill="#4c241d" r="4"/><circle cx="72" cy="250" fill="#4c241d" r="4"/><circle cx="68" cy="190" fill="#4c241d" r="4"/><g><path d="m254.667 206c0 35.346-33.429 64-74.667 64s-74.667-28.654-74.667-64z" fill="#a9ba5a"/><path d="m180 274c-43.377 0-78.666-30.504-78.666-68 0-2.209 1.791-4 4-4h149.332c2.209 0 4 1.791 4 4 0 37.496-35.289 68-78.666 68zm-70.51-64c2.434 31.225 33.129 56 70.51 56s68.076-24.775 70.51-56z" fill="#4c241d"/></g><g><path d="m240 206c0 28.403-26.863 51.429-60 51.429s-60-23.026-60-51.429z" fill="#fc8c29"/><path d="m180 261.428c-35.289 0-64-24.865-64-55.428 0-2.209 1.791-4 4-4h120c2.209 0 4 1.791 4 4 0 30.562-28.711 55.428-64 55.428zm-55.803-51.428c2.406 24.287 26.516 43.428 55.803 43.428s53.396-19.141 55.803-43.428z" fill="#4c241d"/></g><path d="m180 226c-2.209 0-4-1.791-4-4v-4c0-2.209 1.791-4 4-4s4 1.791 4 4v4c0 2.209-1.791 4-4 4z" fill="#4c241d"/><path d="m200 226c-1.023 0-2.047-.391-2.828-1.172l-4-4c-1.562-1.562-1.562-4.094 0-5.656s4.094-1.562 5.656 0l4 4c1.562 1.562 1.562 4.094 0 5.656-.781.781-1.805 1.172-2.828 1.172z" fill="#4c241d"/><path d="m160 226c-1.023 0-2.047-.391-2.828-1.172-1.562-1.562-1.562-4.094 0-5.656l4-4c1.562-1.562 4.094-1.562 5.656 0s1.562 4.094 0 5.656l-4 4c-.781.781-1.805 1.172-2.828 1.172z" fill="#4c241d"/></g></svg>