<svg id="no-bees" enable-background="new 0 0 300 300" height="512" viewBox="0 0 300 300" width="512" xmlns="http://www.w3.org/2000/svg"><g><circle cx="123" cy="117.5" fill="#eaeaea" r="92"/><path d="m217 149.5c-7.719 0-14-6.281-14-14s6.281-14 14-14 14 6.281 14 14-6.281 14-14 14zm0-20c-3.309 0-6 2.691-6 6s2.691 6 6 6 6-2.691 6-6-2.691-6-6-6z" fill="#4c241d"/><circle cx="39.328" cy="79.891" fill="#4c241d" r="4.276"/><g><path d="m156 52.5c-60.104 0-109 48.896-109 109s48.896 109 109 109 109-48.896 109-109-48.896-109-109-109zm-93 109c0-22.512 8.044-43.178 21.403-59.284l130.881 130.881c-16.106 13.359-36.772 21.403-59.284 21.403-51.281 0-93-41.719-93-93zm163.668 60.356-131.024-131.024c16.258-13.906 37.335-22.332 60.356-22.332 51.281 0 93 41.719 93 93 0 23.021-8.426 44.098-22.332 60.356z" fill="#e66353"/><path d="m156 274.5c-62.309 0-113-50.691-113-113s50.691-113 113-113 113 50.691 113 113-50.691 113-113 113zm0-218c-57.896 0-105 47.104-105 105s47.104 105 105 105 105-47.104 105-105-47.104-105-105-105zm0 202c-53.486 0-97-43.514-97-97 0-22.521 7.928-44.482 22.324-61.838.719-.867 1.768-1.391 2.893-1.443 1.131-.043 2.217.371 3.014 1.168l130.882 130.883c.797.795 1.221 1.891 1.168 3.014-.053 1.125-.576 2.174-1.443 2.893-17.356 14.395-39.317 22.323-61.838 22.323zm-71.244-150.275c-11.479 15.334-17.756 34.084-17.756 53.275 0 49.074 39.926 89 89 89 19.191 0 37.941-6.277 53.275-17.756zm141.912 117.63c-1.059 0-2.076-.42-2.828-1.172l-131.024-131.023c-.789-.787-1.213-1.869-1.168-2.984.043-1.113.549-2.158 1.396-2.883 17.561-15.022 39.919-23.293 62.956-23.293 53.486 0 97 43.514 97 97 0 23.037-8.271 45.395-23.293 62.955-.725.848-1.77 1.354-2.883 1.396-.053.003-.105.004-.156.004zm-125.063-134.718 124.758 124.758c12.047-15.555 18.637-34.706 18.637-54.395 0-49.074-39.926-89-89-89-19.689 0-38.84 6.59-54.395 18.637z" fill="#4c241d"/></g><g fill="#4c241d"><path d="m71 45.012c-2.209 0-4-1.791-4-4v-5.66c0-2.209 1.791-4 4-4s4 1.791 4 4v5.66c0 2.209-1.791 4-4 4z"/><path d="m71 67.648c-2.209 0-4-1.791-4-4v-5.66c0-2.209 1.791-4 4-4s4 1.791 4 4v5.66c0 2.209-1.791 4-4 4z"/><path d="m62.512 53.5h-5.66c-2.209 0-4-1.791-4-4s1.791-4 4-4h5.66c2.209 0 4 1.791 4 4s-1.791 4-4 4z"/><path d="m85.148 53.5h-5.66c-2.209 0-4-1.791-4-4s1.791-4 4-4h5.66c2.209 0 4 1.791 4 4s-1.791 4-4 4z"/></g><g><circle cx="155" cy="135.5" fill="#bf7e68" r="22"/><path d="m155 161.5c-14.336 0-26-11.664-26-26s11.664-26 26-26 26 11.664 26 26-11.664 26-26 26zm0-44c-9.926 0-18 8.074-18 18s8.074 18 18 18 18-8.074 18-18-8.074-18-18-18z" fill="#4c241d"/></g><g><ellipse cx="122.83" cy="177.402" fill="#fff" rx="36" ry="16.196" transform="matrix(.707 -.707 .707 .707 -89.466 138.814)"/><path d="m104.285 209.322c-3.996 0-7.322-1.219-9.738-3.637-4.238-4.238-4.791-11.27-1.555-19.801 2.84-7.488 8.365-15.572 15.557-22.764 16.125-16.123 34.422-22.143 42.564-14.004 8.143 8.141 2.123 26.441-14.002 42.564-7.189 7.191-15.275 12.717-22.764 15.559-3.663 1.392-7.052 2.083-10.062 2.083zm37.033-55.853c-5.965 0-16.426 4.623-27.113 15.309-6.408 6.408-11.285 13.492-13.734 19.945-1.992 5.254-2.094 9.48-.268 11.307s6.055 1.721 11.307-.27c6.453-2.447 13.537-7.326 19.945-13.734 6.408-6.408 11.285-13.492 13.734-19.945 1.992-5.254 2.094-9.48.268-11.307-.855-.856-2.279-1.305-4.139-1.305z" fill="#4c241d"/></g><g><ellipse cx="186.83" cy="177.402" fill="#fff" rx="16.196" ry="36" transform="matrix(.707 -.707 .707 .707 -70.721 184.069)"/><path d="m205.375 209.322c-3.008 0-6.396-.691-10.062-2.082-7.488-2.842-15.572-8.367-22.764-15.559-16.125-16.123-22.145-34.424-14.002-42.564 8.137-8.146 26.439-2.121 42.564 14.004 7.191 7.191 12.717 15.275 15.557 22.764 3.236 8.531 2.684 15.562-1.555 19.801-2.416 2.418-5.744 3.636-9.738 3.636zm-37.084-55.849c-1.809 0-3.219.434-4.088 1.301-1.826 1.826-1.725 6.053.268 11.307 2.449 6.453 7.326 13.537 13.734 19.945 6.41 6.408 13.492 11.287 19.945 13.734 5.25 1.994 9.48 2.098 11.307.27 1.826-1.826 1.725-6.053-.268-11.307-2.449-6.453-7.326-13.537-13.734-19.945s-13.492-11.285-19.945-13.734c-2.754-1.046-5.227-1.571-7.219-1.571z" fill="#4c241d"/></g><path d="m166.996 117.5c-.762 0-1.533-.217-2.215-.672-1.838-1.225-2.334-3.709-1.109-5.547l8-12c1.227-1.84 3.707-2.338 5.547-1.109 1.838 1.225 2.334 3.709 1.109 5.547l-8 12c-.771 1.156-2.039 1.781-3.332 1.781z" fill="#4c241d"/><g><ellipse cx="155" cy="179.5" fill="#bf7e68" rx="28" ry="38"/><path d="m155 221.5c-17.645 0-32-18.842-32-42s14.355-42 32-42 32 18.842 32 42-14.355 42-32 42zm0-76c-13.234 0-24 15.252-24 34s10.766 34 24 34 24-15.252 24-34-10.766-34-24-34z" fill="#4c241d"/></g><path d="m143.004 117.5c-1.293 0-2.561-.625-3.332-1.781l-8-12c-1.225-1.838-.729-4.322 1.109-5.547 1.836-1.229 4.318-.73 5.547 1.109l8 12c1.225 1.838.729 4.322-1.109 5.547-.682.455-1.453.672-2.215.672z" fill="#4c241d"/><g><path d="m127.075 181.524c.282 7.251 2.037 13.964 4.903 19.578 7.458-.596 15.14-.935 23.022-.935s15.564.338 23.022.935c2.865-5.614 4.62-12.327 4.903-19.578-8.964-.879-18.306-1.357-27.925-1.357s-18.961.478-27.925 1.357z" fill="#ffce56"/><path d="m178.023 205.102c-.107 0-.215-.004-.322-.014-15.277-1.223-30.125-1.223-45.402 0-1.613.139-3.146-.727-3.883-2.168-3.195-6.258-5.041-13.602-5.338-21.24-.084-2.117 1.498-3.93 3.605-4.137 18.633-1.828 38-1.828 56.633 0 2.107.207 3.689 2.02 3.605 4.137-.297 7.639-2.143 14.982-5.338 21.24-.687 1.346-2.067 2.182-3.56 2.182zm-23.023-8.936c6.738 0 13.643.248 20.568.738 1.531-3.609 2.568-7.592 3.062-11.754-15.613-1.309-31.648-1.309-47.262 0 .494 4.162 1.531 8.145 3.062 11.754 6.927-.49 13.832-.738 20.57-.738z" fill="#4c241d"/></g><g><path d="m130.441 161.25c7.94-.68 16.128-1.084 24.559-1.084 8.415 0 16.619.365 24.542 1.045-4.763-11.746-13.965-19.711-24.542-19.711-10.589 0-19.801 7.982-24.559 19.75z" fill="#ffce56"/><path d="m130.441 165.25c-1.264 0-2.461-.598-3.219-1.625-.824-1.117-1.012-2.586-.49-3.875 5.549-13.725 16.381-22.25 28.268-22.25 11.869 0 22.695 8.51 28.25 22.207.523 1.291.338 2.758-.488 3.879-.826 1.119-2.168 1.711-3.561 1.611-15.75-1.357-31.4-1.424-48.418.039-.115.01-.228.014-.342.014zm24.559-19.75c-6.805 0-13.246 4.176-17.766 11.232 12.166-.762 23.799-.74 35.51-.029-4.517-7.037-10.953-11.203-17.744-11.203z" fill="#4c241d"/></g></g></svg>