<svg id="oak" enable-background="new 0 0 300 300" height="512" viewBox="0 0 300 300" width="512" xmlns="http://www.w3.org/2000/svg"><g><circle cx="157.329" cy="166" fill="#eaeaea" r="92"/><path d="m255.329 142c-7.719 0-14-6.281-14-14s6.281-14 14-14 14 6.281 14 14-6.281 14-14 14zm0-20c-3.309 0-6 2.691-6 6s2.691 6 6 6 6-2.691 6-6-2.691-6-6-6z" fill="#4c241d"/><g><path d="m129.329 126v-80h-56v208c0 6.627 12.536 12 28 12s28-5.373 28-12v-96l96-56v-16z" fill="#bf7e68"/><path d="m101.329 270c-15.902 0-32-5.496-32-16v-208c0-2.209 1.789-4 4-4h56c2.211 0 4 1.791 4 4v74l90.461-37.691c1.238-.52 2.645-.381 3.758.363 1.113.742 1.781 1.99 1.781 3.328v16c0 1.422-.754 2.738-1.984 3.455l-94.016 54.842v93.703c0 10.504-16.098 16-32 16zm-24-220v204c0 2.82 9.113 8 24 8s24-5.18 24-8v-96c0-1.422.754-2.738 1.984-3.455l94.016-54.842v-7.703l-90.461 37.691c-1.238.518-2.645.379-3.758-.363s-1.781-1.99-1.781-3.328v-76z" fill="#4c241d"/></g><g><ellipse cx="101.329" cy="46" fill="#bf7e68" rx="28" ry="12"/><path d="m101.329 62c-15.902 0-32-5.496-32-16s16.098-16 32-16 32 5.496 32 16-16.098 16-32 16zm0-24c-14.887 0-24 5.18-24 8s9.113 8 24 8 24-5.18 24-8-9.113-8-24-8z" fill="#4c241d"/></g><g fill="#4c241d"><path d="m93.329 130c-2.211 0-4-1.791-4-4v-40c0-2.209 1.789-4 4-4s4 1.791 4 4v40c0 2.209-1.789 4-4 4z"/><path d="m105.329 166c-2.211 0-4-1.791-4-4v-48c0-2.209 1.789-4 4-4s4 1.791 4 4v48c0 2.209-1.789 4-4 4z"/><path d="m105.329 190c-2.211 0-4-1.791-4-4v-12c0-2.209 1.789-4 4-4s4 1.791 4 4v12c0 2.209-1.789 4-4 4z"/><path d="m113.329 234c-2.211 0-4-1.791-4-4v-12c0-2.209 1.789-4 4-4s4 1.791 4 4v12c0 2.209-1.789 4-4 4z"/><path d="m85.329 266c-2.211 0-4-1.791-4-4v-48c0-2.209 1.789-4 4-4s4 1.791 4 4v48c0 2.209-1.789 4-4 4z"/><path d="m113.329 90c-2.211 0-4-1.791-4-4v-28c0-2.209 1.789-4 4-4s4 1.791 4 4v28c0 2.209-1.789 4-4 4z"/></g><g><path d="m145.329 150h24c17.673 0 32 14.327 32 32h-24c-17.673 0-32-14.327-32-32z" fill="#a9ba5a"/><path d="m201.329 186h-24c-19.852 0-36-16.15-36-36 0-2.209 1.789-4 4-4h24c19.852 0 36 16.15 36 36 0 2.209-1.789 4-4 4zm-51.715-32c1.945 13.551 13.633 24 27.715 24h19.715c-1.945-13.551-13.633-24-27.715-24z" fill="#4c241d"/></g><path d="m233.329 186c-.844 0-1.688-.268-2.398-.801l-16-12c-1.77-1.324-2.129-3.832-.801-5.6 1.328-1.764 3.832-2.125 5.598-.799l13.601 10.2 13.602-10.199c1.766-1.332 4.273-.969 5.598.799 1.328 1.768.969 4.275-.801 5.6l-16 12c-.711.532-1.555.8-2.399.8z" fill="#4c241d"/><g><path d="m246.613 212.054c2.901-3.196 4.716-7.398 4.716-12.054 0-9.941-8.059-18-18-18s-18 8.059-18 18c0 4.656 1.815 8.859 4.716 12.054-3.093 5.731-5.002 13.441-5.002 21.946 0 17.673 18.286 32 18.286 32s18.286-14.327 18.286-32c0-8.505-1.909-16.214-5.002-21.946z" fill="#ffce56"/><path d="m233.329 270c-.871 0-1.742-.283-2.469-.852-.809-.633-19.816-15.75-19.816-35.148 0-7.777 1.512-15.281 4.293-21.438-2.602-3.695-4.008-8.066-4.008-12.562 0-12.131 9.871-22 22-22s22 9.869 22 22c0 4.496-1.406 8.867-4.008 12.562 2.781 6.156 4.293 13.66 4.293 21.438 0 19.398-19.008 34.516-19.816 35.148-.727.569-1.598.852-2.469.852zm0-84c-7.719 0-14 6.281-14 14 0 3.426 1.305 6.752 3.676 9.367 1.141 1.256 1.363 3.094.559 4.586-2.914 5.406-4.52 12.525-4.52 20.047 0 11.787 9.625 22.281 14.285 26.672 4.66-4.391 14.285-14.885 14.285-26.672 0-7.521-1.605-14.641-4.52-20.047-.805-1.492-.582-3.33.559-4.586 2.371-2.615 3.676-5.941 3.676-9.367 0-7.719-6.281-14-14-14z" fill="#4c241d"/></g><g><ellipse cx="253.498" cy="226.241" fill="#fff" rx="11.322" ry="25.166" transform="matrix(.707 -.707 .707 .707 -85.729 245.515)"/><path d="m266.517 249.699c-6.801 0-15.746-4.518-23.852-12.625-11.758-11.758-15.965-25.281-9.789-31.457 6.176-6.182 19.699-1.969 31.457 9.789 5.145 5.145 9.105 10.947 11.148 16.338 2.441 6.434 1.957 11.803-1.359 15.119-1.918 1.918-4.547 2.836-7.605 2.836zm-26.008-39c-.922 0-1.602.201-1.977.574-1.824 1.826.504 10.859 9.789 20.145 9.281 9.281 18.313 11.611 20.145 9.789.742-.74.883-3.076-.461-6.625-1.629-4.293-5.031-9.221-9.328-13.52-7.379-7.374-14.598-10.363-18.168-10.363z" fill="#4c241d"/></g><g><ellipse cx="213.498" cy="226.241" fill="#fff" rx="25.166" ry="11.322" transform="matrix(.707 -.707 .707 .707 -97.444 217.231)"/><path d="m200.481 249.699c-3.062 0-5.688-.918-7.605-2.836-3.316-3.316-3.801-8.686-1.359-15.119 2.043-5.391 6.004-11.193 11.148-16.338 11.754-11.76 25.281-15.965 31.457-9.789s1.969 19.699-9.789 31.457c-8.105 8.106-17.051 12.625-23.852 12.625zm26.008-39c-3.57 0-10.789 2.986-18.168 10.363-4.297 4.299-7.699 9.227-9.328 13.52-1.344 3.549-1.203 5.885-.461 6.625 1.82 1.82 10.859-.508 20.145-9.789 9.285-9.285 11.613-18.318 9.789-20.145-.375-.375-1.055-.574-1.977-.574z" fill="#4c241d"/></g><path d="m129.329 166c-2.211 0-4-1.791-4-4v-20c0-2.209 1.789-4 4-4s4 1.791 4 4v20c0 2.209-1.789 4-4 4z" fill="#4c241d"/><g><path d="m176.696 105.072-5.895-23.265c-4.341-17.132 6.029-34.539 23.16-38.879l5.895 23.265c4.341 17.132-6.028 34.538-23.16 38.879z" fill="#a9ba5a"/><path d="m176.696 109.072c-.715 0-1.422-.191-2.047-.564-.91-.541-1.57-1.424-1.832-2.453l-5.895-23.266c-4.875-19.242 6.816-38.863 26.055-43.738 1.031-.264 2.117-.102 3.031.441.91.541 1.57 1.424 1.832 2.453l5.895 23.266c4.875 19.242-6.816 38.863-26.055 43.738-.324.082-.656.123-.984.123zm14.442-61.008c-12.66 5.215-19.918 19.111-16.457 32.76l4.84 19.111c12.66-5.215 19.918-19.111 16.457-32.76z" fill="#4c241d"/></g><g><path d="m69.349 203.282-22.271-8.944c-16.4-6.586-24.355-25.22-17.769-41.62l22.271 8.944c16.4 6.586 24.356 25.22 17.769 41.62z" fill="#a9ba5a"/><path d="m69.349 207.283c-.508 0-1.012-.096-1.492-.289l-22.27-8.945c-8.922-3.582-15.918-10.426-19.691-19.271-3.777-8.842-3.883-18.627-.297-27.551.395-.984 1.164-1.771 2.141-2.189.977-.414 2.074-.428 3.062-.031l22.27 8.945c8.922 3.582 15.918 10.426 19.691 19.271 3.777 8.842 3.883 18.627.297 27.551-.395.984-1.164 1.771-2.141 2.189-.5.213-1.035.32-1.57.32zm-37.555-49.258c-1.438 5.848-.949 11.975 1.457 17.611 2.938 6.879 8.379 12.203 15.32 14.988l18.293 7.35c1.438-5.848.949-11.975-1.457-17.611-2.938-6.879-8.379-12.203-15.32-14.988z" fill="#4c241d"/></g><path d="m233.329 45.512c-2.211 0-4-1.791-4-4v-5.66c0-2.209 1.789-4 4-4s4 1.791 4 4v5.66c0 2.209-1.789 4-4 4z" fill="#4c241d"/><path d="m233.329 68.148c-2.211 0-4-1.791-4-4v-5.66c0-2.209 1.789-4 4-4s4 1.791 4 4v5.66c0 2.209-1.789 4-4 4z" fill="#4c241d"/><path d="m224.841 54h-5.66c-2.211 0-4-1.791-4-4s1.789-4 4-4h5.66c2.211 0 4 1.791 4 4s-1.789 4-4 4z" fill="#4c241d"/><path d="m247.478 54h-5.66c-2.211 0-4-1.791-4-4s1.789-4 4-4h5.66c2.211 0 4 1.791 4 4s-1.79 4-4 4z" fill="#4c241d"/></g></svg>