<svg id="pancake" enable-background="new 0 0 300 300" height="512" viewBox="0 0 300 300" width="512" xmlns="http://www.w3.org/2000/svg"><g><g><path d="m31.487 207.883c-.293 28.957 52.28 52.966 117.424 53.625s118.191-22.281 118.484-51.239l.011-1.675c.062-9.365-7.505-17.017-16.922-17.113l-201.72-2.04c-9.464-.096-17.204 7.474-17.266 16.885z" fill="#6b4f5b"/><path d="m151.719 265.522c-.953 0-1.895-.004-2.848-.014-68.383-.693-121.695-26.021-121.383-57.662l.008-1.539c.039-5.611 2.266-10.869 6.27-14.809 3.98-3.912 9.234-6.059 14.816-6.059h.219l201.723 2.041c11.594.117 20.961 9.602 20.883 21.141l-.012 1.676c-.317 31.214-52.656 55.224-119.676 55.225zm-103.137-72.082c-3.469 0-6.734 1.332-9.207 3.764-2.477 2.438-3.855 5.686-3.879 9.15l-.008 1.549v.021c-.266 26.252 51.695 48.959 113.461 49.584 61.824.588 114.18-21.027 114.445-47.279l.012-1.662c.047-7.143-5.766-13.014-12.961-13.086l-201.722-2.041c-.047 0-.094 0-.141 0zm-17.093 14.444h.039z" fill="#4c241d"/></g><circle cx="40.236" cy="115.405" fill="#4c241d" r="4.276"/><circle cx="163.231" cy="126.478" fill="#eaeaea" r="92"/><g><path d="m47.451 203.41c-.234 23.194 45.223 42.459 101.531 43.029s102.146-17.772 102.38-40.966l.008-1.342c.048-7.502-6.498-13.636-14.638-13.718l-174.36-1.764c-8.18-.083-14.866 5.975-14.913 13.514z" fill="#ffded5"/><path d="m151.547 250.452c-.867 0-1.738-.006-2.605-.014-27.746-.279-53.844-5.02-73.492-13.346-20.762-8.801-32.125-20.773-32-33.717l.008-1.238c.031-4.51 1.871-8.787 5.18-12.041 3.57-3.514 8.617-5.422 13.773-5.447l174.359 1.764c10.316.104 18.66 8.064 18.602 17.744l-.008 1.34c-.133 12.961-11.734 24.705-32.676 33.084-19.192 7.678-44.367 11.871-71.141 11.871zm-89.336-57.803c-3.027 0-5.922 1.145-7.965 3.15-1.781 1.754-2.773 4.023-2.789 6.391l-.008 1.244v.016c-.094 9.354 9.793 18.93 27.121 26.275 18.707 7.928 43.727 12.443 70.449 12.713 26.742.213 51.828-3.736 70.695-11.285 17.477-6.992 27.555-16.367 27.648-25.721l.008-1.324c.031-5.287-4.758-9.637-10.68-9.695l-174.359-1.764c-.042 0-.081 0-.12 0zm-14.761 10.76h.039z" fill="#4c241d"/></g><path d="m103.231 58.478c-2.211 0-4-1.791-4-4v-8c0-2.209 1.789-4 4-4s4 1.791 4 4v8c0 2.209-1.789 4-4 4z" fill="#4c241d"/><path d="m103.231 82.478c-2.211 0-4-1.791-4-4v-8c0-2.209 1.789-4 4-4s4 1.791 4 4v8c0 2.209-1.789 4-4 4z" fill="#4c241d"/><g><path d="m51.45 187.465c-.234 23.195 43.432 42.441 97.531 42.988s98.146-17.812 98.381-41.007l.009-1.342c.049-7.502-6.238-13.633-14.058-13.712l-167.52-1.695c-7.859-.079-14.285 5.981-14.334 13.52z" fill="#ffded5"/><path d="m151.344 234.466c-.801 0-1.602-.004-2.402-.012-57.168-.58-101.746-21.232-101.492-47.021l.008-1.24c.031-4.611 1.887-8.959 5.227-12.242 3.496-3.438 8.246-5.197 13.148-5.252l167.52 1.695c9.996.1 18.078 8.057 18.02 17.736l-.008 1.34c-.129 12.936-11.301 24.676-31.453 33.076-18.498 7.709-42.767 11.92-68.568 11.92zm-85.707-57.768c-2.797 0-5.402 1.047-7.344 2.957-1.812 1.781-2.82 4.121-2.836 6.59l-.008 1.246v.016c-.188 18.348 37.371 38.377 93.57 38.947 25.785.234 49.723-3.752 67.812-11.293 16.766-6.988 26.438-16.375 26.531-25.756l.008-1.324c.031-5.287-4.496-9.631-10.098-9.688l-167.52-1.695c-.037 0-.076 0-.115 0zm-14.187 10.768h.039z" fill="#4c241d"/></g><path d="m95.231 66.478h-8c-2.211 0-4-1.791-4-4s1.789-4 4-4h8c2.211 0 4 1.791 4 4s-1.789 4-4 4z" fill="#4c241d"/><path d="m119.231 66.478h-8c-2.211 0-4-1.791-4-4s1.789-4 4-4h8c2.211 0 4 1.791 4 4s-1.789 4-4 4z" fill="#4c241d"/><g><path d="m55.45 171.521c-.234 23.195 41.641 42.423 93.532 42.948s94.146-17.853 94.381-41.047l.009-1.342c.05-7.502-5.977-13.63-13.479-13.706l-160.68-1.625c-7.538-.076-13.704 5.987-13.754 13.526z" fill="#ffded5"/><path d="m151.16 218.479c-.742 0-1.477-.004-2.219-.012-25.648-.26-49.777-4.996-67.941-13.336-19.184-8.809-29.676-20.758-29.551-33.645l.008-1.238c.031-4.721 1.902-9.141 5.266-12.447 3.32-3.264 7.699-5.055 12.344-5.055h.184l160.68 1.627c9.684.096 17.508 8.051 17.441 17.732l-.008 1.338c-.129 12.908-10.863 24.645-30.227 33.062-17.801 7.744-41.156 11.973-65.977 11.974zm-82.089-57.732c-2.535 0-4.926.977-6.738 2.758-1.836 1.807-2.859 4.221-2.875 6.797l-.008 1.244v.016c-.094 9.406 8.977 18.992 24.887 26.299 17.168 7.883 40.137 12.359 64.684 12.607 24.598.229 47.605-3.762 64.93-11.297 16.055-6.982 25.32-16.383 25.414-25.791l.008-1.324c.035-5.287-4.234-9.629-9.52-9.682l-160.68-1.627c-.036 0-.067 0-.102 0zm-13.621 10.774h.039z" fill="#4c241d"/></g><path d="m245.231 98.478c-7.719 0-14-6.281-14-14s6.281-14 14-14 14 6.281 14 14-6.281 14-14 14zm0-20c-3.309 0-6 2.691-6 6s2.691 6 6 6 6-2.691 6-6-2.692-6-6-6z" fill="#4c241d"/><circle cx="268.236" cy="147.405" fill="#4c241d" r="4.276"/><g><path d="m59.437 155.577c-.234 23.195 39.856 42.405 89.544 42.908s90.158-17.893 90.393-41.088l.101-14.911-179.937-1.82z" fill="#ffded5"/><path d="m151.016 202.495c-.691 0-1.383-.004-2.074-.01-52.688-.535-93.754-21.15-93.504-46.938l.102-14.91c.008-1.062.438-2.08 1.195-2.824.75-.736 1.758-1.148 2.805-1.148h.039l179.934 1.82c2.203.023 3.977 1.822 3.961 4.025l-.098 14.912c-.258 25.468-40.661 45.073-92.36 45.073zm-87.504-57.789-.074 10.898v.014c-.207 20.596 38.984 38.395 85.582 38.867 46.586.414 86.148-16.533 86.355-37.129l.07-10.912zm-4.074 10.871h.039z" fill="#4c241d"/></g><g><path d="m239.231 141.203c0-23.196-40.294-42-90-42s-90 18.804-90 42c0 13.117 12.892 24.826 33.081 32.527 6.545 2.496 10.919 8.726 10.919 15.731v15.742c0 5.523 4.477 10 10 10 5.523 0 10-4.477 10-10v-10.212c0-6.534 5.294-11.833 11.828-11.839h.322c6.543-.006 11.851 5.296 11.851 11.839 0 4.536 3.677 8.213 8.213 8.213h3.787c6.627 0 12-5.373 12-12 0-5.236 3.803-9.675 8.964-10.557 34.449-5.892 59.035-21.326 59.035-39.444z" fill="#ffce56"/><path d="m113.231 219.204c-7.719 0-14-6.281-14-14v-15.742c0-5.27-3.352-10.09-8.344-11.996-22.66-8.639-35.656-21.857-35.656-36.262 0-25.795 41.289-46 94-46s94 20.205 94 46c0 19.877-24.477 36.906-62.359 43.385-3.27.559-5.641 3.34-5.641 6.615 0 8.822-7.176 16-16 16h-3.789c-6.734 0-12.211-5.479-12.211-12.213 0-2.096-.816-4.064-2.301-5.545-1.48-1.48-3.445-2.295-5.539-2.295-.004 0-.004 0-.008 0-4.637.006-8.152 3.521-8.152 7.84v10.213c0 7.719-6.281 14-14 14zm36-116c-46.617 0-86 17.402-86 38 0 10.742 11.406 21.504 30.508 28.787 8.07 3.082 13.492 10.906 13.492 19.471v15.742c0 3.309 2.691 6 6 6s6-2.691 6-6v-10.213c0-8.725 7.098-15.83 15.824-15.84h.016c4.547 0 8.523 1.645 11.516 4.635 2.996 2.992 4.645 6.971 4.645 11.205 0 2.322 1.891 4.213 4.211 4.213h3.789c4.41 0 8-3.588 8-8 0-7.184 5.168-13.283 12.289-14.502 32.801-5.607 55.711-20.205 55.711-35.498-.001-20.598-39.384-38-86.001-38z" fill="#4c241d"/></g><g><path d="m111.231 250.478c-4.418 0-8-3.582-8-8v-8c0-4.418 3.582-8 8-8 4.418 0 8 3.582 8 8v8c0 4.418-3.582 8-8 8z" fill="#ffce56"/><path d="m111.231 254.478c-6.617 0-12-5.383-12-12v-8c0-6.617 5.383-12 12-12s12 5.383 12 12v8c0 6.617-5.383 12-12 12zm0-24c-2.207 0-4 1.795-4 4v8c0 2.205 1.793 4 4 4s4-1.795 4-4v-8c0-2.206-1.793-4-4-4z" fill="#4c241d"/></g><g fill="#fff"><path d="m87.235 132.556c-1.262 0-2.504-.596-3.281-1.709-1.266-1.811-.824-4.305.984-5.57 10.918-7.629 30.242-12.865 53.02-14.367 2.191-.145 4.105 1.521 4.254 3.729.145 2.205-1.523 4.109-3.73 4.256-21.047 1.387-39.348 6.225-48.957 12.941-.7.485-1.501.72-2.29.72z"/><path d="m177.172 120.216c-.184 0-.371-.012-.559-.039-8.082-1.127-16.621-1.699-25.383-1.699-2.211 0-4-1.791-4-4s1.789-4 4-4c9.129 0 18.043.598 26.492 1.777 2.188.305 3.711 2.326 3.406 4.514-.276 2-1.991 3.447-3.956 3.447z"/></g></g></svg>