<svg id="protection" enable-background="new 0 0 300 300" height="512" viewBox="0 0 300 300" width="512" xmlns="http://www.w3.org/2000/svg"><g><circle cx="160.001" cy="124.996" fill="#eaeaea" r="86"/><g fill="#4c241d"><path d="m91.657 80.652c-1.023 0-2.047-.391-2.828-1.172l-11.312-11.312c-1.562-1.562-1.562-4.094 0-5.656s4.094-1.562 5.656 0l11.312 11.313c1.562 1.562 1.562 4.094 0 5.656-.781.781-1.804 1.171-2.828 1.171z"/><path d="m80.345 80.652c-1.023 0-2.047-.391-2.828-1.172-1.562-1.562-1.562-4.094 0-5.656l11.312-11.313c1.562-1.562 4.094-1.562 5.656 0 1.562 1.563 1.562 4.094 0 5.656l-11.312 11.314c-.781.781-1.805 1.171-2.828 1.171z"/><circle cx="238.001" cy="90.996" r="4"/><circle cx="226.001" cy="46.996" r="4"/></g><g><path d="m154.001 62.996c-34.244 43.98-96 47.42-96 47.42 17.454 140.507 96 160.58 96 160.58s78.546-20.072 96-160.58c0 0-64.415-3.44-96-47.42z" fill="#a9ba5a"/><path d="m154.001 274.996c-.332 0-.664-.041-.992-.125-3.312-.848-81.389-22.375-98.977-163.963-.137-1.098.189-2.203.898-3.055.709-.85 1.74-1.369 2.846-1.432.6-.033 60.381-3.902 93.068-45.883.777-.996 1.949-1.545 3.234-1.543 1.262.025 2.434.643 3.172 1.666 30.117 41.938 92.34 45.727 92.965 45.76 1.105.059 2.141.576 2.852 1.426.715.852 1.039 1.961.902 3.061-17.586 141.588-95.664 163.115-98.977 163.963-.327.084-.659.125-.991.125zm-91.498-160.967c9.264 68.502 33.551 106.357 52.488 126.139 18.09 18.896 34.803 25.268 39.002 26.646 8.875-2.963 74.773-29.035 91.504-152.768-14.727-1.555-63.121-9.244-91.609-44.6-30.295 35.228-77.004 42.992-91.385 44.583z" fill="#4c241d"/></g><g><path d="m144.542 96.831c-17.652 15.526-39.881 22.071-53.822 24.784-7.608 1.48-12.503 8.897-11.103 16.52 17.426 94.841 74.384 116.861 74.384 116.861s56.919-22.01 74.366-116.762c1.41-7.657-3.541-15.124-11.195-16.553-14.267-2.662-37.021-9.147-54.063-24.673-5.195-4.733-13.29-4.819-18.567-.177z" fill="#fff"/><path d="m154.001 258.996c-.488 0-.977-.09-1.441-.27-2.41-.932-59.25-23.93-76.877-119.869-1.799-9.791 4.604-19.287 14.273-21.168 14.537-2.83 35.35-9.266 51.941-23.861 6.748-5.936 17.24-5.844 23.908.223 15.945 14.527 37.133 20.906 52.102 23.699 9.754 1.82 16.215 11.334 14.395 21.209-17.652 95.85-74.449 118.836-76.859 119.768-.461.179-.953.269-1.442.269zm-.285-161.588c-2.348 0-4.691.807-6.535 2.428-17.938 15.779-40.189 22.688-55.697 25.705-5.385 1.049-8.943 6.373-7.934 11.871 15.283 83.18 61.658 109.008 70.451 113.205 3.93-1.875 15.391-8.061 28.09-21.596 14.469-15.42 33.559-43.812 42.344-91.512 1.02-5.547-2.566-10.883-7.996-11.896-15.988-2.982-38.684-9.855-56.023-25.648-1.868-1.703-4.286-2.557-6.7-2.557zm-9.176-.576h.039z" fill="#4c241d"/></g><path d="m154.001 134.996c-.844 0-1.688-.268-2.398-.801l-16.002-12c-1.768-1.324-2.125-3.832-.799-5.6 1.324-1.764 3.83-2.127 5.6-.799l13.6 10.199 13.602-10.199c1.766-1.334 4.273-.967 5.598.799 1.328 1.768.969 4.275-.801 5.6l-16 12c-.712.534-1.556.801-2.4.801z" fill="#4c241d"/><g><path d="m167.285 161.05c2.901-3.196 4.716-7.398 4.716-12.054 0-9.941-8.059-18-18-18s-18 8.059-18 18c0 4.656 1.815 8.859 4.716 12.054-3.093 5.731-5.002 13.441-5.002 21.946 0 17.673 18.286 32 18.286 32s18.286-14.327 18.286-32c0-8.505-1.909-16.214-5.002-21.946z" fill="#ffce56"/><path d="m154.001 218.996c-.871 0-1.742-.283-2.469-.852-.809-.633-19.816-15.75-19.816-35.148 0-7.781 1.514-15.285 4.293-21.438-2.6-3.693-4.008-8.064-4.008-12.562 0-12.131 9.869-22 22-22 12.129 0 22 9.869 22 22 0 4.496-1.406 8.867-4.008 12.562 2.781 6.156 4.293 13.66 4.293 21.438 0 19.398-19.008 34.516-19.816 35.148-.727.569-1.598.852-2.469.852zm0-84c-7.719 0-14 6.281-14 14 0 3.428 1.307 6.754 3.676 9.365 1.145 1.256 1.367 3.096.562 4.59-2.918 5.4-4.523 12.52-4.523 20.045 0 11.787 9.625 22.281 14.285 26.672 4.66-4.391 14.285-14.885 14.285-26.672 0-7.521-1.605-14.641-4.52-20.047-.805-1.492-.582-3.33.559-4.586 2.371-2.615 3.676-5.941 3.676-9.367 0-7.719-6.281-14-14-14z" fill="#4c241d"/></g><g><ellipse cx="174.17" cy="175.237" fill="#fff" rx="11.322" ry="25.166" transform="matrix(.707 -.707 .707 .707 -72.898 174.483)"/><path d="m187.189 198.695c-6.801 0-15.746-4.518-23.852-12.625-11.758-11.758-15.965-25.281-9.789-31.457 6.176-6.18 19.699-1.969 31.457 9.789 5.145 5.145 9.105 10.947 11.148 16.338 2.441 6.434 1.957 11.803-1.359 15.119-1.918 1.918-4.547 2.836-7.605 2.836zm-26.008-39c-.922 0-1.602.201-1.977.574-1.824 1.826.504 10.859 9.789 20.145 9.285 9.281 18.316 11.617 20.145 9.789.742-.74.883-3.076-.461-6.625-1.629-4.293-5.031-9.221-9.328-13.52-7.379-7.374-14.598-10.363-18.168-10.363z" fill="#4c241d"/></g><g><ellipse cx="134.17" cy="175.237" fill="#fff" rx="25.166" ry="11.322" transform="matrix(.707 -.707 .707 .707 -84.614 146.199)"/><path d="m121.197 198.754c-3.111 0-5.725-.971-7.648-2.895-3.318-3.316-3.801-8.686-1.361-15.119 2.045-5.391 6.006-11.193 11.15-16.338 11.758-11.756 25.281-15.963 31.457-9.789 6.176 6.176 1.969 19.699-9.789 31.457-5.145 5.145-10.947 9.105-16.338 11.15-2.702 1.026-5.218 1.534-7.471 1.534zm25.964-39.059c-3.57 0-10.789 2.986-18.168 10.363-4.299 4.299-7.697 9.227-9.326 13.52-1.348 3.549-1.203 5.885-.463 6.625.742.742 3.076.883 6.625-.463 4.293-1.629 9.221-5.027 13.52-9.326 9.285-9.285 11.613-18.318 9.789-20.145-.375-.374-1.055-.574-1.977-.574z" fill="#4c241d"/></g><path d="m126.595 49.68c-5.295 0-10.201-3.438-11.814-8.76-.955-3.154-.627-6.492.928-9.398s4.148-5.033 7.303-5.988c6.51-1.967 13.412 1.717 15.385 8.229 1.973 6.51-1.719 13.412-8.229 15.387-1.188.358-2.391.53-3.573.53zm-.01-16.678c-.416 0-.838.061-1.256.188-1.109.336-2.02 1.084-2.566 2.105s-.662 2.195-.326 3.305c.693 2.289 3.123 3.588 5.41 2.893 2.289-.693 3.586-3.121 2.893-5.41-.569-1.872-2.293-3.081-4.155-3.081z" fill="#4c241d"/><path d="m50.003 214.998c-1.588 0-3.09-.953-3.717-2.516-.82-2.053.178-4.379 2.229-5.201l20-8c2.057-.814 4.379.18 5.201 2.229.82 2.053-.178 4.379-2.229 5.201l-20 8c-.488.193-.99.287-1.484.287z" fill="#4c241d"/><path d="m62.001 194.998c-.418 0-.846-.066-1.266-.207l-12-4c-2.096-.699-3.229-2.965-2.529-5.061.697-2.094 2.955-3.238 5.061-2.529l12 4c2.096.699 3.229 2.965 2.529 5.061-.558 1.676-2.119 2.736-3.795 2.736z" fill="#4c241d"/><path d="m65.999 230.996c-.877 0-1.76-.287-2.496-.877-1.727-1.379-2.006-3.896-.625-5.621l8-10c1.381-1.73 3.9-2.004 5.621-.625 1.727 1.379 2.006 3.896.625 5.621l-8 10c-.789.988-1.953 1.502-3.125 1.502z" fill="#4c241d"/></g></svg>