<svg id="rain" enable-background="new 0 0 300 300" height="512" viewBox="0 0 300 300" width="512" xmlns="http://www.w3.org/2000/svg"><g><circle cx="156.212" cy="166" fill="#eaeaea" r="92"/><g><circle cx="108.212" cy="176" fill="#bf7e68" r="22"/><path d="m108.212 202c-14.336 0-26-11.664-26-26s11.664-26 26-26 26 11.664 26 26-11.664 26-26 26zm0-44c-9.926 0-18 8.074-18 18s8.074 18 18 18 18-8.074 18-18-8.074-18-18-18z" fill="#4c241d"/></g><g><ellipse cx="76.042" cy="217.902" fill="#fff" rx="36" ry="16.196" transform="matrix(.707 -.707 .707 .707 -131.808 117.592)"/><path d="m57.497 249.822c-3.996 0-7.32-1.219-9.738-3.637-8.141-8.141-2.121-26.439 14.004-42.564 16.125-16.127 34.422-22.143 42.563-14.004 8.141 8.143 2.121 26.441-14.004 42.564-7.191 7.191-15.273 12.717-22.762 15.559-3.664 1.391-7.055 2.082-10.063 2.082zm37.086-55.849c-1.992 0-4.465.525-7.219 1.57-6.453 2.449-13.535 7.326-19.945 13.734-6.406 6.408-11.285 13.492-13.734 19.945-1.992 5.256-2.094 9.482-.27 11.307 1.824 1.828 6.051 1.725 11.305-.27 6.453-2.447 13.535-7.326 19.945-13.734 14.02-14.02 17.605-27.65 14.004-31.252-.867-.867-2.281-1.3-4.086-1.3z" fill="#4c241d"/></g><g><ellipse cx="140.042" cy="217.902" fill="#fff" rx="16.196" ry="36" transform="matrix(.707 -.707 .707 .707 -113.063 162.847)"/><path d="m158.587 249.822c-3.008 0-6.398-.691-10.062-2.082-7.488-2.842-15.57-8.367-22.762-15.559-16.125-16.123-22.145-34.422-14.004-42.564 8.141-8.139 26.438-2.123 42.562 14.004 16.125 16.125 22.145 34.424 14.004 42.564-2.418 2.419-5.742 3.637-9.738 3.637zm-37.086-55.849c-1.805 0-3.219.434-4.086 1.301-3.602 3.602-.016 17.232 14.004 31.252 6.41 6.408 13.492 11.287 19.945 13.734 5.254 1.994 9.48 2.09 11.305.27 1.824-1.824 1.723-6.051-.27-11.307-2.449-6.453-7.328-13.537-13.734-19.945-6.41-6.408-13.492-11.285-19.945-13.734-2.754-1.046-5.227-1.571-7.219-1.571z" fill="#4c241d"/></g><path d="m120.208 158c-.762 0-1.531-.217-2.215-.672-1.84-1.225-2.336-3.709-1.109-5.547l8-12c1.223-1.84 3.699-2.338 5.547-1.109 1.84 1.225 2.336 3.709 1.109 5.547l-8 12c-.769 1.156-2.039 1.781-3.332 1.781z" fill="#4c241d"/><g><ellipse cx="108.212" cy="220" fill="#bf7e68" rx="28" ry="38"/><path d="m108.212 262c-17.645 0-32-18.842-32-42s14.355-42 32-42 32 18.842 32 42-14.356 42-32 42zm0-76c-13.234 0-24 15.252-24 34s10.766 34 24 34 24-15.252 24-34-10.766-34-24-34z" fill="#4c241d"/></g><path d="m96.216 158c-1.293 0-2.562-.625-3.332-1.781l-8-12c-1.227-1.838-.73-4.322 1.109-5.547 1.844-1.229 4.32-.73 5.547 1.109l8 12c1.227 1.838.73 4.322-1.109 5.547-.684.455-1.453.672-2.215.672z" fill="#4c241d"/><g><path d="m80.287 222.024c.282 7.251 2.037 13.964 4.903 19.578 7.458-.596 15.14-.935 23.022-.935s15.564.338 23.022.935c2.865-5.614 4.62-12.327 4.903-19.578-8.964-.879-18.306-1.357-27.925-1.357s-18.961.478-27.925 1.357z" fill="#ffce56"/><path d="m131.235 245.602c-.105 0-.211-.004-.32-.014-15.289-1.223-30.117-1.223-45.406 0-1.652.154-3.148-.729-3.883-2.168-3.191-6.256-5.035-13.6-5.336-21.24-.086-2.115 1.496-3.93 3.605-4.137 18.633-1.828 38-1.828 56.633 0 2.109.207 3.691 2.021 3.605 4.137-.301 7.641-2.145 14.984-5.336 21.24-.687 1.346-2.066 2.182-3.562 2.182zm-23.023-8.936c6.734 0 13.641.248 20.57.738 1.527-3.607 2.566-7.59 3.059-11.754-15.609-1.309-31.648-1.309-47.258 0 .492 4.164 1.531 8.146 3.059 11.754 6.929-.49 13.836-.738 20.57-.738z" fill="#4c241d"/></g><g><path d="m83.653 201.75c7.94-.68 16.128-1.084 24.559-1.084 8.415 0 16.619.365 24.542 1.045-4.763-11.746-13.965-19.711-24.542-19.711-10.589 0-19.801 7.982-24.559 19.75z" fill="#ffce56"/><path d="m83.653 205.75c-1.262 0-2.461-.598-3.219-1.625-.824-1.117-1.012-2.586-.488-3.875 5.547-13.725 16.379-22.25 28.266-22.25 11.871 0 22.695 8.51 28.25 22.209.523 1.289.336 2.758-.488 3.877-.824 1.121-2.172 1.73-3.559 1.611-15.754-1.354-31.402-1.42-48.422.039-.113.01-.226.014-.34.014zm24.559-19.75c-6.805 0-13.246 4.176-17.766 11.232 12.164-.762 23.793-.74 35.512-.029-4.516-7.037-10.953-11.203-17.746-11.203z" fill="#4c241d"/></g><g><path d="m238.001 134c12.034 0 21.789-9.755 21.789-21.789s-9.755-21.789-21.789-21.789c-1.298 0-2.553.165-3.789.382.864-3.215 1.368-6.578 1.368-10.066 0-21.395-17.343-38.738-38.737-38.738-19.915 0-36.303 15.035-38.475 34.37-1.66-.295-3.36-.476-5.104-.476-16.045 0-29.053 13.007-29.053 29.053s13.008 29.053 29.054 29.053" fill="#fff"/><path d="m238.001 138c-2.211 0-4-1.791-4-4s1.789-4 4-4c9.809 0 17.789-7.98 17.789-17.789s-7.98-17.789-17.789-17.789c-.879 0-1.836.1-3.098.32-1.344.244-2.719-.232-3.641-1.238-.926-1.01-1.27-2.418-.914-3.738.816-3.041 1.23-6.078 1.23-9.029 0-19.154-15.582-34.736-34.734-34.736-17.695 0-32.527 13.248-34.5 30.818-.125 1.098-.699 2.096-1.582 2.758-.887.66-2.023.932-3.094.732-1.57-.279-3.012-.414-4.406-.414-13.812 0-25.051 11.238-25.051 25.053s11.239 25.052 25.052 25.052c2.211 0 4 1.791 4 4s-1.789 4-4 4c-18.223 0-33.051-14.828-33.051-33.053 0-18.811 15.793-34.088 34.816-33 4.082-19.613 21.399-33.947 41.817-33.947 23.562 0 42.734 19.172 42.734 42.736 0 1.887-.137 3.795-.402 5.713 13.676.615 24.613 11.936 24.613 25.762 0 14.221-11.57 25.789-25.789 25.789z" fill="#4c241d"/></g><g fill="#00ccca"><path d="m170.017 137.693c-.367 0-.734-.051-1.105-.156-2.121-.607-3.352-2.822-2.746-4.945l2.199-7.691c.609-2.127 2.816-3.352 4.949-2.746 2.121.607 3.352 2.822 2.746 4.945l-2.199 7.691c-.505 1.756-2.106 2.902-3.844 2.902z"/><path d="m164.216 158.002c-.367 0-.734-.051-1.105-.156-2.121-.607-3.352-2.822-2.746-4.945l2.199-7.691c.609-2.127 2.816-3.355 4.949-2.746 2.121.607 3.352 2.822 2.746 4.945l-2.199 7.691c-.504 1.755-2.106 2.902-3.844 2.902z"/></g><g fill="#4c241d"><g><path d="m62.017 97.693c-.367 0-.734-.051-1.105-.156-2.121-.607-3.352-2.822-2.746-4.945l2.199-7.691c.609-2.125 2.824-3.355 4.949-2.746 2.121.607 3.352 2.822 2.746 4.945l-2.199 7.691c-.505 1.756-2.106 2.902-3.844 2.902z"/><path d="m56.216 118.002c-.367 0-.734-.051-1.105-.156-2.121-.607-3.352-2.822-2.746-4.945l2.199-7.691c.609-2.127 2.824-3.348 4.949-2.746 2.121.607 3.352 2.822 2.746 4.945l-2.199 7.691c-.504 1.755-2.106 2.902-3.844 2.902z"/></g><g><path d="m46.017 69.693c-.367 0-.734-.051-1.105-.156-2.121-.607-3.352-2.822-2.746-4.945l2.199-7.691c.609-2.125 2.82-3.354 4.949-2.746 2.121.607 3.352 2.822 2.746 4.945l-2.199 7.691c-.505 1.756-2.106 2.902-3.844 2.902z"/><path d="m40.216 90.002c-.367 0-.734-.051-1.105-.156-2.121-.607-3.352-2.822-2.746-4.945l2.199-7.691c.609-2.127 2.82-3.346 4.949-2.746 2.121.607 3.352 2.822 2.746 4.945l-2.199 7.691c-.504 1.755-2.106 2.902-3.844 2.902z"/></g><g><path d="m94.017 77.693c-.367 0-.734-.051-1.105-.156-2.121-.607-3.352-2.822-2.746-4.945l2.199-7.691c.609-2.127 2.82-3.346 4.949-2.746 2.121.607 3.352 2.822 2.746 4.945l-2.199 7.691c-.505 1.756-2.106 2.902-3.844 2.902z"/><path d="m88.216 98.002c-.367 0-.734-.051-1.105-.156-2.121-.607-3.352-2.822-2.746-4.945l2.199-7.691c.609-2.127 2.82-3.35 4.949-2.746 2.121.607 3.352 2.822 2.746 4.945l-2.199 7.691c-.504 1.755-2.106 2.902-3.844 2.902z"/></g><g><path d="m218.017 201.693c-.367 0-.734-.051-1.105-.156-2.121-.607-3.352-2.822-2.746-4.945l2.199-7.691c.609-2.127 2.816-3.348 4.949-2.746 2.121.607 3.352 2.822 2.746 4.945l-2.199 7.691c-.505 1.756-2.106 2.902-3.844 2.902z"/><path d="m212.216 222.002c-.367 0-.734-.051-1.105-.156-2.121-.607-3.352-2.822-2.746-4.945l2.199-7.691c.609-2.127 2.816-3.352 4.949-2.746 2.121.607 3.352 2.822 2.746 4.945l-2.199 7.691c-.504 1.755-2.106 2.902-3.844 2.902z"/></g><g><path d="m234.017 233.693c-.367 0-.734-.051-1.105-.156-2.121-.607-3.352-2.822-2.746-4.945l2.199-7.691c.609-2.127 2.82-3.35 4.949-2.746 2.121.607 3.352 2.822 2.746 4.945l-2.199 7.691c-.505 1.756-2.106 2.902-3.844 2.902z"/><path d="m228.216 254.002c-.367 0-.734-.051-1.105-.156-2.121-.607-3.352-2.822-2.746-4.945l2.199-7.691c.609-2.127 2.82-3.355 4.949-2.746 2.121.607 3.352 2.822 2.746 4.945l-2.199 7.691c-.504 1.755-2.106 2.902-3.844 2.902z"/></g></g><g fill="#02eae6"><path d="m186.017 137.693c-.367 0-.734-.051-1.105-.156-2.121-.607-3.352-2.822-2.746-4.945l2.199-7.691c.609-2.127 2.82-3.352 4.949-2.746 2.121.607 3.352 2.822 2.746 4.945l-2.199 7.691c-.505 1.756-2.106 2.902-3.844 2.902z"/><path d="m180.216 158.002c-.367 0-.734-.051-1.105-.156-2.121-.607-3.352-2.822-2.746-4.945l2.199-7.691c.609-2.127 2.82-3.355 4.949-2.746 2.121.607 3.352 2.822 2.746 4.945l-2.199 7.691c-.504 1.755-2.106 2.902-3.844 2.902z"/></g><g fill="#00ccca"><path d="m206.017 137.693c-.367 0-.734-.051-1.105-.156-2.121-.607-3.352-2.822-2.746-4.945l2.199-7.691c.609-2.127 2.824-3.352 4.949-2.746 2.121.607 3.352 2.822 2.746 4.945l-2.199 7.691c-.505 1.756-2.106 2.902-3.844 2.902z"/><path d="m200.216 158.002c-.367 0-.734-.051-1.105-.156-2.121-.607-3.352-2.822-2.746-4.945l2.199-7.691c.609-2.127 2.824-3.355 4.949-2.746 2.121.607 3.352 2.822 2.746 4.945l-2.199 7.691c-.504 1.755-2.106 2.902-3.844 2.902z"/></g><g fill="#02eae6"><path d="m222.017 137.693c-.367 0-.734-.051-1.105-.156-2.121-.607-3.352-2.822-2.746-4.945l2.199-7.691c.613-2.127 2.816-3.352 4.949-2.746 2.121.607 3.352 2.822 2.746 4.945l-2.199 7.691c-.505 1.756-2.106 2.902-3.844 2.902z"/><path d="m216.216 158.002c-.367 0-.734-.051-1.105-.156-2.121-.607-3.352-2.822-2.746-4.945l2.199-7.691c.613-2.127 2.816-3.355 4.949-2.746 2.121.607 3.352 2.822 2.746 4.945l-2.199 7.691c-.504 1.755-2.106 2.902-3.844 2.902z"/></g></g></svg>