<svg id="spoon" enable-background="new 0 0 300 300" height="512" viewBox="0 0 300 300" width="512" xmlns="http://www.w3.org/2000/svg"><g><circle cx="165.828" cy="132.937" fill="#eaeaea" r="92"/><g fill="#4c241d"><path d="m65.828 60.937c-2.211 0-4-1.791-4-4v-8c0-2.209 1.789-4 4-4s4 1.791 4 4v8c0 2.209-1.79 4-4 4z"/><path d="m65.828 84.937c-2.211 0-4-1.791-4-4v-8c0-2.209 1.789-4 4-4s4 1.791 4 4v8c0 2.209-1.79 4-4 4z"/><path d="m57.828 68.937h-8c-2.211 0-4-1.791-4-4s1.789-4 4-4h8c2.211 0 4 1.791 4 4s-1.79 4-4 4z"/><path d="m81.828 68.937h-8c-2.211 0-4-1.791-4-4s1.789-4 4-4h8c2.211 0 4 1.791 4 4s-1.79 4-4 4z"/><path d="m247.828 156.937c-7.719 0-14-6.281-14-14s6.281-14 14-14 14 6.281 14 14-6.282 14-14 14zm0-20c-3.309 0-6 2.691-6 6s2.691 6 6 6 6-2.691 6-6-2.692-6-6-6z"/><circle cx="246.833" cy="89.864" r="4.276"/><circle cx="98.833" cy="129.864" r="4.276"/></g><g><path d="m177.828 184.937h-60-12-79.655c2.849 18.035 22.259 36 45.827 36 11.558 0 22.105-3.364 30.192-8.917 9.958-6.838 21.462-15.083 33.542-15.083h42.093v-12z" fill="#bf7e68"/><path d="m71.999 224.937c-26.902 0-46.785-20.439-49.777-39.375-.184-1.156.148-2.334.906-3.223.762-.891 1.871-1.402 3.043-1.402h151.656c2.211 0 4 1.791 4 4v12c0 2.209-1.789 4-4 4h-42.094c-10.375 0-20.867 7.221-30.129 13.59l-1.145.789c-9.034 6.205-20.561 9.621-32.46 9.621zm-40.73-36c4.785 14.26 20.91 28 40.73 28 10.297 0 20.215-2.918 27.93-8.215l1.141-.785c10.219-7.031 21.801-15 34.664-15h38.094v-4z" fill="#4c241d"/></g><g><path d="m263.828 200.937h-86v-20h86c5.523 0 10 4.477 10 10 0 5.523-4.478 10-10 10z" fill="#6b4f5b"/><path d="m263.828 204.937h-86c-2.211 0-4-1.791-4-4v-20c0-2.209 1.789-4 4-4h86c7.719 0 14 6.281 14 14s-6.282 14-14 14zm-82-8h82c3.309 0 6-2.691 6-6s-2.691-6-6-6h-82z" fill="#4c241d"/></g><g><path d="m97.828 168.937h-9.11c.687-1.181 1.11-2.535 1.11-4 0-4.418-3.582-8-8-8h-24c-4.418 0-8 3.582-8 8 0 1.465.422 2.819 1.11 4h-5.11-1.09c-3.816 0-6.91 3.094-6.91 6.91v37.09c0 4.418 3.582 8 8 8s8-3.582 8-8v-28h44c4.418 0 8-3.582 8-8s-3.582-8-8-8z" fill="#ffce56"/><path d="m45.828 224.937c-6.617 0-12-5.383-12-12v-37.09c0-6.016 4.895-10.91 10.91-10.91h1.09c0-6.617 5.383-12 12-12h24c6.617 0 12 5.383 12 12h4c6.617 0 12 5.383 12 12s-5.383 12-12 12h-40v24c0 6.617-5.383 12-12 12zm-1.09-52c-1.605 0-2.91 1.305-2.91 2.91v37.09c0 2.205 1.793 4 4 4s4-1.795 4-4v-28c0-2.209 1.789-4 4-4h44c2.207 0 4-1.795 4-4s-1.793-4-4-4h-9.109c-1.434 0-2.754-.766-3.469-2.008-.711-1.24-.707-2.77.012-4.006.375-.645.566-1.312.566-1.986 0-2.205-1.793-4-4-4h-24c-2.207 0-4 1.795-4 4 0 .674.191 1.342.566 1.986.719 1.236.723 2.766.012 4.006-.715 1.242-2.035 2.008-3.469 2.008z" fill="#4c241d"/></g><g><path d="m43.828 256.937c-3.314 0-6-2.686-6-6v-8c0-3.314 2.686-6 6-6 3.314 0 6 2.686 6 6v8c0 3.314-2.687 6-6 6z" fill="#ffce56"/><path d="m43.828 260.937c-5.516 0-10-4.486-10-10v-8c0-5.514 4.484-10 10-10s10 4.486 10 10v8c0 5.514-4.485 10-10 10zm0-20c-1.102 0-2 .896-2 2v8c0 1.104.898 2 2 2s2-.896 2-2v-8c0-1.104-.899-2-2-2z" fill="#4c241d"/></g><g><path d="m109.828 95.062v19.625l24 16.375 24-16.375v-19.625l-24-16z" fill="#ffce56"/><path d="m133.828 135.062c-.789 0-1.574-.232-2.254-.695l-24-16.375c-1.094-.746-1.746-1.982-1.746-3.305v-19.625c0-1.338.668-2.586 1.781-3.328l24-16c1.344-.895 3.094-.895 4.438 0l24 16c1.113.742 1.781 1.99 1.781 3.328v19.625c0 1.322-.652 2.559-1.746 3.305l-24 16.375c-.68.463-1.465.695-2.254.695zm-20-22.488 20 13.646 20-13.646v-15.371l-20-13.334-20 13.334z" fill="#4c241d"/></g><g><path d="m133.828 59.062v19.625l24 16.375 24-16.375v-19.625l-24-16z" fill="#fc8c29"/><path d="m157.828 99.062c-.789 0-1.574-.232-2.254-.695l-24-16.375c-1.094-.746-1.746-1.982-1.746-3.305v-19.625c0-1.338.668-2.586 1.781-3.328l24-16c1.344-.895 3.094-.895 4.438 0l24 16c1.113.742 1.781 1.99 1.781 3.328v19.625c0 1.322-.652 2.559-1.746 3.305l-24 16.375c-.68.463-1.465.695-2.254.695zm-20-22.488 20 13.646 20-13.646v-15.371l-20-13.334-20 13.334z" fill="#4c241d"/></g><g><path d="m157.828 95.062v19.625l24 16.375 24-16.375v-19.625l-24-16z" fill="#fc8c29"/><path d="m181.828 135.062c-.789 0-1.574-.232-2.254-.695l-24-16.375c-1.094-.746-1.746-1.982-1.746-3.305v-19.625c0-1.338.668-2.586 1.781-3.328l24-16c1.344-.895 3.094-.895 4.438 0l24 16c1.113.742 1.781 1.99 1.781 3.328v19.625c0 1.322-.652 2.559-1.746 3.305l-24 16.375c-.68.463-1.465.695-2.254.695zm-20-22.488 20 13.646 20-13.646v-15.371l-20-13.334-20 13.334z" fill="#4c241d"/></g><circle cx="149.828" cy="64.937" fill="#fff" r="4"/></g></svg>